<mxfile modified="2023-04-28T07:30:30.013Z" host="app.diagrams.net" agent="Mozilla/5.0 (Windows NT 10.0; Win64; x64) AppleWebKit/537.36 (KHTML, like Gecko) Chrome/112.0.0.0 Safari/537.36" etag="8btjfeIzzbiat5OZqPgQ" version="21.2.3" type="github">
  <diagram id="Ht1M8jgEwFfnCIfOTk4-" name="Page-1">
    <mxGraphModel dx="1034" dy="470" grid="1" gridSize="10" guides="1" tooltips="1" connect="1" arrows="1" fold="1" page="1" pageScale="1" pageWidth="1169" pageHeight="827" math="0" shadow="0">
      <root>
        <mxCell id="0" />
        <mxCell id="1" parent="0" />
        <mxCell id="UEzPUAAOIrF-is8g5C7q-123" value="Amazon&lt;br&gt;CloudWatch Logs&lt;br&gt;" style="outlineConnect=0;fontColor=#232F3E;gradientColor=none;gradientDirection=north;fillColor=#F34482;strokeColor=none;dashed=0;verticalLabelPosition=bottom;verticalAlign=top;align=center;html=1;fontSize=12;fontStyle=0;aspect=fixed;shape=mxgraph.aws4.cloudwatch;labelBackgroundColor=#ffffff;" parent="1" vertex="1">
          <mxGeometry x="800.5000000000002" y="701.5" width="78" height="78" as="geometry" />
        </mxCell>
        <mxCell id="oygtXjmoKWp8-VN4Q7Hx-1" value="" style="sketch=0;outlineConnect=0;fontColor=#232F3E;gradientColor=none;fillColor=#232F3D;strokeColor=none;dashed=0;verticalLabelPosition=bottom;verticalAlign=top;align=center;html=1;fontSize=12;fontStyle=0;aspect=fixed;pointerEvents=1;shape=mxgraph.aws4.users;" parent="1" vertex="1">
          <mxGeometry x="160" y="520" width="78" height="78" as="geometry" />
        </mxCell>
        <mxCell id="oygtXjmoKWp8-VN4Q7Hx-4" value="Developers" style="text;html=1;align=center;verticalAlign=middle;resizable=0;points=[];autosize=1;strokeColor=none;fillColor=none;fontColor=#e2472c;" parent="1" vertex="1">
          <mxGeometry x="160" y="610" width="80" height="30" as="geometry" />
        </mxCell>
        <mxCell id="enYdKQxFRi82km_zU35g-1" value="" style="shape=image;imageAspect=0;aspect=fixed;verticalLabelPosition=bottom;verticalAlign=top;image=data:image/png,iVBORw0KGgoAAAANSUhEUgAAAGcAAABlCAYAAABQif3yAAAAAXNSR0IArs4c6QAAAARnQU1BAACxjwv8YQUAAAAJcEhZcwAADsMAAA7DAcdvqGQAADCnSURBVHhe7b0FeBbX1jb8X9//vUeKxt0FDxJoC8VdirRYgSIFyqnjUApFCxR3C17cJRAguEcIIVYCcUICIe7O/d1rP88TAodS4HBI3qusdjHzzExm9qx7r7Xutcf+P7yTcivvwCnH8g6ccizvwCnH8g6ccizvwCnH8g6ccizvwCnH8g6ccixlB85j7bS8SHlrD6XswCkGcnPyEBMVg6DAIERHRSM9NR2FBYXaDV5RxLh/ZmCuz88rQHJiMiLCI3ncYDyIf4DCfB7zHThPS0RYBOb8MgcD+g/A6FGjsWbVGnhd90ZmRiYeFz+xlpp/GeOV3kY3r50+fvwYDx88xKULl7Bk0RL8a8S/1HFXr1qNuPtx2o00k/IiZRrWjrt7wLWBK/T1DGBtZYMa1WugTeu2mDVzFq5euYoMgvSsCFB5uXnIzspGVmYWNRuZnGZzmpuTq7yguJBuqRMe51HCIxxzP46RP4xEi+YtYGttC0MDQxjqG6J3r97w8fYp2bY8ydsHR2sAMa70WmdnZ5gYmcLK0poAUTmtWb0menTrgeVLlyEkOEQZN/R2qALs8MHD2LxpM1avXK08YN6cXzF39hwsWrBIed62Lb/h0P5D8KEHRjJ0Xbl0GdOnTUfrlq3hYGevOYaFFY9jBTMTM7Ro1gIeBK48Spl5TkJCAqZOmQpHB0eYmZrBigazoffY2tjChj1bftevVx8jho9Qxh3x5Qh06dwFTT5sggb1GsCldh3UrFYDzvaOcLJzQHWnaup3Q65r2aw5+nzaC999/S16ffIp6tSsDVvZN4G3574dbe3hyL8RkN53bYTd23eqsFfepMzAiY+Lx8TxP8KevdnCzEKBIV4j4NjaEhz2bAtzCwWYna2dAszSwhLmZuZqKtuLse24XgwuU2tzLue+bPi3NlznYGMHO66TeXvZjr9lmQAjgMp2Aub6tW4oLioVCsuJlB048fEYM3qsCjMKGJnSWJJ7BAgVfrQqvwUge/Z4G2uCIMsENFFZx2VqvrRyuYCm06eWa0ESMF3pnetWr0VxQdG7nKOTpKQkFdbE6BpQNOCICgBKacySeaokclHNfCkgSmspMMRjdMtKr9OBI172vmtD/LZpCx6L5wg4Oi0HUmaEICMjA4sXLUaNatUZpjT5xtrqCTgqvJVWGlWndvwtav8cVetkGwHjOSrgCDAOnAo4TZnDDuzdr2mUyDtwpADNhdu69ahbx4XgWBAAAUQ86A/AKaUvAkf0ZcCRqQ07xQcN38e6VWtRkJevadhfFhzdiVPD7oZh1A+j4OzkREAsGd4EEMkxllpw7JTavUAlPNlb/7tqwHm+lngOVQiFEIMeH3fDhTPnUCSjE8ILShXAZSlvDRxhqlJAiqanZWC923o0adyEYcxSgSJqYy1eIyrzBEgZmcZ+k6oA1HqYeJMAZO+Ar7/8F+6E3AaK2FBRAamMMXp74GiHYISySkXeu1cfUmZ7WNI4EqoEDFFr7fSPwXniBRr999ClUSEDf6DctwCkC38WpuaqFlrHIjYrPVMDyl8JHJ1kpGdg7Zq1qFWrDixpXBtbB1ixN1vbkCZTrWWeRhM29nxGJga20ii9zM6aIdHa4jlq/gcq66xK8pMUp8LqJP8M/2IYwu+EaRoqwPyVwJEq/M7tO/hy2Jf0DNYyjPsCjgBjbaOZSkizY96xtzSDA9XR0gROVqZKHSxMYW9uzOWct+J6azN6ANVGM7WzNqWxNWqnfpvR8CZU+W2uXW7O7QUcAi0eKuyQwFjSezq2a49L5y5oG1tKy0jeKjiFhYU4e+YsWrdqDTMaQ7xEvEWjnBfPsDCDEw3qaG4AZ3M91LTSQy1rfaoBalrooTqXOZtXRTVLfThbiRoSOEMCpw97rldTS0M4WhNUGwGRYFId1bwJ7AmQvZU5CQEBYkewpSeK55ibmLEgbYDtW35Dfk6epsF/CXC0J1mQX4BDBw+hQf0GMKUxLFXRSQNJDmCYciQw1SyMUN/OFC1cbNG1SS30a98Qg7o0xqDOjdGvTQP0aFITnRs6oH19W7Stb43W9ah1rdGqrhXa1LNFB67r+lFN9GnbEJ93/giDPm7GfXyALk1q46PaNgpke9MqBNCY3kMyIgDRi81NLVDNqRoWzVuA1JTUp9pdVvJWwcnPz8fe3XtR18VFM9hJcKzZiyXUOFkaoTY9pDVBGTfoY2xdMAGe2xbh6oE18D68Dl6H1uLK7uU4u/lXeKydgSMrJuPg0h+xb/F47F04DvsXTeSyKfBc/wsu8u+8963CzUPrqRvgu38tzmxZhDXTvsPgzk3QwI6eZUaA6El2Chw7WJhbqenPkybjUULCU+0uK3l74FDkOsyO7TtQs0ZNgmOqahpr5gN7AlPLujJ6NHXE6p+/QIjnRsTfOIwkfw+kBZ1GRvBppN06gXT/40i9cRRpvoeR7nMIad4HkXJ9v9I0avr1A8jwPoRcP3cUcNtC/xPIv3kCOdRM/1OIu34Yp7csxPiBXfG+M8McQ6QDyYECx4Ih1c4RE8dPVFdHlfwlwNEO+Ao427ZuU9drxHNkNMCOSd/WtCpa1rXBqp+/ROSlHcgMOYm04FPIDr2A4hhvPI72QjYBygw4jhx/d+T5H0W+Tm9qtIBaeNMdRVz/OMCD02MoCjjBavcSIPsIv4qs4LNIvHESV3atwcj+XVDPzhjOlsw/irFZwtHBAZMmEJy4eE2D/0qek5ubi9+2/sawVpcx3pwEwJqGMYezhSG+/6wLAo5tRS4ByQg8hfyIK3gc54eCaB8U0riIvoacQA96wWHkUfO1WlCiGoDy/Y6oaREBehxxCcVRV1F83xd4cAu5d68gM/AC0gMu4tSmpejexAU1zE0IEHMPmWA1B3tM/WkKEh481DS4DIERebthLS8Pu3bu0oJDjyE49pYWaOJSHTsWz8IDnxNIZfjJC70IxPkj8/Yl5ot1uLxtMRK9DqPo99PIv3UE+TcO0ksO0js4FeV84c1DVILkdwhFBAchZ7j9Odw57IYbO5chiR6DByEovHsdWQQo/PwhTBrWm/nHmiSEtQ9BqmZvi1lTZyDpUaKmwWUsbwccrQiVPnXyFBp/2LgEHCeGtr6d2sHr8HakBpxH8o0TKIi4huLYm4i/fBQnl83E+jFD4LNlPgoCGaYCGbpuHkCxv+h+zu9DoZ/oXjUtIlCPbx0Dgs8g7fxeeK+Zjd0/fY0rbvNRFHaDIc4fGf6eSOBxtsybhGa1q6GaOespMsU61Zyx6Nf5SE9N07a4bOX1wPkP3D0wIAg9P+2prmiqOM+cM7xPNwSe3oe0wDNIv8VwFHUNqYGncXP7KnjMnIiNX/fHuQUTkXV1Hw1/mKDsRfGtvQRiN71lN72FemMXPWo38n25zu8wHnu7I2zjAlyeMRYHRg3HqVkTkeF3Hoi9Rc85iUSSjaPr56J9IxdUt2DeYXsa0aM3ua1HTna2prGvc55vMBS+OXC4TMbPZOysqLDoiRZppnI/mszH3Y/HDz+MVAOe1gwnUu0P69MVwWf3IV2YWQB7fdRlPLh+EIdmjsH6Yf2wfnhfnJo9BllX9gIBDF0EIs93G8HZQbD2kABogBKQ8m4IOAxxlw/A59eJ2PNFb+zmPo5PHo2kqwxtMb4kBh5IZk5y3/ArOrzPvCOdxMwSLdW1nb3IzclmTZbPNheUtF2n8luNE/6RlCk4cnCtFuQVqHvM5Ca9hIePqAnK+NHRMYiKjMK96Hu4H3sfsfdiERsTq+4PCw8Lx3yGjlo1a6rL0+I5vTu2gDfJQCp7dDoZWHHEOWQFeeLMsulYNewzrB7RFxeXT0UuaTQCj9Bb9jCEbUfxzZ3UXXjsv0eBk+9H77m5n2BxO3rgnfW/YtfwPthCgM7NnYzC29cV88sKdkfSrePYsWgyWtWrocCxN7VE946dcfzoUbK1+2y3tPe+0pjoKESEhyEyIkLNP0p4iNTkVDziOSc9SlJ3EhXp7kEoU3C0IveGJRGUqMhodW1GVO7aFDDuEQgBJzIiEtFcH0OQoiI0v++E3sHunbvRqmUrlXMk1rdl7z29YyWSWcukkm3lhZwC7l1HjOdu7J46Crun/4Bwj80oCj5JFsawdosAMKzBn57itQ2FvgLQXnrTLtY4+1AcdBy4cw5pZ3bCc8YoHP3pG9zZ40aP9EfBbWGDx1hHuWPpT9+x3rGDE0OaHcEZ+vkgnD97FhFhYWx/BM9DzuceAYpV89FRUQqc+Lg43Cdod+/cRdidMK67hzTmqaful3sD8vrgsKdkpGUgJSkF6WnpSmU+MSGRRdxD5SkCSHh4OEGJ0oAVHqE856bfTUwYNwEutWrD3swUrvZWWDl5FO5fdyfVFe9xR3E0KTBD0H2v44j1Yg0TeQX5t08iy+8APYQA+O9DvtcORB1YgPtHl6HAm55zYx+yqLlkdIUEspi10aNL+5F49QiKw7xRHO6titEksrmQs3sxZnAvuFhbwsnEAu/XaYAl8xchOCiIbbzLNku7I9RUABEAYhgRJArIOcoQT2pqqjrvZK0NJOy9SXllcNTtXVSJu1kZWawJElTDlfEjI+n+PKHwSAXMvehYdQuU3BSYkpzC3pWuwmB2ZhYuX7iEz3r3ha2JCZyM9DG8ezt4H9yErJDzihTkBp1iCLoOPAoA4n1RyFCXE3AIOTf2oMCXeYbhK/vyVtxY9yNCts5E7mXmH9LpPP/DyPY/RBBIuW97Kg/EA3+C7YOsADK4myfxyO84PLetQtePGvHYxqTSNvhy4FD4ed9AbnYuCUGOum87RUIX2y6dTUYNoqNi1PnJfdbhd8OV58TFxqmLh/ksE95kSBN5bc+RXiINl1AmPSqeuUY8JyNdjJ+N/Nz8J/eCPafRcvK7tu9Ep9Zt4GBihMY17DF71FD8fnoXskPOIvvWSeQFsPffOYu8oBPIZh7JJm3OJSMrJDhF9JTsC1vxyH0lUjzWIffiThR47VeFaTYBygo4gsygY9zXSeTcPsM848lwdhrpgWfxu+cuzPp+GOrZkgiYmKFLy7bwOOSO3CztaLSIthPqVDqjnHNOTo66JiUh/SFBk7wqNpAcVCxXUN+gvDY40lgZjpGeJqPNRQVFmsY9L+w+r81clpyYhO1bt6JL+7ZwsjBCUxcHzBk1CDePbECSlzvyWY88DjqLXH8NUDn+x5B78wiKmJeyL+3Gw6NrkXBkNRKPrkbayY0o8mKo8z1I7zqI3AAaO/A4QfUguTiBzOBTig3eObMLSyeMQGsXR3qNHrq2aIUd6zYhOz2rpF26c3gsU/mtU51ot9HZQCKI2OFN35j46uCUbqhunvqYwEhCVACVWq7W6U7yOZLGuH308EGGuO6o7WgOVwcDfN2jOfbMn0gSsB0ZPpJnWP/4eSLr1hka/AwK6QEFNzyQdHoHYg6tRdwRN2Rd3EMmd0oN2+SL0lMKmHNyAz0ZJk8g9so+XNi2CLO/64sW1cxQ06QKerRsgQNbfkN6QrKmMdLG0m3Vtl8te9buXC7nXLJct+0blP8MHBHd79L6jEieyssrxIOHJAuk2/L0QOl7k4uLChEaGoz1qxejP3NP81o26ODCPNCpMeZ83Q8bZozB0bXzcHWvG/zdtyHw2DaEeuzAnWPbEXr0N9zl7zCPnbh7cidCT+5A8LEt6lLB5e3LcHj5NLhN+RqTBnZC74+qo0NdW/Rt8yHm/TgWvmcIdko6UMRGiD7biXTno9Nn5Y+WvyF57bD2qhJP4rBqtRvGjf8R69ZtQHDwbWQzFOjkMd0rKz0ZIf7XsWv9ckz5ehAGdGiC7k3rokuTOvikZUP079gMg7q0xJeftMN3vTvjh16d8U2P9vjm0474jvNf9+yIEVw3rGtLpQPbN8anH7mgZ9N6+Jzz44Z8inVzpxAUD6SSIj9mXlTGfZ5nlAN5a+A8SkzB0mWr0KFjF7Ro2QajRo/DcY9TDGsZ2i10wjiemYzE+2EI9LmAY3s3Y+2SuRj11WA0qV8TFvoVYGNYGfbMF3YGVWFVtSKs9avAlr9tjPVgrlcRVvoV0dy1NsaOGILls6fh4BY33Dh3Eg/uBiMrIU6u+mmPRdH2/lKOXG7krYAjJy4jHlFRsdi9Zz969uyLuvVcMeSL4Th//jIKSyVSjZF0MYZ1Q1E2MlISsHblUrjWqw2DypVgaqAHC0MDWJEGW5GKWxgbw8xE1ATGXF61UgU0qFML61YsR8qDeDzOJwsrLuDO5Wb1UijILA8jOfEvC45IIclCelqW8iCPE57o2asvmrdojRmz5iA0LPLJfXy0kvynsZzGYl7Xr+KzPr3VeJzuOpDcc+YgN4bI7VWWtrDib0uqla09TFjxW5hbonu37rhy+QoKSheHT3b7RJ79XU7k7YFTUIw0gpOVnYfMrBzs3L0PHTp3Vbpuw2ZE33+AfHqQznYKKGpqWhpmzJiBGjIWJ/ccWD4Bxp7AVLN3hpOtQ8mtVlZyL5qdPSwJoJW1Df92Jh6ShOikuJx6yfPkrYEjoSM3txB5+RKyWLjHxmPCpClo9GET9OzTD6vWrseNgGAkpKQhnRV6CovZmPtxOH3mHD7t2VMZWsBRN7MTCDUuRzC6tOuItvRAR3tHdZeousWKKnf2mNKDvvhiKMLCwkucQ4B5B84fiKp5KDKKe/b8JXzctQds7ByVB307cjQWr1iFjVu3w23TFkydPhN9+vZD7Tou9Ap6i6MTWrBobNjofQVUdedq+HnyFPzw7feoxnkJZY1cG6IR19sxvMl9Ct26dkNAQKDmoP/L5K2DU1qS6SXrGdKEvVWrURt1SBJat++IVu06KBWvcnByVsCI57jUrYeRo8bg0169YWlhDSdHZ/wy8xeMHzsODnYO6l64Tz/pqZ4fdSGgxkYm6NLpY/jduMleoT2oiMw/T8uZvH3PoRF0YUUmUv/8tm0X+g8YBNdGH8KpWk1Y05MsmVOs5blN5g9zeom5hSWaNW+BZctX4PPPB8OC4FRzroGZzCnjxozVPvhrjkEDh+DXufPVI+0CTsf2neHr7ffE+DL9Iy1n8vY9h0Z4NubnsBgMDPqdIO3ElKkz8M33o/DVtz9gzPiJ+Oqbb0kGasHYxBTtO3TEho2b8Vm/ATA3t4KzAmcWxoweo8AxN7NQ4KxetRYdCIqBnhHatm4PHwFHRI6rYxrP03ImZRrWSovYpqDwMVJZlMbci0M0CUNs/AOc8jyDJk2bwsjYBG3bd8CGTZvRb8BAepI1nOllM2b8osCREGdmqgFn1cp16NCuC8Ex1oJz48lB3oHzGvIc4xSy+Lly7To+at4chiww2xCc9SQK/T4fxFBno0LgdIIzevR4koXqMDW1xMCBQ7FqlZsGHH2C06YUOCLPum1pcHRaTqRswRHqpgoPLYXTis4+BQTnooDToiX0jI3Ron17rGVY68v8ZEpwHJxr4udps/D9qPGwd6oFIzMbDCA4K+g57dp1hqGBKdq06YBrBEf2KUeRSkrnPOpfXRIU1RVB/P8pkd/PLnsLUj7A4ZmrkQGtAWRSQE3PL8bpy9fRmGyuirEZGtMLFq5ei+69+8FI7m0mOGMnTsGI70bDxpngmNuiT/8hmLdoBVq07gB9Ywu0aNsJZ6/5IlOuvXCfMtQqKqNrjKKaxz9FFXKceRYc3frSy96SlCk4cr5SkgoQYjB5DVFKIRCXXYjwtHwEx6Vgl/tpuDZri8r0CtdW7fDz/MXo0KMnDMxZcDrVxIiRYzHgy29gRXAMCE7XXv0w5Zd5eJ/bVuHv91t3xtZjZ+EXl4rAlFzcySpEDJF5wAPLgx5yTAFNsHmu/BXBEWMIKHL7XjJPPCKvCH4pObgcn45TkY/gHhqL47cisHr3Mbg07YjKVs6o26IDxs2ah7Y9esHQ0o7g1Mbgb0fhky9GwMKxJvQIYLvun2L0tJlwad0GfzOzQ42WH2P+vjPYF/IAO0MSsDc0BSeis3H+YR5uZhUjig1JYhukc+iGW8sAh+fKWwdHTlwMIL01hTMRuY/hnZyHo9Ep+C3kPjYGx2JdQAzW34rGzhsRmOm2D44fdkIFGxfUad0N4+YsQvtP+sDIyh5WzDP9GdI+JjjmDjWhb2aL1t174VuCU5Ms7f83d4Q1/3biRndsvJmA1bdSsTogDWtuJcMtKBE7IlJxMiEXfgQpjm2Rixc6kMqDlAk44jHJtEBoejHOxGZh2++PsDroARYF3MfCwHgsCX6IVSGPsPzSbfQaOw/vOTXF/1jWR5OewzFrzVZ0+KS3Cmvm9JY+349Gx6H/grldTeYcB7RlWJuwdAXe7z0A/9e6Fio4N0Wn0Qsx90wEVgTlYzF1wa1MHicNS4OSsPb3ROyNSse11GLcI0AS5qR95cF73jI4mssB0jujMgtxISYDu0ISsSYgAYsDEzE38BHmBCdhfkgyRnn4o9X4xdD/oDv+5tQKTq0GYtSibVh/5Bza0juMLe1hXb0uejPntB36JUxtq8HQ1A6t6FWL9h3CiCUrYdmsM/6P7fuo+EEvtJi4FhNOR2LurWwsCM7Dr4HpmB+YhIUB7ASBCdgelgKvtDw8IkkpL97zlsEp5n+PIfe5BCZm40BwPNz8HmDFrRQaLB2/BKfil9vpmH4rCX02nYbjwEkwbzsUjQZMwb8WHIDb2VAs338ejdv3gJ6lE2zqfIjB02ajJxmbZQ1XVDa2R/223TB3zxEsu+iNL+a5wfWzUbD6+CtUHzoTg7dfJTgZWHg7D/OC0jEvMIUApWKe/yMsu/UAR6KTEJ6TiXS28s3eHvh68tbDmuSbDMYMv4f0mlv3sFbAYR5YFJKF2b9nYhan0wNSMeFiNL7Z5YVvNpzHuO2+mH3sDpacvItB09xg0aAD3rN1hWu3IZi1zxOTd3qgbufP8X9MXaBXty16/7wc8z0DMM8zCGO2ncdXBPq73dfw8/kILPBPxaKgTCwISiNAKQQoGUtD0tlBkkgW4hGalc7cUwqcMoxvZQJODjU0PQ+HSADc/GKxkj140W2CQ535ezZ+CcnBgtv5WBLAEHQ5CbNOx2Py0XAMXHoSth+PRIV6n8Cpy9cYsfwA1gm4XrEYtmgvHDp9hb/X6Q7bT8Zi0MoTmOQegp89w/Hr9YdYHpyJFbezGcZSMZ+EYB49ZkFIGhYGM/fw+GsIzsl76YgtzFdh7SlwygigMiMECQXFuBabim2B9xhSYjE3+BFmBKdgGsPNzKAczA3Kw3y/HMy+lIwpnvGYcDwGX2zxQbvpe9Hh553oT6AmH4vAQr9szPPJwE/u4QTkPNpN3YuOs49g6G83MfJoJMZ5xmKmD/NLcC5zWTaVZICeMu93qoATlKq8ZveddPinFyGZ3Ufap4pT6Uk6cMoAoLcOjohU5lnUmMx8XI5Nxr47D7Am6D4WBT5kDqAXBWfRaLlkb3mY652JSZ73Me5EDMadvIdJZx5g4olYjHGPxviT8ZjmlYOpXtmYcOohxh2T7R5ggmcixpxMwHfH7mHkqTjMIoC/kgTMUSQgld6TRMaWQLaWiE2hqTgUlQW/1EIksE1C8RUW6p9n9C1LmYAjJy5hI7PoMRLyi3E3swDn7qdjd2gCNjAxrwtIxurATCxjWJvjnYyJpyIx5ngYJp6+h2lXUjD5XCJGHY/FDx5xmHglnZqB7z3u45sj0fSUREy5lIXxZ5Lxnfs9bhOD6V7MLSQC80k8ljPPrCWF3kiWeCAmE1dTCnAn7zFS2aZSN0xppDQwom9Z3iI4/36GQlclhEhtEZv/GEHsvVfisnEqJgv7wzKwhWFnue9D/HL6Ln4+HoKZZyLx6+UETDt7H+MZxsYdj8LUiwmYcpFecyISo93D8DPz08wLiZjsEYsJzFPTPGOw1DcJ65lbdkZm41g8O0JCIbzTisC0hng2KZ3HF2BKxtn+SN+y/Dk4f9YortcMWj4ZuHxKSk5MN1NaNSKhXcJJJhcl88d9utVtsgbf1CJceJCPI7dZzfvew1bfOGz1T8Q6n3gsuxyDFdfi4OafhNW+CVhylSBcisE6rwRs8knCJu8k/HYjCYdIMs7GFuB6UjECyOHDiIKMBsjd0dIpJPmXFJ2lm/Y8fZH82frXkJf3nNIN5FQetZOHhmLv3Ud4WATC5bmcqGjEP3iItPQM5OvuFeO2arBX8+u5IsDK4LRsJ38lxhKjpfN3Et0rLqcIEWR3oen5CE4vgF9yLrwfZcM3MQ9+KYX8XQCfh7nwodcFPsrHHXpgeFoxIhir4giIDKZmcP9Z1FztMdR9clTpUKpTvYqKlP7N/f435KXB0T2kKs+m+N3ww7o16/DTpJ/w9VdfY/DgIRg4aDC+GDoMY8aOxa/z5uHQ4SOIjI5BQWHRU+Dk5+UrfXKS9Di541N3grK8ZJ0Y8HFJ+Mvh/J24OJzxvYETXj445X0DN8JjkFygKWxFxQPF+A+TMuDjF4Qr13zUxbbAW4FIS05Vxys5xitqblYOwkLv4qavH/y8feHPaVxMrKb9/wV5eXB4UvKQ0JLFS9D1466aGypMzGCgb4iqVarC0NAIBkZG6nKyuYUF6jVogMVLliEpSfN4hbyU6NrVa1jKZcuo3l7e6kGkF4oYpZRkpmdi+bLlaNu2PZq3bI1WbdpjytSZiImNV5tq+4/ywtOeF/BZ3wFo2aIN2rbpgMEDh+DS+UsoyiPUWmO/klIiGSGmTJqMDjx+Gx6/Z/dP1GuP5UGx/4a8HDhsnDxGOHP6TNSpXQf6evqoWKEi9KvqK9WrqqeWyQcjZFqlchWYEKTZv8wpeT2Wr48vhtC7ajhXhxOBHTZkKPzoASUWpc3ys/OQl52jemgOw2ZhfoHqFDrjpLPnTxw9FkZV9FG1QmXoV9bHgM8G4G6o5u2C6oIqtaiwGDt37IazUzX88+/voTK3rV+nHo4dPobHuodqZZ+vopSgWwHo2eNT6FWuisrvVVQvDZ9Fm+TlSBB+8/JS4MgzjytXrFJf6RDDi6eIVq5YGVUqVSYQpuqV99YWljA1NEalf1ZADRpGXt8lb5yVnrVy+Ur1mnoDglmR650dnLB142YU5knAYl6JjsXeHbuwbOFiLJy3AGtWrcbNm/7q3QU6SWOOmzByNAwrVYUBDW6ub4Qh/Qci4m64ZgOtIYvpOtt37IQT21CBxxIgXQnOiSPHNEWWzuCvopSggED00oJTpUIl9YbD2TNmERwJpm9e/hQc6bnywtSuH3dT3iLgVKlEgNhAl9ou+Lz/AOXqc+klohPHjsfAfgMw8pvv8HtgsNpHAcFZTXAdbO3ViVX4x3twsnfE5vUbCY4mJFy/dAUft+8EK4ZKc4Jd36Ueftu8Vb2UQSepj5Iw4YfRMK6sB6OKVWFhYILhA79AdHiUdgsKDSlhbfv2XajuzM5UsQoMKumhUZ36OEHPAfPTvxn+ZZTyPHB+KUvPkSeLVyxfoe5RVl7DhhkZGKF9m3bYtX0HwpkgUxOTkZ6Spnn0PTEJMQyB0YzP+bqHo3hyvte9MeTzQahVrYZ6l7O87FSSqi6sXTxzDs0+aAw9nrQBPaOmU3Vs3bD5qWSbzuP8OGoszKoawqSyAUyqGGLo50MQGxWr3UIjxcRz+2876L016DVVoV9RDw1rE5xDAs6T/f2blALieRJEUiF5Ro+dswqjhrx+cvb0WS/OOS/Y35/Jn4ITRRIwfNiXKoyp/EJw5F2Y8p2aPF1Cl/OVWP6ChuRkZOHy+YtYu3I1Vi5dDp9rXsjJzC4xyLmTp9GicVPo88T1GIZq2Dthw6p16kFa8TwBKe0Rw9qocTAhOEbMN0YE6IsBg3EvPFpzEN3xOd23cx9cariUgONKcI4ddMfj/GL1cLEYND+3QH0MSX4/RYfZYSTf5efmKVVva+f6YILTqxvBITBV2YkcrGwxl2EtMzVddc7792IRFR6Jh3EP1N/pzu115cXgcMfXr15Hxw6dUImNkXBmTHb2r+EjEBNZKpT8mfDEou9GYN+u3eqLGwLOof0HEccaKYveFnH7LtYuX4VGdevTkFVUTrEzs8S/Bg/DhtXrsWvrDoT4ByPxfgLGjxwHQ4JiUEkfJnrGBGcIwn8nIRD+rG6n4ZS23i/gVK9DoJmfuK1rnQY4Ts/JSErHlYtXsWvbbqUH9h4kJWZu07E4inj+wb37sY1hdcfWbTh1/AQyktNwm2G6T/dP2UaSEbZTnnIY+fV37Ai78StDunyvZwQ78qTxE7GP+TY2KuY/AuhPwfFgwz54/wMNOGyUJRO/vKRUXmynNpFexqQvj7vLixLyuFwe/5Z56T3FktDpVUf2HUSTRh+oOC0feGjZrAVOuB+HJ/c/ZMBANCQw1qbmiomZVDWAKdXW1AqO1g6o4VAdS+YtRmzEPUwaO5HbGMKQamZginYt2sJt5Tp4HjsFT/dTOOV+Uunk8ZPgZOOg2ZZgCjgnjngg7Pe7GD54OOQF4raWtqhdozbmzJqLPN07CAiuGLZh/QYMW1YqT0ooC/S7pQGnR0/l2QKQhZEpO0BNMsG6Kk8aCntlZJGpfHRp3KgxiI6I1Oz3NeSF4Mhz9Xt27YELD16pYiUFkLAwYVkChoi87OHKhUvY9dt29dpfWbeV3F/md23bgQA/fxRk5bIn71F5RBpflSfWiKHx8L4DWE52ZkfAKv3PP5XHmOoZKjUhSIZM5MY0rqWxOebMmK3A+WncjwSPNRXXieHtLGzxfr1GaNmkObUFmn/YDK0/aon6teoRbLJHfRPlOQ0Jzin3EwgNuo0+n/ZhG+hRVQzYWWww9aepyM/RnI9Q7S08B/k6lbSzKqNFK3akG9d9EEpw+n7SU+PdQkqq6KHqe5U0oZjnpc/fRiwnRAWg2jVqwY2RouQjFq8oLwRHaOymjZvUsy9CmSv+8z00YA8/cuCQxiMoQgh+IDOT+qU2e5GAJ1rd0RkNyLiWLFikQsLBPftQh2RAkn0l1h4SwsSb3JavRn32XmuyNPEWI56kTC0MjGFnbg0HSzvUdq6FFQuXaT1HBw7Bo0coz+C8hK8SfU+Mp0/PMiE4xmrbRnUb4vRxT4ITis96fcakrkeD6ivv0YCjMaDktq2bNOAII5No0aJpc9zwEnBC6DmasGagzY22rHWaksh0ZGHarPFH6gMWAoyoAcGSz5OF3b6jCW2vGOJeCI7Q6C2bt6inxsRrpD75wLUR3A8dUbWESKD/LfUVjX/837+x2OPJUKXOee9vf4che5C8Cjid9ckBhoraBFBOqOLf/oGGLvXhfuAw/HjSG1auwcivvkXdajUVOOJBDpY2GNJvIBbNXYhVS1bC94o3EmIfkhCMV7lGA4wm9wggVf5ZGZX/UREV/qcCqvyjkiIL5oZmalt9eskH9K5zJ87gTtAd9O/TXxWw4j1WZjb4acJk5GZqEri86ELnOZVYOkix2ZRG92buDQ0KQW+GOF3OMTc0Qf9efUg0juCmzw2cPnEKXzEfS60nXiesTj47duzwURTJt0hFXgGgF4c1ArBxw0Y40wv02AsEHPGcw8pzNODcDgrGgL79tb2FBiNhkHk9Nt6C3jD952mqeBRwXKrXUidVmXWO5BiPw+4oFraUX0TDeaLVR82VZ1X5Z0VUI912I2jZaVmk5PnKaClka0IIxODKcxj6nG0dVUhr26IN2rVsi/at2qFDq/Yq1FkaW8BYz4hhh1S6rivOEpy7IXfQr3c/jedQrcysCM5PPMaTsLZ5wyblAdLJBJzmTZpqw5oOnCpKHa3tMH/WHORnaVireN1Rdlyp0SoT2KqMNpJ7pMZTzFRtpNWXkBd7DpP9Hhq1PtGXIRpxcakdNrP+0OWcpIQk1iNb8f3X32NgnwEMXbVoOJ64FInMFbOmzqTnpBGc/aS2ZE80vpxww7oN4HHkuIZdUXyv+qBNs1YEphLBq4Tq9s7Ysn6T5ltqWklNJDisc0z0aXDGfANqt85dcWT/IdZRPmogMsg/ADe9/TCXRpMHeWU7UVce7yzpunyGpW9PyTmaPGFtboXJE39SdF0Jz1nypoxmKHAYCVoyrN1kTfYsONKBls5fWDLKISKDoh937Ky8RqKIdFB5+k5YqZI3BY7sRF6Y2qxpM0UI9HiS1kygs2fOQab2RT7iQSmJqbjHfHCSCbdzm46qV0ttIYl89rRZyEjJwIE9B1CH4FQhaJUIgCt78nEBR2t7r8teaN20FSoxNFVlzqjpWB2b3DaQ8dFo2pNJTUpW4BizCJZhIPGcwSxsI2X4pvQJE/A9pLe1GCZVeCEIrvTUMyeZc4J/R2/mAV0+sWLOmDThR7K1J71/CzufgCOdSMDReI63FhzJOSzGSQSc6V2Lf11QMsohEkLSIONvVWgvObapkQmmTZnKek2uHr2avBgciv9Nf3Trphm60acx9BjLB/T9HHdZmzwrIbeC8Unn7iVJWgdO5gvAkfc2iFy+cJk9tCUq/L2CWu9k54z1a9yeBieZRehohjXGdAUOVcARUqKpb7ghe74YeK8Cp4YykDBEHTi3mTeU8QQcqgxeSl2Sqw074qkS1iTnCDAq53zYBD5XvZhzCKwiBFWY2/4BW7LMRXPn/xs4MsQjxxTwpS6UIR4ZyH1V+VNw5D1q8tlgGbYxZPw2ZHVem0ZeSvaUwjBTWoJvBqJ7p26afKDAscCc6bORnZqF/XsOks0RnApVUJHe0cBFEuUxGlJj+QtnL6DFRy1Q8T0mdqozw9qGtRueJFKKAmfME3BEZRxPsSERAq2uO2nBqVmtujKu0GEB5zTBCQkMUnWLgCbGkw+5/kTP0YEjAEvxKUNMiuDw7z8iG/MlIbgbTBrenXUOwan093+WgCN5UycS1jq1Z/Rg2yS0CfjLFi/VdLJXlD8FR0Zc5XPD1cm0qjKXCDhGpKcfNmqMxfOXqGo7lEk28k4EDjKvSFEoTMmAYc3c0BSzfp6pwtp+rqtdvbYC53lh7eLZiwocWS8sSorEBTxxGRYRT5BELWN4pcGRemJg/88RIZ4jIjhrPWfPzl0Ep2YpcFjnsOAVcITeSk0iy6V4lE+CyWhFcWERkh8lYfmSZSV1jniXeI7vNW+EMV+VLkLtyShnTJ5KopKkAMrOyMRO1nvyFSvZt2g9l7qsFXe/1ism/xQcOWH5LvSwL4bRIAbKeAYEyJg1hKOtE1o3b01X7620PdmSsCdjqUMIjlTws6bMYJ3zR+B4lIDjdcULHdt1IrOS+kAKOWN0aNOBHWAhdvCEpZh9FE8qrQVHQpowQwEnXHs952lwNGFNgVO5imKZMiIRGvI7qfRnarn0bAk7Uh7I0L+Mgs+ZNRtdmNDNCJoAKN4l9YuMBQqVljpHBmdlJMPKxJzn3AZzmfA3rnVTbZWywtTIWO1bQptcmJMhsNKj6y8rfw4ORZjZcZ5YazZEvEdfjEfvqcTwo8Dib0OtCs2VqrwqlwuNnTllOtKT07Fv1z4aq5YKWTpwPI560CM0YS2MBh42eBhPiixMgWPEkzRlBW+tjCzjcbHR99QlCUUIaDjxnkEDBmo+5SW7UeBwUgocYVziAVIQHz/ijvjY+5p9EBRZLrWYzMuXE6uxZJDPhMn+xbByDB043leuIZhMsGfXHorqC+UXFZAkvMn1KdmHKf/WUE9TgArZ+OG7H9R7UEva9wryUuCIyDstD7K++Yy9zokNkRHqCmyk5CIZsa4irk42JwxK1JjgNarnis1uG5GTkU1w9msIAQtGSfqu9RoSnBMlr/uV94Ju37INTRjfdfTXgPupyJpIQsvMaTMQHRGlkrcZGZDyHBp26KAhT9iaTgnO7h0S1jSEQMKLrhiUr0p5HD2G9q3bqn2o8MZtBESp4+S8ZPxQ6hMZA5R1knNkiCokIAifduuhtjXmsWtz/7oRAd1xZMRa2KEALpdVjrsfK6kJ/2vgSKKVO26uX7uOubPnqlfev9/oA9RifHVydCL1tFdfVhcjyPV1GZ2V6+sxkdEq6V86e4mGHIaObTuhHYvEEUNHsOr2ecqo8fdiFVP6pGt3NZgoPV+GgeRDqxsYNiQvyKh2d4aOzky6Uk/IBb4HsXHKY5TKvtjW855nMJheJcMqsq1cP7p++apaL5e7d27bgT49e6uvuku7hToLmDIgK6Pu8in/L4cOV2Hpu6++YfF6W40yy4XFtjy/Pj17qRAoIyDS3kb1XdXwlbRZbPBZrz5qfFHo/+vKS4OjExnSEZDk/dAXz1/Ezu074UbDraXRpC6RXhl48xaSExJRUKAtzmiQLFb6MRExpOBhrDVCEXE3Ehmp5P4lBtVMZSRbrqAeOXiY9cYmNWTv6XGSwN1nFZ/LaZyiq3JtJZg9WUJdgVwmfgacFHq6sDi1LbeTS9nqM5OyDUWuXt5mzSPeJPlCqng51qWz59U1GbmZRMAQbxGqLu2Sazz32NmEVEgoFYKSQcJyl8eRfCbF66b1G3Fo3wH1d3IvRMm5vYa8PDhyENFnRBKdvDZfKmy5cPVvDfmDv1OiWy5TnXFFOJULYFJ5S/4QYz+1Xiel/07mS+uz2+qk9HLuV6i67oKa+sKu/O1riLDJQrEB2yys7yl5zX2+suf8oZQ2jEjp3/+JijxvuegfAfMyKlJ6vrT80bKXVZHnLXtF+e+A87b0PwGntIrIVPYlRbFo6eW6da+juv28hvzvB+d5y19VRZ5nVN26MpL/3eC8KRV53rzudxnJmwPnnbxxeQdOuRXg/wGiQSHBxupBwQAAAABJRU5ErkJggg==;" vertex="1" parent="1">
          <mxGeometry x="146.5" y="201.5" width="103" height="101" as="geometry" />
        </mxCell>
        <mxCell id="enYdKQxFRi82km_zU35g-4" value="" style="endArrow=classic;html=1;rounded=0;fillColor=#3333FF;strokeColor=#3333FF;strokeWidth=2;" edge="1" parent="1">
          <mxGeometry width="50" height="50" relative="1" as="geometry">
            <mxPoint x="200" y="500" as="sourcePoint" />
            <mxPoint x="199" y="320" as="targetPoint" />
          </mxGeometry>
        </mxCell>
        <mxCell id="enYdKQxFRi82km_zU35g-5" value="Push Source code to SCM" style="text;strokeColor=none;align=center;fillColor=none;html=1;verticalAlign=middle;whiteSpace=wrap;rounded=0;fontColor=#e2472c;" vertex="1" parent="1">
          <mxGeometry x="110" y="390" width="80" height="60" as="geometry" />
        </mxCell>
        <mxCell id="enYdKQxFRi82km_zU35g-6" value="2" style="ellipse;whiteSpace=wrap;html=1;fillColor=#1ba1e2;fontColor=#ffffff;strokeColor=#006EAF;" vertex="1" parent="1">
          <mxGeometry x="340" y="325.92" width="40" height="26" as="geometry" />
        </mxCell>
        <mxCell id="enYdKQxFRi82km_zU35g-8" value="&lt;font style=&quot;font-size: 20px;&quot;&gt;DevOps Tools&lt;/font&gt;" style="text;align=center;html=1;verticalAlign=middle;whiteSpace=wrap;rounded=0;fontColor=#FF33FF;" vertex="1" parent="1">
          <mxGeometry x="505.53999999999996" y="128.92" width="230" height="60" as="geometry" />
        </mxCell>
        <mxCell id="enYdKQxFRi82km_zU35g-9" value="" style="shape=image;imageAspect=0;aspect=fixed;verticalLabelPosition=bottom;verticalAlign=top;image=data:image/png,iVBORw0KGgoAAAANSUhEUgAAAIMAAAB/CAYAAADMzXEEAAAAAXNSR0IArs4c6QAAAARnQU1BAACxjwv8YQUAAAAJcEhZcwAADsMAAA7DAcdvqGQAAEMYSURBVHhe7V0FYBRZtp2V///+lb++OzvK4BYkhAR3dxlkcAnuOrgH1+AaCO4SCAkhSPAIEHdXIAlxQ86/53VX0oTgBBvuzKEq3f3svvOuvKqu/iIgIgvPR7YeOQgkwnXg368LrY7PeEUUoMuCwfkqaC6fj5cgA6EjRCARrjvmkeT58C8ABX3uM14eah6eg7x5yzQ4fzFekgw6BBqgoPfzw18Pv894K6AuDefgedARIUN/fHpuCsJLkIGV6RBoAMPX8/Dk5/2JSB38PuONQX1S90EFIisXujkiETLgH65Bm59n4zlkyJtUDS8iQ2CkdEQ6rUOGQgARpYP/Z7wRqMMg0WfwE8jUIysXQdR/RLpCQHi6EIEgOQqa5zy8gAysQAd/fcUKYWkGjRDyN9+XzgVGSicU0nIRoIf/Z7wRqEPqMygiP9IFQpRc8G95XT8XakGq+SxonvPw0mRQky2THhieKscUdQxURyJZhwhDJD2BgF8c7utR0HuvB02XQeGGSBakKOTOR4T8HZEqZBBC0JpEicUWFDzPeXgFMrDSdIREpyMsJgPhMemCNEGqIAVh0YZI/oyYJB2iiQLef2ugvlMVQnORJtDNVfDbJYNYBAH9f1hsFmITHiI+GUhMARKSHwkeCh4oJH6GHjm5SEjKRnxSTiHjgcI9wd2kh7gjiE18iIg4iSGi6bp18ZxuXrXUk/OrQffec8igEUFcgx7hQgYSISMHyHwg0B+zBNkPBTx+xhPIoo6y3x4ynoN0aStNkCrniWlA9L0cZRkCJa5TKWek4YaUIRl0eAEZGBjqySAxQkRsprIIOY8Fj4AHciQe6vFI8PgzngB18kh09Tag6VnTe35wXrIFWfLZlCwhQ3yOihsY8OeRgdDm1xDPJQPZolkGBovJYhnSkZgqDUPXuLSZC/nzsxSyUMeEod41iGHWzYtADANSxUJEx2cLGSTgV2Sgq3gjMvBDNDFPk4EM1TpHfJZ3I4Y6J16aDOFvlQxJQoY0IcPjPDIQck58lncnms415CcEycDYISbB0DK8sZv4TIYPUTSdG8KQEMKDXDIEv72YoWAysMHPZHh/ouk8PwoiQ0gUXUS6WIhCJAOjZNWDD0kMNfMLEm3IhmRIF/MdmyhkiKZVIBmyC5EMbPmDUby+E1p/XqJPhh81xDPlhR94v8KuvXsypDzDMrxXRekb1/pkiGfIQ9HcA8mPHzx4hJycR+pcEVwjuSb569PwgQm79DQZsgqRDDFpaguaewyMF3LlvSlIa1jfuOGfBi/nl8eitZTkdMTfu4+42HjExtxT52mpWXjAHRtqVRPWwb8N8Zy635do3fxMBq1x7VSbME0eP0R6agrCQoJx2ckJe3ftxhrL1Vi2ZCmWLFqCxQsWYdniZVi9cjX27NyDS+ecEB4chpyMLF1dmqi65R+tnQ9IVNcE75QMiUIGZhJPKluPdy5aw3mNq7/kn8fyz6OHDxB/NwYet51x9NBuLFkwC2NHDMDIIX0xaewwzJ89GSsWz8FKwaJ502AxaxJmTxmPedMnYe2KJThrewLRocF4mJmuqzy/5DX73oVdeadkiNDI8NTK0+Odi65h3X86ZRDZD3KQcD8RAQE+OGN/Ats2r8K0n4ehX4826NutJWZNGoztGxbC7tg2XD67H5cc9sP+uBVOHNgAq3XzsXj2OEyfMATzpo3Dvh2b4O95Ew8y0qRmTfQDVubREO9P2PpnMggeSxBAOjwUZORkIzo2GlevXcbOHVuw2GIaZk8dienjzWExZTB2rJuN62f3INL3PJKiXJAa6yrHG7gXcgl3g50Q5uUA1wv7cXjHcswV0owb0hO7NlsiyOsWkEVCaIMXaOMm3rOwC9piEB78cslAPBJCZAoRQqMicOLUCSxYOA+zpk/EUovJWDh9JKzXzsEtmeTUyBtIi7qOpDAnJIacQ3zwGdzxP4VY3xNICLKT95yQHn0VdwLOw+PyESyfPQqTRvTGtjVLEe7vIU3JunssmmYUmtd8Ht6TGHbhF0yGPLkTfxcHjx7GgkUWmDlzMmZOHo35U0fgqNVy3D63HzEe9kgJcUJK6AUkhzgiKdgOiYE2SAg4jkRBkpzH+53APV85+p/BXb9zcHXYg9XzxmP2uEHYt2UNMuJjpSUaYxFt3IZ4T2LYBQb4Gb88MojQbz98iAeZmTh3zhGz5s7GqFFDMX7sUIwa2B0rZo7BbYkJEv0uISXoMpIDzyPO4yRCbuwT7EbUrX1I8D0q79kgOeAE7ouFuO9ri9RAR6QFX0agWIetCydiaJfmGNOnC247OeJxWrLY4w/YMsg/ny4ZtPrzgyKp3oOUVPh7eGLR/PkYMNAcQwf3w/gxAzHSvDM2zf8ZYVdPIifcBWlChmi3E7h6xBInNk2FvfUsuJ9ZjTvuB5ARIgQQMiSLVUj1s0N6gCNSfR3h47ALu5dMwtifmqNvqwawXrUUCWEhEqVK2qnSFulD/j69BzHswi/HMrAdWmmtzZwHuBcWDuuNGzGwbx8MMu+Hn8cNx7SJwzBhaA9sXvgzgq4cl8m+hrsednA+sR7Wi0Zg46x+OLR6LFxsliPu1n5khpxGmr9YB+/jSPG2Edgi4ZYN/M5Yw9F6GbbMHYOZEkzOHDkY/q438DBVrIOKG6QTWl/es2jdyCNDIW5HvyoZnvHyS0heqafq4B/MndgHQU5SMlwvXsSwPn0wYoA5FsyeiWUWMzB17CCM7NsBlnNGwePcPiRK9hDotA8HV03AzoXD4XLMEpE39iPB4xiSfU4g1f+kWIITSPGSvz2OINldYgh3G6R5OyDZyxER107CYc8GIcMg3Dhrh4zEe7oOkBAfkFA9wgM9GXIQLGRQc/gMMuR99yWj8MigvVTAWy8heSWeqoMntAz6OUiJjYHtgf3o17Uzpo0bgxk/j8fPIwZhVP+fMGFAV+y2nAX/S0dw3+e8TOhhXN63DJ62G5F4W9yBz2kkeYpr8BIy+Ngg3e8kMgXZQowsP1ukeJ5EkoctEj0l43A/i1sOhySYnILzNoeRfDda1wnNOuTTyRN9fsfCTcFcMkSl6b/kVPAl7I+EDLpS/JfN6eN3nWgV5ohP9LiFDUsXoUfHdpg4agSmThiLicMGYnTfbpg6qAccd63FHVd7pPlcQLzbSURdPoDEmydkwh2QHXAGKR7HcefGXsRd3400z6NIFauQ6LYf91z24777MbEW9oj3skeIsw2u2e6SFHURTuyzQlx4gPSD9xRJzx4L9AGl8hoC9jm/mt6VkAy8U1rd6WRABh0RPiYyqAJPliQRaPp4zK3rYTYSQgNxdOc2cRHd0bFlEwwd0Bejhg3G6IF9Ma5fD1iMHACXQ1ZIdjuLHB8nZHg6IM39NLJ97PFQyPDQX0jifhRRF7fB/fAi3HfZI38fQswlK3ifskTYpR1I8rFFnKctXByssX/LQqxfOh2bVs2XgPWGkDFVOiJafySk0O87GBJBgzaS3L4XshRMBs6n9rV+zu/HYhnyFWRzJAOvN+ChnD3KwaOoUDjvt8bMgb3QvFoFtKhriu6d26BXz07o370jRvTqhEXjBsP5iBXuOdsh0/s8sr0dkelppyODnz1Sbx9F5PmtcN1ngUMLByDccSMyJWYgGZx2zoLTfguEuxyA7+U9sLFeiFUzh2DZ5EGYNbwXHA9YISXcT0eIR5JZ6G0Xu2xIBE1VBsMpXKGKBLzTKVpPBr+PmgwUg8I8kAzKHOdkSKCQAL9j+7HBvDt6mpZDo3LfoZFpGXRoUx9dfmqDbp2ao8+PTTFDJu3ywU2IuX5S3IEDMj3ske1lhwc+dnjoa4fws5vhsG4ctk7uhOVDmijrkCNBZPKtA7i4axa2LTTH1ZOrcHr3AmxdMhqrp5pj3eQB6N/QGLP7d8JVIQTuhkvHSAZFV9XX902GB9IoyRAlZAiMSv30yKBbd9JwVgpSXK5g99C+mF/LGIMrFkMP05IY1rEhlswegyVLpmL6xIEY0LUZeraojkPrZiPqxgkJDM8jS4iQ7XUaOZI25vjaItRhI85uGI+98/rg5MrhCLJfI27iMNI9j8H7zHqsntkDVsuH48Lh5fC5sAe+dttxevlkjGtsjIHVymCtxCT+dkeEoCnSN5KB10ieTQSi0EUaIRl4q7wiQ2QqfMNSZbI/ETLoRE6y0vE4yBcXF83BmgY1sM64FOaalMKMxiY4smACdq+YhvnTh2Dm2F5iFX7Cz/3b4PiWuYh0PY7MAEdkSfaQ5X1KIFmDj6SS7kcQd9UawQ7rcPf6TqRIvJDKINLrOOJuHhISLMXy6T1xYPVE+DnsQOLlQ7i6fBIWNKmC8ZWLYl49ExyYNEICzWv6+OHBU0R45yKNftpkUJBG46IRIWmdVafWsDKrgKNChk1VS2F9ixpw37QAZzfNw/blE7FDcHj9LJzYOhc3HbYh2p37CHbI8j0lsYOkkN4nkCGpZE6ArUoj07yOIlPcw4MgIYu/LdLFaiTL56M9bbB//SRsmzcYTlbzkWC3A24Wo7CxcWWsrFYaK01KY1XbRriy1RKP7oTJLGQqC6aph3jnIo1+umTQ2srOQpKbMxxmTsKyquVx1Kw8rlQtgwNVS8KqkQncl0+Bz/5VuHliPTzsrRB4+SAib9kgTrKBOzLxKdw/8LNBhvcxIcNxZPjayMSfkvRSLAUJIa+lCklSxWqkSTyREuCAhMCzuHhkFaxmD4bN0omI2r0SbhP7YXedcthbqxx2mZTA8uoVsH1wH8Rdc5JY5n5utzXknbwjkba4A/npkYHt6Nt6EB8Pz327YNmiAVaU/hYOlUvCX4JG+yrFsU1iBofhXXHn2HokOR8RM28nK/sckoIcZUJPIz5AJlmQ7S8k8D4iRJAjiSHIChCSBNqKG7FF+BVxGRetEXX9EKLdjsPzwk7Y7rDA/kVjcM5yJiI2zsf1Pm1wxKQobAQnK3+PdRKzzK9dDdc3bkBOVCR7niuPJPtRGdBrKeD1RcsmPtmYIcnPFw5zZ2BBhZI4VKU03KqUQnilH3Cp4nfYXeFrWNUvi5sLRiDu5AbEOForHx/pekRdjk7gBSi/o0j3OSRW4Ciyg04i3Y/XII4iyesI7nseEcthg4ALW3H5wBI4bLfA6e3zsG/dZGyXLMJ27Ux47LREhOUcnGlihnMmxcUqFcN14++wx6gI5pYuisNjRiLe1VmyXmYWFN1NN2rj4bUU8PryCZNB/klPQ+DpUzjQtyfWlPgOF03KIqByCcRX/gHeVYvAzvgrbDb6O7Y3NcLefs1wcGJPnFkzHXEuR5EWZI+U4FNIERKk+R5EZqCQguf+x5Dqdwz33A/A/8ImOB20kMxjLDbM7otVk3ti7ewB2LJsNJZP64sds4bCQbKUm1OG4WiVkrgkBPAQyxBo8i3OVC6CtWW+x6Y2zeBzYA8y78TpOq52JQXv4drFK5EhlxAfNBmkFJX5SFK2yHBcX78WO1s0xt7i38G9cmlEVSyKFKNvEGr8NZxNvsRJwcYK/4BFxX9jZetqsF88EWm3T8vknxH/L9bB+wASvXYjI0jciP9hZARKjCCEiHLZhesnluD41p+xbm5vWIxph7kj2mGxEGLNgqGYP6E7ds4dCVuLiThr3gWHy34P1/JFEGJcBHeM/wNX4++xX8ixzLgMLi9dgORAblOLgthvEkKR4Y008cryBBm4zxCWph4bWBAZFCE+fDJII7y97FE2MrzccXrWdGyrXR225UrCp1JpxFT4AcnlvkR0hS8RZPI1PGqVwLGKX2P5D3/BqtoV4Dh7PHJunpE44ay6YSXabScinDchwXMXUmkhAoQMvscQdmU7zu+bi8MbJ2DD/P5YOa0bVk3rjnUWA2C9bgJ2rZ2IM5tm4/jsUdjTpg6OycTfrlQMIVW+V2RwF8tkU6UYFpT8CicnjkGcq5sEOEICKum1B/9mQjJwO1rbgeR2tO6RjUIOhSzBx0QGFTnKiB5nIdH5Co6MGQEr0yq4WqUigiuXQZxMSoqQIbHCf5Bg/A2iq5fETdPSOFquKLZVq4RTw82R6WQD+F9EEjeYrm2Du8Ni+DguQ6LHHkkfxUL4HEP41Z04v9cCeyxHY+vSIdi2dDCslw3BXnEZF21XIsBlH9wOr8L20d0lnSwJO9NS8JSgNVjihbjKX8LH7AecNSuOpSW+xP4BfRB81lGWZaau+2+mgJcXw3YE/GoHr1qqb2ELGXIf1sFHPavHPevIkPfg0A+eDCwlKwxZiDlnj73mfbG1cgU4V62MECHDHSFDugSO6ZW+R6rxD4g1KQn3KmVgV7kcNhiXw+ZOrRFtsxsIuYq00HMIub4dTodm4PTW0Qh32oh0CRyz/E7hvvsJ+J3bjl0rRmPe2I6YbN4Q80a0xM4Vw+HutA3ht47g2IoJmNGmJuZV+B52NYxwu2pp+Eu7sRW/gr9ZMVwSkliW+De2d2kPj8NHgfvJagRPEKIwRWtDjyfJoHs+g3qKrBBBQeaXz4v8yMggDT3MRPDxI9jVvRu2ViyPa8oylMUdcRPpFb5FWqWiSK5UAhHis91MK+B0jSqwNDPCjMY1sH/uGNxxP42EEEfck2wh6LIEirunw3nvXESd34bUW8eR5X0WqYLQa4fhftYabic3wv3URiHIDgRd3Y+jG6Zhcuf66COuYXq5IjhU1Qg3pB0faTPG6HsEVi2JG9VKY5O4iU2tmsJ5x07gbrxuCPn1VFhiqGjBU2QIT1WTr0gQTiLw8cIfFRkoUjI7Hb57d2Nn586wqmiEK1UqIdC4PGIrFJMA8ltxE8Vwt4Ks1Mrl4ShWYXulMphiVBR9q5bChB7N4HDIEv7uxxEfaI97HkcQ6LAR13fMwZVNM+B1wBJ3Lh5Gyu2ziBfEuNkh5oYNws/vh8uhNdi1cDQm/tQQ/SUG6VWxFCaWLY4tlcrDXnBL2owuXxyBkua6mpbB9pJfY33jeri6aQsQe0fXfe2m2cIWQ0ULniRDinqIq+6psdozpj9KMkhDWenw2GGF7R3bwaqSEa6bGcPXpIIEcGURJqvTU6zEFXEfx40rY42QZbJRWfQTUrSvaYyOLWpj0oSB2L3LEjcvHELkNZnoM3twaeV07BnWFTuH/QTb2aPhsmUp3A9uxs1Dm+G80xJ2S6dg7eAuGFa3ArqW/w69TcrBvIYZxphUwYxy5bGuTBk4GJVBUIWS8DYpg+tCPKtSX2Ftk/pw2rIViNPIIHj9wb+85FO0IoOEW7FChpDIFASGJcvki6uQCQ+SFFN7pDDvjfw4yKClltkZ8LTehm0dWmNrpXK4Xr0KPE0rwdusMm6KhTglRNhauTLmVzbG2CpV0a9GTXRv2gQdOrZBYzHbtWWC+g82x9ZVS3F5zw5c27AKB4b1x9IG1TGxYnFMklW9tEMjbB7WC1bjBmLjkO6Y3aoO+pX5Fp2/+gt6FP0a/YwrYWCDRhjTsCmGVKyCSSXLYlfZ0rgtZLhVtSwum5TAZokZ1rZoiIs7tgP39G7ijRTwCpKvDU4PnwsZF5+N0EghQlgSgoUMwTLpwSSEshK6G2U5vx8+GUhv3siSkwX/fbuxvVN7rDcqDccq5eFSvTKczCrhhFiAFeXLYlQ5I/QzqYZ+jVqgf+ce6N3bHO1790X9Tl1QoYEQonUHjBo2CmumzcDKvn0xvVpVzKtYBjPLFMHk4l9iTLEvMdaoGOY3rYP1PzbHyua1MV1ikJkVy2KOfHaIcRX0qFEbI5q1xPjmrTCmUmWsLlkUTlL+hmlZXJC4YV3xf2FlswY4v2MHkJCoH4ReXksBryD5lJxHhiwDMqQKEXSE+PjIoLZxpaFHDxBtexJ7e/fAerEEjjUq43LdqrAuXxTzi32FoeVK46c69fFTuy7o1s0cHXoMQrOfzFGrU29Ubd8DZZr+CKPmndG6Yw8M7NITY5o0w+zqZthU0xQ7alXBjqplYCkxxrzSP2Bp1YpYKcHhKslK1pgYYXvtGtjZrDmm16knZKiFnnXqYGDTxhhqWhlLShfBmdLfCCnLwLF6WViW/A8sWzfDxV178Dj+vm4Mmp5eSwGvIPnaYLN8muwdRYYkIcN9IUOKngzMLHTgw165B/ERkEH75xESnS7i0OCBMkEVYGMmGUOdKlgo0fuoEl+hZ61qaNelOxp26486Xc1h9qM5jNv3RYV2fVC2TR8Ub9UHJVr2QrVmndGiYSv0qlYLM01NsV3KHa5dFSerG+Fg1fLKBVkKsZaXKIJVpb7DZrEKe6tXx876jTC5Wg10NquOLrXFBTWojb4m5bFEAtczFYrgXLUyOFOzPCzLfgfrvj3gYWsPpGay8zp5bQW8guRrw5AMYYoMiQiJSEaIZBWKEB8dGQwk/fZtHJkwHsskTthtXBqHa1XCnBJfY1SZoujdqBHa9h6Ial37o0L7PijTVtCmN8q27oVSrXujRJu+KCGEqNKkM+rXa4Uu1epigokZNsqq3123Bg6JddhZ3QSWVYyxQiZ/g8QYm1o1hKVkBvNr1oBFwyYSPNZGa0GXOnXRXQLJIeJiNpuUxfUqJZVlsKtRDqvKF8GxMSMQcuWGxDncH3mHkk/RNKpZQoa7ejIEkwzhOjKE6K0DCfGRWQadPAoJg+2CBVhSpzrWlv8Be2obY07ZYhgpK7mLTFbDHgNg1MUcJTr0Q9F2/VFcLEKpVr1QUshQvLWQQWDSogcaCCE612mGEVWqYWWtWthcpya21zDBuuqmmGdSFWvbdYTd9MlwXDoXVmOHY1Lb1pjStRt6tWgtVqU5utRriJ6SUYyT2GW/WChPiRcum5bGCYkZVlYoCoeZUxHr7q3bK5P+v9a4X1U0BWvgQY4kw717WQgXMoQIGUKFDKFChlCZfI0QQYoIHwsZtHbuJeDa9h2wbNscCySF29fQDEslfhhTshR+NK2Dhh1ksrsORZkfB+OH9gNRtE0/ZQ1KCgmKt+4nx36o0roP6rbsiTb126C3lJksK32mZB4WNavDolFjzGjeBsvMh+KitTW8L5yF/b69WDHXAkvmLMTIwWPwo8Qf3eo2xYBKJphRtgwOVSkHT5OSOC+ZxE6jb7C6enk4r12JpNAI1e9HDx9KDPxaI3810RSsgQc5KjKIZSAZaBk0MpAIigwfnWXQ2snIRJjTJRwcPQRzyn2DzeLn15tWgUW5Shhg1gjt2w5A3U4jJUYYhG9bD0CR1uZCgv5iEfqjZKv+KC2oJOQwEzI0bNQR7Wo2RufK1dDLrBYmtmmPlWMmYs3MBZg1YQY2bdiGUw7ncOr8FSzfshtzVmzG0BHT0UksTs8azTHayBTLjSrilASbnqYlYWf8A9aU/hd2dmqC8JNHkXM/RfX5sVLSOxBNwRp4kCNjhifchD5m0Ijw8QWQWjvSYEpwMC6uXIT51cthWeUSsKpVE6srVhOT3widG/dBy85jYdxuGL4XQhRpNUDIMEAswgBxF+Yo07I/Kop1qCrxQ52W3dCoQWvUM66Jdo1bYeLwsVi7ejM2bNuPn+evwsTFa7B412Fssb+MGdsOwnzmCslQRqFVox7oZdoM48uaYmNlU5yWOMNFyHBIyLBScH7GaGR43tTdc0bJfVDmOxA2owcPbDl/ABksZFDppZ4IHx8ZDHE/EUG2x7C1XxdMrVQaa8TnW5rUwgiTBuhYtyPadxmBmh2HoFQbiR1a9hNrYC5BJMnQD+XEclRpPwDV2vdHrdbdUatxW1SVQLJBk1boN2g45ixZhRVb92DGyk0YK4SYsnIzFu84hAnLNuDHgWPRvHU3tKjbGj9VrY9hRlWxxKwGtlUzwd5KxbGyckksb14PPvutRft8kIdeuE/yjkVT1fPIoBHh4yFD/sJUbHYW0gJ8cHHDKkyWLMCieg0sN62FkWb10aFmc3SSlLK+oELbvijXsjeMhBDlxV2UEYtQqdNgmAmqtesL01Y/waR5e1Rs0BSVGjZFLQka2w8chsEz5mPkvOUYMm0BBk+R8xmL0G/MVDTv0A1NG7VEi5r10N7YFD2NKmGiqRnmVDXGooqlME0sxKLePeF/4SIeJ/N2+fcjSk16MH4tiAzqR8w+KjLkL6gg/3BrOjkR0dcvY/XggZhcuy5mmtbGoBoN0aZWM7Rr3xv1JZCsJJmEEcnQQkghKN+mP0y6DEX1HwdKzNADVRp3gKmQoVrLdooMpWvWQdnaDeTvjmjcpS+adTVHk0590ahDDzRq9xNqN26JOrXro06VqqhfthxalS6DgWZmmNqwPla0bYklPbvDYuhwOJ08jZS7Cbr+vgdhs4Zk4A5k7qZTuFhVIYOaRz0JCP6wzMdJBvXVuizkxEbjxsGDmNmxK0aY1UUn07poXLMJmrftjjrteqOypJMVWvZBueZ9ULxhN/zQoAtKNe2G8o06oULt1ihfvQmMJSswa9wCVeo3RnnJKsqY1UZZqat45Vr4oUJ1fFu2Kr4uXRkljaujjKShFY1NUMnICDUEPRo1wsIhQ2C/dg0i7O3h63AWa+cvxprllvDx8EU2f7SLfc6vo0IWrUlDMnA7OkTIEChk0P28ZKrMp44EGj4uN6FETkiGhzl4nJaKlLAIHFm1DmPbdEbDStVRzbQeGgkZ6nUUKyBBYoUWvVG2WW8Ua/gTvq7ZFsUadESNNr3QrtsQdO83CgNGTMSw8ZMxdupMTJo9D1PmLMCkWQsxZspcdDcfidpN26OUcQ1UqtkARtVqoWnrtujUtQsG9e8HayEB086bZxwQ5+mNWP9gnDxig9kzLeBgf049dljrcl7/C1/YlCEZ0jUyRCUhQE+GgKfIoLs2oZvnQnxyi/ZSAW+9hrAGaVQRgniMyFte2LV0LXp16oWqYhlqtegiMcMAmLWVNFIsQ/kW4i5a9UXRekKEzoMwatZKbN9zCsdPXsTZCzdw+bobXG554panD255+QkC4OoegAPH7DFhmgUateqEmuIiqtZrhMFjxsJiyWJYrraE0/lzuOHkBLfLVxDu44/4qDjcdnXH3NnzsW/PAYQG84u4+i6/+cBfWvQa+iWQgZKvpqxHCLrth5US+Tf9sQ9Mm3VB3Q7mqNlOMgchQQXJIkw6DEC5pj+h/dDJsDrkgMioVIhhwYMcfR0FSGjEXVhZH0K3PoNRp2lrmIkrmTzXAtaHDmL/8WM4f/kyrt5whtOlK3C/7YWY6DiEhkRg8aJl2LxpG7w8fN7WgF9J2OQnTYanyqpA0uCVLODilZsYNtkC1VtJyti2H2pKGmkiGUSFVn0kmJQAsllXdBAy7DlxEUlJ+nIFdEiFJXKMjk3E/oMn0avfUNSo3xSVq9fG2CnTsevQYRw7fRpHbU/hupsbLl6+CmfnmwgJCUdkRDSWLVmBDes34fZNj7yvSrDCAtoqDGEznywZnlve4MVb3sGYaLFCMoSuqN5aLIRkEJUlZijfohfKNeuOso07oVnvEdiw8zhiYvXPf9a0ZlAx94g4rqiYeBw4dBK9+w9FzbqNYSTp5IBhI7F+mxX2CCG2WFvjirMzXG+5w93DG/4SM/j6BIhlWIqd1nvg5xugvJmqU2LJpztfOMJmtGF9UmTIX/ap8gYv3PIOwoS5y1CpQVuYNe8hZOgjZOglqWVPySp6oHyTTmjSfQhWbt6P0DBJ/QxFVa6rjAaHiI6Nx+Gjthg4WALJuo1QvmIVtGnfCWMmTMLUWXMwZORITJkxEyssV+PAgcM4bXsG1jt2YapYD5vjpxAbo7/ljaLq150WtrCZ/GSITchHhkghA3/ATMPHQIYXikGF/iFRWLxuG6o17YhyNVuifJ0OqNCoCyo26yaxQw9UaPwj6nTojfkrt8gq5hPaDIT1aG5Hf4i7k4DjNnYYNnwMatWuj7LlKqJxk+YYN/5nrNuwGZZr1mHOvPmYPWceli5djjWr12KZHNev24DbYi0y+J2J9yBqKHrQIPFLNCRDsJDBX8gQEJkMfyGDv5AgD58CGQzkTkIqbM9fxehp89Gi60CYSYxgVK89ytRtC6OGHWDUoB2qNOmACTMWw9XVV19KL4ad0x/j4+/D/owjJkyYjCaNm6OaWU306tkXWzZb4dZNd3h7+eKswzkcOngYe/fsxf59+3Hs6DE433BBYnxi4Q72OcJmDcnAr9fFCBmC9GTw15PBT0iggWTw/1TIwHqzxCbGJabB2TMQ2/bbYOTUBWja2RwV67dF6RrNxVK0RNkaTdBn8DjY2jnpAsX8/TeQ+/dTcOnSVSxcsATm/QehW9ceWLVyjcoStK9PZqRl4X5CEu7euYd7d+ORkpyCbO7/FtZAX0LY9DPJEKEjg9+nTgZNAZQMmSjv4GjsOmqPMTOWoHkXcxjXa40SxnXQpktfWO08iGT+hPxzJCU5Da4ut1QwuGP7LixauAS2J+1k0vPd5PqBiaEufpFkyC9UQkrmQ0TdS8Ft/0jYOblh1xF7TJVsY+SEGbBcvw2hEbFPZKf5JUHcxNUrN7B7514JDu0lHlgh7uAAAvyD9J/4MIVDeiYZfiluwrB+Htm1bDmhMu6nPxSFZODCdXesWLsVC5Za4rrzrbxbDQwL6uV+YjKcr7uq3USbE7awmLsAWzZtUxtMWsr4IYo2do0MeQGkZBHh9yWATJHJ1xNAHXXnnN9PkgzPkntJmTh8/DQWLF6BE2Lyc3L0syoF88cPmZKTebh7iZvYjZUrVmOipJSbN26FJ2MGFntRY+9J2C2NDOymSi3VPgPJkKTmMG/iefxUUksDyd+OBk14zu5eueaKFavWYtu2HeIK9FG/4DEfZmBQgN/b8fX2l1RxI4YMHo6pk6fj6JHjiAiL0lkGVUZ3/JCE3clPBrXpJO7hF0MGSv62+FCtx8oXiMnkc/BEfH0DsGnTFsyeNQfXr93A3bi7SEtNQ2ZGJh6IpXiY80jOs5GcJJmJuIkli5Zh1IgxOH7MBhHh0XiQrauH8rxs5H0Ju8NuEb9oMlCebkf3ymN9tBh/Lx4nbU5ixPCRGNB/AKZNnQbLVZaw2maFnTt2wnr7TmzetFUFjOPHTcQA80HKOtAiPNTuaxT5EIlAYZc+SDJoF31ywb8NX2B5Q9Fef+silaqGedecKCY4RG0QLVm8BHPnzMV8i/mSOi7CwgWLsHTxMjlfrM553LB+I1ycXcVaaE9vE2F1L3IRhTKOFwubfREZ+N1K3dfw3wUZBFw5j2Q1qmcgqjcNRP++8tOGoi/79kVfMfsifcrKzMIdcQ+3b96G00UnnHU4C3u7M7CztYODvQPO2J/BubPncO3qNfj6+CLpflJev3jUtP28vuqbVKKdP+/zb0nYhNa9gsigu/9RRwbdF24LkQxqkhX4a/OP5TMkxJMfy5X8L/LvAj/4lkSZJv25yMMHD5Geli7xQbKacCIhPgGJCYlITUkVK5KtxqGEB03L+frIz7CuR6IQnj/lQniuoZCFTWjdfP9kkNVuuOKp/xxRVHbOA81SfxgifeFkR0dFI8A/AP5+/ggMCMStm7fUkcTIJYKIRnClZQNhHXGxcfDx9oWXp5eqjwGpIgTlHY+ZzbFp4sOwDHoyPJRjqqy8uDt3ERwSirDwCERHxyA2JhZRkVEID4tATHSsUnxOdo4q80Jh1YZtvoEwmDx65KgKIvv17Yfu3bqjebPmGDd2nHIRXOkvklAZ166duzB86HBVfu3qtfBw90B6arrqJy3GK/X3WeN71uv5hB/5YMjAXmhkeCCKCI+IwKnTp7FIgrXZEqzNnTtPgrZ5mCOp3cL5C2EtEbybq5syzWoEFBbXYCjPev01JSM9Q1mCxYsWo0njJvj6q6/xpz/+Ca1btYbtKVuJLUSTIoYWIlfkJRL/vON5mPc3x7fffIt//P0faNqkKfbvOyAxyR31mbdJBvZDc0XPE75LVartaBmC2nR6b2TQd1ZHhkickFRu0uQpaNmyFczMqqGCUUVUM6uulLh1y1a433ZXV/xUeQHLqzp01by66Ot5YXl5n/HCieMn8FPXn/CnP/wJX3zxBZo2bgqb4zZq70F9zMDt5Yq8xD5eOH8Bffv0VUT4o5SvU7uuWIrdyvqRLIoMBUlB/dPX+dTrryAsymnJJYMkQe+VDAo8yPG+KNvTyxvbd1ijmZjgf/3zX/jNr36Db7/+Vpnjy5cuK3P9SL8ppOowxOuIlMslVH4poN6brjcxdvRY/P1v/1BkaNakGWxO5JHhef1gfLF2zVr82PFHVW7ihIm4eOEi7ifeV3ookEgiuTGIoWivPae9FwmLUpPEk2Tg0970D/hSRHjHZNAkMzsbPr5+6G8+AF/952ul8BLFS2DN6jW4d5c/EponhgoiQZgGZqZn4qF2HcFQ9O2piRelPyKkDE2pgv5cvS/QXlcTZNDHW5Jijh83Hv/6x79U3xo2aKj2IehGKOrzbCuva7nC/oUEheD8ufOqjMsNFzWmXItgUIavMTZSO51yzjE9kMCax9x+aVJQe9Jnjkn3ed2Yc8etL8t/tSngHtmTZMh79J/uscHvmAx8KUNWmK9E60OGDMU3X3+jFF66VBls3rhZ3RRChajoWz6sjiKM0qMio1U8QUV7uHvirgSiuYGmfDY7K0cRhWlgUmIS7ifcV0f+zZSRqzNCglQvDy+F8LBwpCSl5Lahye1bt5WV+utf/qr61rhRE+U60tMyVHus807sHTXJqo37ycqtEclyzniH7zGriJEAma5Hm3RmFuwLj2kpOqQK2A+OJywkTGUzwYHB4lri8kivdEHt6YTn7Ed4aDj8fPxUOZ4TYQLqKjtbyCXFOS8kAh8c83wycF41MvC8kMlAyZTV4+8XgGFDhwkZvtWToTQ2bdykcxGqIt2AOZEuzi7YuH4jLOZZYNGCRVi+bDnGjx2vTPCmDZvg6uKmJoqKPed4Tpnp6dNmYML4CbLCJ6h6T9va4eCBg5gzew769O6DHt17YOTwkdhutV2ZdkNhzML6//Lnv6i+MQikm+Akc7fyyOEjapdyyuSpKvhlnHPJ6RIczjhIW5vVLubUKVMlK5mu+nvl0hUpe19N9mnb06r/zFgmjp+IubPnqqD56pWr2GG1A9OlzACxmH379FPjO7D/AIICg8QqZebqhQQ8dfIUli5eipkzZmHpkqXYsnkLVixfiVny9/x588UqHUdaWqYiAz1ujiCPDJkIZswQZkgG7SHihlbhbZNBg4HQlAboycBYQSPDxg0b1YrSynDDh1ZgmKRpjRs1Ru9evZUrOXzoMAYPGoyqJlVRv14DpfSrl68qJTHmmD1rNprIai5erDiKfF8ErVq2lombggUWCzBqxCgpUx/fffsdvv/2e7Rp3UYpkitdE4/bHopImmVo3rS5IsN9WYkhwaHy+a3o2OFHdGjfQU3Y3t17VRbC9JPXNbrw0YJGFVCqZCnVD74fJ/VzPMxKxoweA+PKxvjum+9QvpwRfpS6Fi9aoshOItSuWRvff/c9iv1QDF27dFXuhkSi5SMhOdH9hCwtm7fE0MFDhYzbFMlIev7d7adu6mbclJR0tcHHaaFlICFIhph7GQiOSBIyMGYwJIM2t4Z422TIJ7wvsCAybFi/Qcige3AmTSmVO3bMWJXiFStaDKNGjlYrkLn8yhUrYVTeSE2YWVUzLFywENFiGjmpO613onmzFvjd//xO1V2+XHmMHDFSrWBaghHDRuCHIj/gv//rv5VlYhZD366Ju54Mf/vr31R5BoInT5xUE+ErJtlypaXah5g2ZRqOHj4qliVIuQiSkVvXA8wH4j9f/ge/+uJXKFO6DLZs2qJcBl0Ft7OXLV2mxsO6f/+738O0qqlKrUma9WvXo3fP3io15fvFihZX10yCg4KVC/T08FRkYoxVumRpDBk0RLXJOIXXTGgVR40cpa6j0DJoZKCzyZHzD48M4v9JBm7MaGTgKlq3dp3ungKph/6cA6My+T5X2tIly1Q5KpY+vEH9hvjj7/8oadw/VSro7emt6mc2QCXpVvavUL1adeVmqDCuMNtTp5W1+KcEiPwMV5jdabvcgI2rnAr/6591lqFhg0Y4cuiImkiabb7HVcjYQm0mGUikpM403+XKllNkIMm3iiVR+wwiJLntSVtFYGZRf/vL39CubTt1PSReFgJ3LHds34Hateqotv/+t79jgrg6koDZDC1lm1ZtxIX9Ff+UcXMPZLOQ7ca1Gypu4NgPS1/37d0v7jg71028F8ugBX5PIJ8YkiE3gBSWr1+3XsUMjKzdb7mr1fmH3/9BvU9SDB44WAa+Wd2Gzg2q2rVqK2X9+5//Rts2bZWrYHs33W5i+LDhKtdnWe4icgLodznh/r7+ys3Q4vz5//6C1kIMRwdHfe+AG9edMWzIMLXhxPK1xGwvF7O72nK1pIyd0L5dB2WWGc8oUeOWhuX/yIgotetoZmqG3/7mt2K9Kqg+c2eVwkCRVqZGtRrqfVqQoRJIcweWwrjglM0plcGwbZKVY3HVXymlZWzZoqVkYV9J3/+sFhP1MHrUGFht267Gef3adRVApkocpZGB8cKTZNDFDLqUkkQwnNu3TQYeGAAmp8Lby1uZfB7j7yWoFM1PUsshg4eoCVFk0AeQNLU52Q/E919R5vs3v/6Nep/+vdOPnSVgmqkuJzMAGzdmnCIIlcWgzNfbV7Xt6uKq4gxajF//6tey8trD8ayjIiEzFa5w+mYS8f/++H8qQLS3s9d1WoSWge6J77FtkypV1b5BvTr1lOv4/rsiKhDlaqXp55g1q0KLRn9NS8ay5cqWV0EuswoKMwsGfyTDf/32v9T42X++TyJwl5NEa9milbIsbI/u1FkIykUSLNaNQSb7xPfoCkkqbnDRurZq2UoFsFevXsdd0XW2MEDUiSzBk26CZJD5k/nUEYE/S1SIZGCaxSh50s+T0f2n7mql28iq4OViRvAcJIMozZySDLwu8UB6zxXAnTy+R6UyPpgqPppZAevkpWYSjOdUFNMrKprifMNZrba///XvigxcyY5nz+WSgaTMJcOfSIZmyk1o/VZWSUyzFkBWFcW3a9NO7ZL+z3//jyj/v1Cvbj214mmaVZSvL0syLNG7CbooHplhcAeSwjSSk03XxXq++eobiWdGKTfCxcM+si80/7/+4tfKFYwYPkJZK/ad9fB9ZjMMYqkXEup/f/e/ihBf/+dr1K9bHwvEcgYKcVJl9rOEBbQMjBsKIsOzfqPqjchAS6kJbxJlrrzGcg0qVqgoSv+zUszsmbNzrwoOklXNQIkTVrZMOQnudigCcQXcuH5DkYXK18jAFIrKp1lmzq7DA+WH+a0l7YYTpqIkAyeTZGrfrr3yyVQ06yYZBktMoSPDn5UbsT8tlkHf/5tuOstAMrHtWjVqKSKzPyVLlFSv/VV8PS9EHT92XOX7mqiYQWKb8mIRaNXKlimrLENcDH+9jl+0yTAgw29lIvPIwPZpGXQxTStV/p//+KfKgBgTpIiV9XT3VAuA+jl25JhM+gJlYZm1FP2hmBDij2pXt61Yw/PnnZCQmKwsA13FeyMD7w2kUn+e+LNiNxX4rVgBKpUrj4Oh2WfHOeFUDm8/414BTS5N+by5FiraZ1nuBg4VP877FLVNIu6y0W+TXJecLqvgi8Igim6CZNBZhvZwOCNkEEU/FK3oyCAxg6wixgXNmjZTFkeF3SLct2BErmUTDFR5fYHpJdNb3TWLXynl01VxnBqR2AfGF0aSMnLla4Gx5ia4H8KYoJpZNfz2179Vvp8ki5JYg7uJjGtOyvuMC0gWEnK4ZD+0giQU02qm4HRltKLMnphOM0hl3ETXSCtRo3pN7N17APfi76sfKlMBpOC9kIGKZaBG5n757y8VY6l0bqxwonl/YeVKlfG7//6dMnMDBwxUr3OyKLqNFVu1D0DfzUmln6R55KYQdxO5muguVq1chVkzZykFZYl1oNvgamFwSMvAmOGM3Rm1v8EdPZKla+euQsR/4w//+weZ7AYqO9F2+0hWbkcz0icZGKDx0ra6PG29S1kpThTfMzUxVYElMxyKzjIsVeksV3bRIkWxYtkK5T4oTEG5acVyfP/Lf32pYiPGULRy7CMXBeMY1s+xUzfcuCIZmKZyX4IZC0lN18Isg+5jtVhhpqkqQ5KY49z5i8jgs6REOLKnA8h3RQaRZImcL0qHaE65QTRo4CAVaTPY69yps6ysoqhiXAWjR45WuTIjbU3ohxlh75cUqZNE8NyAYeTNzRruHk6aOEltJPHIXbw9u/cgIjxC3VCyXJTPjSXGA8xGqHhu6NDv0j1x25ubVcw2GIDR9DNddLp4CVcuX8G6NetUusf3abXKlCqj2mGQeUHG87OclypRSq1AmvFGDRupvQNmCSuXr1SWiOafZRnxM17iZWymoqfFBXDnkxtifJ/Wp64Eptxj8fH2US6OhK9oVFGRhf1vJKktCcXdVd6oy7HRCkyfNl2Nm26Heurfr7/SD+MZfgs8Wu+aKCQDb+Tmg+3fCxlo9rh6jx89rqJv3o7OFcxNH+6sMYij8i7JJDClVOmZgeRk5agJppI5mdxGphJIJMYE3PLlxHGSuCnDAJLWgZPNawvm/czVqqPPZdrKDIU+lwqk+xo4YJAo0FxtSC1ZtEQpm9guKRoVzZimZ4+eqg5u/DAj4QYTP8OshvWzT2MkraMr2Ld3H1avWq1Iyn0OklbbpeR79PW8r5LWkq6Bu4jm/QcoK2S11UrtfDI9ZiDNDTYG0ATf55jYLre8SRbGXjyShLRM3HQbN3Y8fp7ws9p34OYYr01QqFW6ivdDBh5p7eXIgI3fReAOH33hTjGz9HncAqYf5747L9oUKFKeppO+kXEBFWG9w1qZSk4orQnvIuJGEj9H0JrwYhbdB8GshBs1bhIHhErwGRMVo8rwdZKQ5vfqlWsqAwmSiQ70193qxkmhL2YbJBv/JuFo5rmtzDpILtbNS9Tc/eNegNMFJ9VPpo8kAMdJP8/yTH25+nXZ0KUn+kjXxXiD1z7c5JyvsX6+z3skWD91FRYapkhDC8IbaY4fO6HqPyCWh66OddMlMT3XqzA3ZnjvZKBwxdMXcjuXvpVBDxWqvq5ekEg5llGWQqtTRF0xFGKwLK0AJ/+Jz/BURq4u6woJtUvWLMe/tToZG+Re9tX6KeBnGbOosnLOzzIGMSz/hEhZtqFdgmbwx6yGsQXJxYCTF8dITlo47jAy89HVp+ubrq+GyLuMrfWLf3Nytc9yjOwL26NFpU65IBhM87OqnF54ym6TEIwZUt9VzCBje6IjSvh3/tdeJPnKPDUJL5KC2tRee8WqnhKtPI8yXrXhJP0jsUhuPpuBq5MpNd1gpx874fDBw2pfhRaS5HqqD1q/8r+eT15FD+wX54Mk4LSoAFLO31kAWSAZKC8/hoLlTctr8jbq0eqQI1c29y6YDtNacYV6eXqrq4wTxk9EuTLl1H4DLynTpGsuUVlE1iNQlowWQqB2MZ+lQ8qzXi9AdGSQuvVVviMyJL+YDJ+qyHhJBrouxiqcbN48w7hg987dKqvo2b2nsgxMm3nd4p5YDqaImk8vUN5Uh1JefSWEkD/fERnS9GRIFzLwCzK6jnyywrFp45Ox0j+npaarCWZwyr0CHnm3EQNA3lfBbIlug0QJCgxWQWhocKhu253+vTDEoJ88vEMypAgZMoQMNEv61j9V0SuZvpsBHvdRGAxzxTNo5ETTKtAKcGOMVxC5z+Lj5aOIwlv1PD281GcjwyNV8Jd7k20hyVNkEA/1lsnAK136X0gNT1Vk4A/AF/gjK3oFPhMfm0ifeccRA0G6BE4uvz1FQjB45FVF7kVwR1DteDLLSMtQ8QRTV5IiUjILbkBxBzEmOloyDEmtC0EXmoqfIkM85y4Z/m9OBt21b+13k0mGSCEDH7n7WmQgDOVZr79vMehPSpKMOSJagsIL2LrFCjusdiIqIkZSO7GQCUniNuKV1VCzIMLgkFcrU1NShCCZ4kZCsW0r77qyEhdyRYgSIxYi45WyhReJoRpJBDokJvJ8jlm0kCEwMhl+Qgbd4n5NMmg3QvDumGAhQ7C4icjot0SGZ7ye/+XCRkGivnLP8QkS45PUI//WrtmALp27oUmjFrCYuxhHD9vA3zcIqcnpQgBVLFd4DwfjhmNHj2LmjOlo3KgR+vbpjZ3WO8Ra+IhViZMYouCvFBbUx1eBIRlS3iYZCJoWnZtIE8tgkE1Iy099mdawV/nxEQk3fLRnMCTcS8ItNw+sWr4GrVu0h0nlavh5/DTs33NEXEG4pJpZ4kp0n8/JfiQuJQf3E5JV2mm9YweGDhkCo/Ll0LpVK6xft1bii5sICw2RMm83ftDUXIhkYGHeKpW3zxAek4qElIdqy1NvGQsQrWvPQmFIQe28DJ4WPs7nMTVKy3A3Ce5uXti78yB+HjcNQweOwpEDp+B89TbCQ+IQG809B95f8VDSyHiEBEcIScLg7emLc47nxbVsQfdu3TBi+DDs3bNLYg5PRISH6slQcPuvK6yNc1IobkIjg7bPwO/rhcWmIl7IwADl2WT4uIUP+OLvUeRIapZwL0UmNghO52/A5vhZnD1zFUkJOQgLuQdP92C4OHtLcBiMxMR0nDt3GYcOnYDdaUe4utyGj48/goPDcODAIXn9MJydnREdE42EhAT1XdS3LRoZWDOdUKr8Ex0vlj0y5e2SQfdoepIhDfGpj1Vj+cnAzmgdeh60z31IYth38RLIlgEyE0xLe4y7kp75+ETKZPrB3T0c8fGP4OcXBxeXAFy6fBtuN/0QE3sfs2YvRKfOPTB5yiwcO3EaV6+54dZtHzg4XsS1G64ICYtEogSkaemSeUgbuZtFbwi186iHurFFxpAlx2Qhc6T0PSDiLZPBX8jgLylKiJDhTtIj9cBJ3kuhbr7UI0vMUiZffwnws28drPdVYVCe/ZJ5Qko6kCSE568SJksmyB+wDZWx3/aIhOvNMPj43ZPzKHh6R8PLN1reS0Ry+iNMmTEPRpWqola9hpg+ywKnz1yE6y0fOF64ihuuHgiLvCP1ZiMt85H6mUHDtt8GWKeELGpu6CIShMgRdzh/JAO/SvcWyMDHyfqGibkMuQ8//p5ybAZiEh7iTuIj3NPAv+NznoNsxOUDX3s7yBJkviZY1qBf4gLipL+xgrj4B7iT8EjOHyIsKgO+gQm45RmDG25huOYSAk+xDp5+MfDyj5BsKxY/T5+Jb4sWw9++/BINm7fE/KUr4XDhGk6fvYTL193hFxSN6LupiLmXrjaD+NW3uIS3BNYliJVzPhGXjwmO4vcsJeCnVecv1L0lMoiZFDPjGSxplsBXzoMiMxAalYVwPcIiMxEin3sa6YI0Bf7sbnBkYSBVkPKaYNm8ukJk0sNiMvWQccVky2tMrUVZsro8/RNwzS0cTtcD5RgCh4s3cfjkWdg4OGLc1Cn4ssi3+OI3X+DvX/0HjVq2wRLL9Th04gwuXfeEh1+UBOEJEnslqmc5B4i1oT9/UwQ9AakzKglBUckIipagP4ruIU0taP83J0OmqsRPPuwdmqpAk8N0M1hIEKJHsJAhKFxSUELeywO/xZMHXWaigy4WeRsQ1sukvhZYVkFXV6CQIUgQKGTX+qmeacDffQxNg09QEm773MVl52BZ8W7YYn0MS1ZtxLqt2zF28mT85/vv1P2MX/z6N/jj3/6FBs3aYuVaKzgKaW55R8An+B68g+NFj4nwDeeznPljIK8K7bnPecgdh7yvnhEtrsFf6tfFeiSCLOrw/GTQza8hnkOGPPgL/GSifYUIfqIYMkntP5AEAp4H8HUBz5+GNnG6siSYIfykjtdHhiD97YIKpGnVj0cjRIAQwj8kFW7uUbB3vIk9B+2xa/8J2Ng7YsrM2fgnvyj0q1/jd3/4M7747e/xp79+hSYtOmHx8i2wP++G67dCcdNX3Iu4XB+ZKF9p69Uh82AA3fh1FlxnAaSP4UIa5Rp0+tZNdsFza4iXIgORN3mGpkUgHVETLMoinnivAOgmX8hlAF89fF4LmQJxZW8BhgrmOBWRZUy0fCFR2eIuZPzBEj/5x0sc4I9TZ67jpP0lnLt0A5Omz8Lf//2VzjJ8obuj+osvfieE+BbNWnXDwuVbcfKsK65LIOolMRjbKagPzwfHSuSNn3rT9KjNz5Nz9HJEIF6aDDqwYsOGdFAdeAMyEBohXh2ZgidXy5tAEUHAvpIMjBUCwnTugvAPkVhDxunldxdXnQOFCLfgeMlFyDAXX35TDP/8sohkFM3RtkMPdO89FK3a9cSQkVOxaftRXLzhDzefWPjIyi2o7ReDYyWe1IGhHrVFq5n+guexYHwwZHh9aK7i7UAjAkEyMFbwEwL4S7xEKxEo5IiMfaACZA+fOFx18ce5K7cwZfZilCxXFfUatcX8xeuw75Adjts6wWrXcXEltspN3PSJFjLEwCMoUQjBHwApuA/PBsf6Yv3RrRMFz+Gz8Qpk0Jj25OQSr0oGrbMa/IgCBvVyKGQyME5i4KwnA61DZJykm9FZ8JZ009UjHNdu+mPhio3qx9lHjJuFo0KCyy5+uOoWgBu3g3HVVbKPm8Fw847BtdsRcPWWuEEyMxWb6NvMj4L69kwy5NMnUfAcPh8vSYaCSaDhVcjAuvJ3nHhqgC+NwiMDkTsu/dhIkBAhAoNib1nh7n6xgmgcPHEOy9ZaY+tuG5xydMEJhxuwuygu5KoXzl/zgZNzEK7fjsTVW5FChjvwlMyEwbjS3TPwdP8KIEMBuix4Dl+MlyDDsy2CBtV5TWn53nsarOvJNhQZCMNBvjTeMhkK7HM+8LPi9z0C4nHbL06sRiJu+8bA/uJt2J4XAsjkX3QJhLNXJNwD7sI7RFLJUO4ESqYiWRmPL9LVy5LhTQlgiM9kyIcng6+CwfFy880r6D48xFX4hCTB3f8unFyCJEgUlyCuwE1SSC9JIX3DkuETKghJFkIw7aOuntaL0iHbN8DT/ftMhhegMMjwZP/yQ+25yMR6ByeLuRdCBCQIASJxySVUXEGUWIt4eMl7Ku8XnfhIAMrdWx9aB72e8n41Tq+/AvryNAqTDFn4f2WqD0JKgaR+AAAAAElFTkSuQmCC;base64,iVBORw0KGgoAAAANSUhEUgAAAHsAAABZCAYAAAAeo1tCAAAAAXNSR0IArs4c6QAAAARnQU1BAACxjwv8YQUAAAAJcEhZcwAADsMAAA7DAcdvqGQAADMgSURBVHhe7Zx3nBTVvu3Pn+/dz73XY1bMOR3FnNGjIiAKgpJUUAQz5qyggCCKGZScJEnOYYYcBibnnENP6jjdPT15wPXW2t099AxDlHfv8Qifz7K6q3bt2rW/+5eqa/xbrqUBh1c9ckrqkC3pc1uVcv9JHbWyLFLtcSn7INWZ+W+teuQakV1Q5CQdFnZeoGF2MS9WXEPgtQTMDo30Wao5qX8R5ZJHbmktudUfpFwyO4Jl+xvlCHKxD9lF1cgq8obIw33uv4SyQtTe8UOq2MO5O7xyS7wHqb12QanPoHJKqo1yLZKPCkAnt6OHXUIXTYvOLqpBHmHnc8UUsKM8dpzHweQHVFDi+Usov42C+wvbKPScghK3XxYeC1WpF0XtqawaxUeQ2hSWV6OA23zKbEsPKK+UjOjOQ0EfFnaeVMLPxXVULUqt+2B3Ay4v4AzI5f0dVZ6/jlwS7zn0vt2Up420T/K32U/tg9sr7TfSdyPua6tgm1bt2ortnJSdsvG7ZHUfUJmj+SDYJoYLdg7BtlWupZGwJTamVVe6AF890NAM1FPaNlJNIWr+kyh0zMci3a/uO/Tem5uAfQHpc4t0bN8hpGNt1MRzjILfKV2jke0135I+N7KNpDHUUbX8XEP5Gv2qpuzVMF64BTLzLiVtSqYN7GyJO6UDsJuMdQu21fU7aho4CF4wqH37gf3U7/z8O7f4/V9QGleINE4z3uOQ7rc5IH0O7kdA+zn5+7UN7m9vPIeS+qPM58A/fVU3TdxHhua7/v3O7y3HqEZ+r+eOem5ruXX6fqdn9lFKoplcB7hKftghO1rDlmXXEPZ+1PKKzexwny5G6aItg/1X/Rc6xj8q/tMkBz62PqYDlFlMAZl/oW0OIc2lwAVPCf5r5A4faXplvYE2of90us4JQpfofOFi43wDW9Yspo0tbP+WTaBZPBCUvueYeN1oYnYOM/BK1z5a9u9o4sj2kfL+gH7/M4ljP6LaO+9oxHPbnZP2+g3Zt4/bBqqa8vB7Q6CN5rieKvfWo8DuhcXbgJrAOftpbfso8znQtpFqouooR/U+GiizcnLMJsesoMj2KGB7adnNtOzfadl/UtiaqKNRe+ceSTxvPyVwwblpOSYoATBtpbaaz2oez7Q5kWZzobKmEQ38LtA+KqPCiR2pOYjMsfCYv30zj++jizXQeU3tC8Ku5Xe7t5ncfKyk9HykAZlHCztP2Thh2wi7jrBDQf8pYPPmD5Imvz2111Y6in418YLQrM+h7Rjcg30H4QqKJECyZHvDPmxOycTiPbHYnVUMCy3Tzf1SmrUaa2PSsDIyBcklTtTqPPala4XCVj/GsrnP7mkiO9beZJdF4JlB4EcDO6/QC7uzGfWEHQq65aZ4wZab+1eTxtZWmvy2aq+dFOinFcB22smyBUBhzt+WkHUeU2sdF5A6bgUrKLlcbcvqGrEqLgXjFq/B5PU7sS27EkUMmQ4eK6j7HeHpJZi/KwHhiblwkkE9+9HCUb/BBSTY2tZzDH8cNi37sLD/TAqFLLXXJqjgPbZVO+1kZS1zEtA+Wrb2Caqd81dJ2XhNgVSM9lKVdMmxFS78sn4HRs1ZiQkrd2Frth0Wtqvg8QR7I1Ym5mH53lTkORvg5X5ZsfpX34IsL3FUsLO4M7PkgPQ9m41yigi8qBY5BR7YnE2oa9jPG2qt/ZJu6M+u4L2cMO0zauTnOqrY04iIPCs2JBVie74DifSURUy3HTxmp8qpmDIP5myJx9i5YZiwYhe/16OM+ws5vu2FLszfHoctSXmoYH2lPpuppoB0HW3rWBfa3I0mz8omu8yiOmQU1SND0MnWDzsEeGvYNcgp9MBK2LVtYLfcWNuJ+zMq9H4Oq2aqKUSCGnrcD9nfzg+gmkqwVGHmljgMn7MWI+aH46ewOKxOsSDBUY8SXt/KNiVN+7G3yEfgaRg3bxPhpiDRsQ8FPB5jb8ayqAws3hGHDKsXbkINhXxMsA9Iv27VEjazcAO8BtmFblQ6G1vBbn2D7Sh0Iv831d7Y/pAEuDEgffZDbQ052MY/Vz4qrsiOKRv24N3JS/HKhEUYNmUVRi7ejhm7MrC1yIOsuv3GivPr92NHjhdT18Vg/MJN2JBahoya/UijtmRVYOH2WETmlsHK9gIcqoNgF5IlYWcSdqZgk+nfsrgC/KoJyBfYal81MgtcqOAKrKnfxyRkH+PQX1mNVEOImqjmgPQ5cLy53uzTfNVQGTYfVsbl4qcN0fh88U68MXMjXp6yFm/M3ozxGxMRnk/gnF8L22Z59mFjcjnGzQ/D7G1JiCwjsLp9jOu1WMa4HZaQjQJXrem3nmoIqJGqbdoHa1UDQbO/ghpkEnhGIa1bIs+TsI9JAhoqQQ49RtjNgl1nPmu+BELlVVZVE6LLa7E2w4rpe3IweuVeDJu+Dq9MWo4Jm5OwvaQGeY37UMb2ybZ9mLU5AT+u2oW1dPepXADpZhEUYnlEMpKKbHBwAdQG+peaqPZgZ56E/UdEwCyp/DqwX3PTbIAHYNO6m5oaDYQ6yku5qApKlhpeUIUfNiVg2ORlePXnxfh5SzIiLHWwEFgRoW/OsuGrReGYFs76mxxyavdhL89ZsjMRu9OKUOyqRzWvb6ybW3Mdnms7CfuP6aD7FuRQcZ8mu5Gwm1tc/QHLNy6WEvAqSsAzfPuwpagK03an4u3pK/EJE7f5e7ORbG1GMftMrtqHmdsSMXFNBFbFFyHDy3Pc+7AhPhfbkwuQWe5FFT1GELbGWC/YrsPBLiRYI0I2qg5stc+LzHwnyu118NU1o4mrufkvJt1zW7UcbwqInxuam1Df3MhtA9s0cB/BB9rpnHq281FefnZRFVQe5zSqwodp2xLw8axV+HrpVqxLKUVOfTMKeHwT6+1pG2OZoScjkkZY1NiMbell2Bibg/h8G5xsVxfoW9eo43Grsx7ZBW5k5ftoqARewLgtkedJ2IdREK7UGKLgPtOuBbYmvtEAb2xqDdvfrsmcW0/VUB7KQVmoiBIXflyzEyPnrsXk8HjsrWiidTcj2dWMRYzvMzbEISylDKXctzffhbWRWYjIKEWl7yTsE6Ig0KBCYQeBt22v/Q2C2sjkTPv5OVRq418UfuCycgEvqG1GeEYJfly5A2N+24QFkbnMzpuRS23KsGPe1lSsjMpHIb8nVTRgQ2wetiQVoMBei1qe3y7sgnZgZxKsX4zPRgRsttrnQUa+A2W2WlTX8iY04L+IdK+hEsRQtTcXjY081kDLpto7Fuynnqqjaikv5aCyXXpGnodxy7ZhzKJN2FlSjXyeE0crX7onF7M2xiGmpA4FNU3YllaGddHZSCq0okZ9BfqubWhCpZOlGhO5jIJqykfVIF0iz5OwDyPdb6hagxbQoNqcy8kP/S7Q9VoE/BzahyTwAlZZ38S47MTksFh8MmMF5u5MQaq7CVnVTdicbifseKyJLTKw9+Q5EZZYZEowr/oO9FXDPiocTMragZ1xEvbRKwgnOAdOhx3p6WmIjoqEtbKS1szELHCsrUJhh/ZhjlGycll4HuGuSy7B98u34tsl4Ygo9iCX8x5tacBvO9Ixj4lauquJFl6NzSkliMoqgcPHPCHQT21dY7uw5cJPwj5GBUE1NjYgJzsLvy1cgG/Gf43kpCTU+mraPUcy7p1qOT94jPvMcUrAbXTDSeZJWQbG/rqKJVc+y60mpDqbsCqmCFPW7EVksQ9xZXXYmlGGbYk5KHV4W8GuPAi2yi+VYSdhH5fq6+sRFxuLsWPG4PnBg7Fj+3Z4Pd6D2wpmAOiRJNcu6y6jm44usOGHJRsxfWMkoixMlD1y5Vb8vHIXNiRbDOwdOVaERachv9R6IGYb2G1jdghs/07JGxABm632uZGeZ0eZtQZevTLDLFOZ5l9edMkx0TH4bMRn6Ne3H7Zu2Qqv29tuu8b6wLbtsTbS3NZRPqrE04hlEUn4bkkY1ieWINXeaH4Rmxkeh0W7M7CnyI3dNMLNcRlIzSuGx1dnwkQQdgbLs/R8L2N1wI2bbfVJ2MclTmxsTCxGfj4STw14Cju27TCW3V67I4EOzqm2BhgXR0V1I7alFxvYy/ZmI8XWiFRHIxbsTMecLQnYmedAbJkPsXnlKKpwMjHz91HPrfUk7BOrBk5qXGwcvhj1BZ55+hla9jZ43J7W7YKgjwA7VCrbBNxBC00u82LSmp2YFR6LnbnkUNWIlbGFmE3YO3LtSCP8XFsNKt21xiOY81vBFr82sM0KMPIExI7NVvuqkJZrQ2mlj66igQNp4IBOqq62zrjxIOzN4ZtR5apq3a4+RKH7j0JunpPvbsCCHcmYtDICq6ILkepqwPa8KszZlojNaeVItzegnEycVG3gvLraBlRyAWSwNPPzq6Z8ga33JOzjUa2vliVXtIE98JmBCA/b1D7s0O/HIC9VXteATamlmLI6AvO2pSLe2oBEZwPm7UphvZ2HZGbtdrbz8DpB2LU19QHYATd+EvYfV22NH/bokaONZR8E+zgtOqhqykEllNdgLt32jI1x2JLjRGo1622WZSujspBg8cDJNjWBc6S6Gr9lZwbc+HHDdhN23R+4gT+12sCTG4+OjDYJ2tNPPY1Nh3Ljod+PVjzPx62sNtPRgKUR6Zi8JhJLovKQRpjLE/KxIiqT5ZkdVrbVwgh144rZh4SdlueBX+6ACNhstc+FVNZzFqsPVdX1TO3rTY1Zy5utLK9EdlY2crNzUVnBWo/7dKw+0MZX7UN5WTnycvKQl5sHq9XKfTWor/Ufr/ZUo9pbjRpfjbEUSW2Ki4pRwb6rvb6WtpL6d9gdyM/NR2ZGJiwlpXC73K3aqI8aXiPYnwAUFRTBZrWZ7xqby+lCTEwM1q9djy2btyArI8tk0qYP9aXxc6vxB/sN7tMYNF4fxxYVGeXPxvs/hbCNYXA6nCZJ09Zd5T4wHyHny816vTVwcdzOKg88HGsdj0st7ahafnZTJZzzzcklmBkWh7k7UpHkqcf6jDIsi0rHzgwLStzsj+18PEd9qH+rvZZJtZPsvAFVB7aeI8OWZQdhq8OamjqUlZZj1YpVGP/1eIz7chwWLliIjPQMuhH/DeqmU1NSMW/uPHw59kv88P0PZkJKikpaJi09LR1bN2/F9m3bkZqcahbO0iVLMeGniezvN6Qkp5jaVTevbU5WDtatXYfvv/seoz4fhRnTZyBqbxTsNrtp43JWIT423gCUi83PK8DOHcxmZ84y7bRQrJVWbN60GZ9+MpyxdhBefullTPplkunbjIvjVxuNJSUpxfSp/bonLZz8vHwkxCWgpLgEe3bvwWglaE/5EzTdT9iGMCxetBjbmJ2rHwOP50rVnhou5FKEhW3G4iXLsIHnpPK6bsZ/wT0Au87Ms4eyUTEFDiZqaZixKR7RtnpsL3JhZUwWF0E+8u0+A7smALtGMfuPwFbpZbFWo8rLlcNOKytt2LB+I14c+iJuvflW3HD9Dej7ZF/M/XWuWdWaMIGf9Mtk9Hi0B665+hrcfefdePutt7GR56lNDW9Qi+WtN9/CG6+/gSmTpuDXOb8aK7nzjjvR54k+mD5tOkotpcaSsjkp6v+FoS/gjtvvMH12fqgzxo4Za6xUXqKwoBA//vAjXnv1NXwx+gusWLYCnw3/DE/2ftL0LQ8TRdf75htv4aYbb8aFF1yEyy+7Aj179MRvC38zXkWeJjkp2SzeyRyTzglauKXYgjWr1uC7b7/D3j17zSId88UYU2evXL7SLKqhQ4aix2M98M7b72D3rt3GiwQhllrKsXr1Ojw3eCi6cV6GvvwqZs5bgFwaQNAyg7C19RCcrDu9wofle3MwbWMMdha7EWWtxZqEXGxMzEWW1WNga7HofB/PqWDM/gOWbUVJpdfAdnt8nNw4vPLKq2bCT/37qUYdb+iIjz74yLjMUkuZmVzd9FlnnIX//I//xOmnnY4bO96I999931ifAM6aORsPPfiQWTDPDnzWWMgVl1+B0/5+Gi6/9HI8P/h5Y6Eeurv169ZjyOAhZv/fTzkVZ5x+Bvs8A/d1uh8TfpxAT1OGtNQ0vPLyK2YxPPboY+ZaXTp3wfX/uMF4AwGaPnW6Get5Hc7DBedfgA7nnmeu+czTA431y91v27oNH37wobF8lVceeRdOpELHt998i96P98bSpcsQvjHcLKrHCG70qNF4vMfjuPLyK3HWmWfj5ptuNvsy0zPNvaqPPbsjMWzYm7js8qtw+lnn4NKrrsGA557HGiZ3bp/fmv0Lww9bhlXD74WOemyMK8aMDdHYmFGOBFc91iYVYHVMJlIsduMBgrCr2U85vfBxwU7NdSIps8LAdjFelDM2r+Lq7tz5Yd7UWTjllFPMxN9MSxkxfARKGUflOl8f9jquuuIqnHbqaQaewHQ4twO6dX0Ec2bPMRY0exZhP/AQrr7yanS6t5OBoDZaGGefdTbuJ8jZs+YwNluwgBbQo0cPcy1dU7A6nNMB111zHYa9NsxYtyzy9ddfx+233m6Aq728jib++2+/x/x58zGYk3vuOefi7rvuNhb5eM/HzfFbb7nVjEceZMP6DbT+N9G/b3+ThMlrCIK81ZgvxuLBBx7E/Lnzjcv+csyXXLCd0atnL9wiL3fDDbj0kktxEb3G49yn0CXrllXPmjEHd93VCXfdcx8e6todt3F7f5du+JJjczIHaAtbHlIQS6vqsTWpFNPX7cXCiFTEEf66lCIsj85ATH45qtjWx1AjV+6trj087NRcN6FKVQExKTNbN1JyHEhkQlBSWQ27qxYpqZn4/vsfjVWfecaZZtIvuvAiM3njvvyKiVUFfmO87fV4L3PsbK5yWdA5Z5+LM08/k0BvxEcffmRinqA/zEVzwXkXcIIuI4QO/sVBqa0gyE0rYVu1chUG9Btg2up6V15xJc6jVapveRC54fS0DFrkRyZkXMtFcPNNt5jj8ijKG77jpMrib7/tdnzz9Tcmzi5j7NTCVJtPP/kUkXsisXbNWrz79rumpBJsJW91BJCemm5i9D/v+6fxXApJn434nOfeZBaXPNF49juci75b1264gR7l5wk/ozC/ELEx8fj04+G45577Me7r77Bg0TIMHzkGj/Xpj8F05wmpGXALuOJ1ba1fSjL5vdJbh4hMK2bRjU8Ni6Ybr8P6VAtWMG5H55bBxfzHp8SRbT1M/kppmKm5DqTkeoxSc/VdW/fhYacSdnJWBUq5WmzOGkTsicb773/ICb/YAO/bp6+5SU2YJqAgvwDfjP8G995zr5loxcbevXrjnrvvMedcdullLZM4c/pMdO3SlQvhHGNtai+IAir3f9211+H99943iZZ+aBCMPk/2wUsvvmRi42233Gbayiv8PPFnk1UP/3Q4J/5OxuMLcfFFF5t+NIaPP/oYH3/4MR7p1t3kGnsi9hiXXciwI4t/pNsjGEhXvmb1GqxYvsJcV99jomLahT2HHmfjho3GmylM3H/f/Zg5YyaSEpOMZ9M4rv/H9fjk408Qx7C3lonlqy8PozcZhB27ImEpt2Ft2Fa89s4H6D2ACd72XXC4PK1hS/zuoIUnFHrw2/ZkTF4fhT0VhJ1WjmXR2diTaTGwBVoLw+vV/+zIDzv5mGHTjav0KmPQF+zNW7bjhRdeNuDkzqZNmWbc2YZ1GxgTIxHPTFUuUJYlN65YrElQDLzrzrvMeQKsCZ3MBK7Lw11wDuOXwGjC1F7wBEvgBVZZfUJCgknolDjt2L6DUNaaRXbNNdfSUu/AV+O+MjFVk6yQckYgbKgPJYmCp3iuxakxK9lSiaYsP5YwlDxqXEoKVUG8+857JlmMjY4l7OqDYCu8+C37M9x2622m1hZUhScllQvmLzBe61XmNso3lJ+89OIrGDVqLAqKykx/Sek5GPvtj+jV72ksX7OO9bHLD5sWHYQtgFW6dnkNVkdmYvK6PdhV4sHGtFJTa+9KLTCwzXmU3HgZk+lDwk7JqaK7llwBOQNb7XMcgO2qQRhd36BBg00m25MJiX4AqGLNqElTCaSypl+/fgbWLXSjylyVJcsK9FhRCdadd9yFqVOmMmn6wcTsc+nib7n5FmMlctfKZG+ku9cC6E/XrcRKSZ+V+YLd5jCPKlUCff3V1+jUqZOJt4IsGLJguU8ljVdccYVx/Sr7lDUPHfKCydRlrU5OrKnFOaFys3K3WrwqIyfysyoE/XTph+017dJS0gxs5RJz5swxEHVdLU55naLCItOuiuWarFuVw7ODnmWsnkVv9y2GvfoGFixYDJvdbdpl5Bbhp6kz8eRTAzFjzjy6X5vZX1tTY7Y1egahZwX8nFNZgw102xNXbEE4w+qm9FKsi88h7Dw4A/dRQxk3TstOybEjOcdtlJJD6GZbdWTYqrMF2+GuRXj4FjzDLFXxVZa4fOlyU0/qYgIu61O8vliW/88HTd2sUksT9QGt61q6fsH4ljc//qvxtJL7ceH5F5pESfWxJmz61Gk89wETk5X4RO2NNBPon4haVJRVYAfLng/e/wB3sUyTJWuBJMYnGg9yLa1d7vvhhx42+YMe+qgseu2V10yGbB6wqK+A9HBo1YqVJpvWs25l3Er6BvQfYKoB3Zfa6R50XLDnzpmLdbTGEZ+OwCNMOmdMm2GePchb6IFLBvOHTz76hIu1v1mUnw0fyTLzHc7fVlQHF1mZFTPm/YZ+A5/Dj5OmopAVhRlTjc8PnO0EsIrbQlsttrGu/nFJGFbEZmFXnhXRRTTEUgccXPxetvFyq2qpzFZNbscJOyW7EqU2H5yeWmzZuhNDnn/BgLiKLvItumyVIHZOYA1vcslvi9GN7vBKWlW/Pv2wbfNW/40x7n7OmvcfdO9XsLbV53FMmv7Jibv04kvpMgcgibCctNzlLGsef6wnzhdsAti7ew9cdieshLJr+058TZc9kGXaPUzELr3oElx/7T/w+qvDEEuLfZ/u9x+M9br+q3Tb8bFxxiPMpnW9+fqb+InJZXUAXlBVtPLIiL30Av1ZPn6IsaPH4I3XXscgxuw4WXaVv316SjrGjBqDB+57APN+nY/1azdg5IiR6N2TpdiipZwDe0ufxQXFHOfXZg4+eO9DztPb1DvYFL4dFZUOVNo5t1n5mDl/EZ7ifH7BxZ9FD+jjuTWE7fNVm34E202VOWuxN6MYPy8Lx4KdSdhb6EB2VS0sZCLYHoku/A/DTs4ibCZoTlr2LtaKeihx0fkX4Rxm2rex3PjovQ8QsYMJBoErcXno/gdwNeP1c4y/sUzENGhLYTHGsWy5me5ZgN5ntjuWVvIg215B1/7MgKeRnpxqJn49Labfk315jQvRi9D37oqApagE2zZtwSdMsjrdfS8upee4gIuhA+P9Ddddj2HMaKOYM7z71ju4ngvqJl5n9OejzHUdDC8zGKffefMts63V41SOyUgWwTo+nVb7/KDnzGIZ/dlIvDnsDbOgYiOZoDFxUtv05AyO+UuO+SHMmzMfG9duxBefj0Hf3n2xctkqLlRnS7/lJeWY8P0E9HuiH8f2Op5/dijv6SmM/GwMpk+fg6kzf8W3EyZhGBdCl15PYPiYcQyXuajmuTW1NayX/bAF30vZOPfxeWWYvmYb5m6NRWyJCxbtp1y6h4Blezw1R4CdTbBGhGwka9ZW++xcgZX+0quqBvEJyabWvPYqukomQWdS99/TCd9wFScyOZvCpOv+e+/D1ZdfiaGsaZO4r4YuqZQJ0XcsS+5gDXwx4/3rdKmybi2MK2npmtiM1DRjwWFM9p5hcnQJgfZkcrVr2w5jtbrGvXfdg7Ppov/+X6eYbQfG+xsZFl596RVE0gO8x0Uk76FFqOvZGQdt1OSJv5iFMJeLUa5WDzo0Lm1l6Xmsr19+4SWzCDUuWfbTHIMs3u2oMm3TktMJeyzHTNiz5yN8fTi+/GIc+j85AKuXrzGwTZ9UGWH/8tMv6NOrL16g5fZ7YgDuuv0ehp1O6Nz5ETzU5VHc+0AXdLzjbtzA6uFTepOUrGxC85/vJWwft9WUh7IxFicXsfzasAtzNkchttiJMu63U1WUl/chybJVeqVk25CUXYVkKiWboM3WdWTYqdlWlFR4adk1KCi0mOfWDzEeX8RS6cxTT8cltNQnH+/NCfgVE374yQC55sqr8dILLyIlIckMvoIJ1k9MyBRjL2K59BKTl08Z0x5kZnsNvcBgeoEsxjk3Y/MmhoVBhC8P0LP7Y9jM78sWLTGe4sIO5+Ns1uCXcMFcdsmluPC883ED3firL76MKIL5kF5Gbv12wv6RdbW8jY3u/+efJhjYC+bORw2zawM7CJ3hpyA3H28wFAj2cCZb8hRPM7mTt3A73G1gd8aCXxdiS9gWLsBvONZBBnxVoJ0ky548cTJh96HHGEJX/yTHeSNLxUtYkVyGSy69CuddfBnOuvASXHPTrRhNN57OpDMIW5Zd7fMZ2Nrn4DjTSu2Yu2kPZobvQVQB8yjuF2wtBrVRW8G2VNKSjxd2cmYFisrdqOLqUrYXF5vAzHIYriXQ82hZF3Q4D3cT4kesv+UCFUtvur6jcYVpSSlm8GUlFvzAzPzO2+8w7vkVwhn+8afGjWthCLYsu4rJ3EZatiZaQAV7xZJlPPd7PMpESNeS23+UdXGXBzvjH1dfa2C/zIUVtGy58TtYg+scY9mM2RMF+823DWxZsgEdAruIOYWOf0A3rkWoxTOQoSUpLhHVVcqKg7C/xMO0SOPG14UxNI0zsLdv2QGf29cCu8JSgWmTphnLHvTUs3iiZx/8894HOe6e6N/3GQwcOARP9nsGjzEEDBzyIub8tggFTNAEzceY3Ra2k8ood2Lu5r2YvGY7dmWVopTjd3G/gc37MF7gSLCTs5yMy5Lis0TAZqt9NgO7sKyKCZoSB/1sWWmePD3JWHP5JZfRnZ6J65hlP0VAbzCLvY1l1LVXXYMXWeoksPY05wQtmzWxsm9Z0Ui6y870EFo0gq2YrQRNMXtA3/5098zS6cblemVxd7Nkk9U+/+xgTvZcjOLCUhjoyJjdAlsxmwna7SzHvv/mOwNayePknyfhbeYas6fPNNmyftwIbr0sHTPpVV5jKND5wwlblm1iNsOHx+kx95CSkIIxI8fQq3XGrzPncpwbmMyNZbtB2MnEVYtC7STBnjxxCt13f453iGkz9LkXeS8LELEzCnsiYrBj5x5s2bEbO/dEIzkji6Wt2wBWcuarJmzKy+8eykllVVZh8c54TF27EzvTi1FS5UNV4LiX91FNud3VsFQwVpNbYpYLSVRyFqGbrfPIsBWzi8rccLBz3YiXk5SdmY0pnMCejz6Gy5lNC7os7xXGPU20YvZz+iFhb5Q5R4nS+C+/Yu19s4EtC/ySsV/WKTcuF60kqUoxe/1Gs3AEuzdLL11HydMtHW+iJ/inAafSRiXaI127GutWfrCHidwH775v4N9Oyw7CVh4wlbmEYCrMKCEzsAPSNQVV4/34g49M4vgW6+xBzww0lUAVM2fdQ3J8MhfYaOYk/8ScGb9i7cp1JkF7ZsAz2LFlJxeN17STSou1uH8yydtLQ17CkOdeYIL4HvYQtNPm5pg8sNmqYKVsdP92LiiPxqPzCdm/5VxzK5guKtfuxerodExbvwvbUwpQ7PDDVhuBVnsPF9wfhO1340HYkmpPWaIAKu4KuKzs5aEv4h5aoOA/wTiuDFoWlJ2RiRGMhf9gDXwZY/HnrE+/YZ3dlbWwWRgDB9GNp9OKqrA5bJPJzi+58CJTgn379XiTnXdkItbjkUexZuVqWFlry+If7dbduPGhg4dwInfjQ8FmO7lxA5vx2kOLkUW/RE/zBTN0xXEf47axbN6LLF95QR96qlEjPsf3jJ/K3DWGiJ27WmAnxSVhxMcjcO+dnQKw17L9KCZo/U1mHmwn5Wfnm/iuY++wvn79lTe4fZ/97eWi8IMJSqAMLJ0b3B/oRxYrmG6q0OlDWFIuZmyMwJbEPBSwHD7hsJMzywnbY9y4EgCX090yqK3hm7lqBxtgyspffellPMDa+SJapWroRfMXwkXXLMuR676Ci0CWOJ6ZtWB0IeyrDGzFbMImGMEe+PQzJhuXt/hi5Ghj4YrFgi03rxxg6uSpeIQ1/S033mSsVrDl7lWKhcL2cWEuZ9h5ja5ZrryQyZhKPAOcE1VRWo6F8xag68Nd8RVrf3kBuXPB37l1B9v6IcZGxbH/9xmK7mpx44L9+KOPM2FbwGtxEbGdFpFc/ntvvcdafZBx9R+99zFDw5tYtXwtFxuvHVhoZh4VHqXAnLaIx4OwZd3FNLat6UWYGbYHmxNykK8XStSGOmGwU7MrzcsLdl6smFlmenoG616LGbBKk7eYiKmu1cSr5u7etZuxXrlSZcSqkQ1AxkC5Zrl5uWY94GiBTRcqT6GFsWHtehOztWB6dH+UcXK0id3XcZHIklcvX2ke0qiOVimn0utNlkqCLYvUovC78W/Ngxift9o83FE2bt4q4Vgq6RmCsPOyc83C0OKUm1/EakPuvGvnLli7ao0p3byuapOEvUiXfEvHW/DrrLmsGjZzbGO5SLrx/B9QwkpF/Skr370zgkYw1GgSs/LPh4/C4EFDMWv6rwwtDj/sEKitPofIxGJtKQsTQL2KNIuww+OykMsKSbBNIhc438CmF04hN4H2KwR2UqYDftkDYkOz1T6/G9fv2VZHNaJj4jFt6gzzMsAGWpiAqezqyOy7d4/HMYHfhzB+yrpUP6teXvDrPJPhyvKDsX3d6jXMVqcY2Gon2MrcHTYb1q1Zi359+piy6jHC/ZI1qK6h+lllnRKzOTNnm4z9Kp5ryjy66N3bd5qMWkmcXojQI1nBVqKjV4lGjxyFngwLegKnH020Xw9cNq5n9k+X3Z3jmjN7tvmJ8/MRn+H+TveZ59qW4lJafyUWLVyCx7r3xI0db8bsWb9yUW5kmTYC99x1L95+813mMTmmT1uFDatXrsGjj/TA66/RmleswU8/TES/vk/hA1p4fm6R//07tj2SvFyowc+lXHC7Mkowa91ubIhKRzbzqCq10XG1o9zMGyxMppMzrUjMdAbkMlvxPCzsZAO7EsUVHlTYPAgL34JhtOQHGJ/1OFEwlBAp+9ZDCJVJeiZ8Jy3u3DPPNvG0T+8n0ImQFNeVjD3L82KjornKZ6LzAw+ZBfCsYIdk4/379DMlmh6qaEENZoJ24w0dTbjQObL0mzreaB6pCvaLzw9FBBM0PQHTQtOPI3rGLavUROnHDr1r1v2R7uY1pPl024kJidi+dTtGcvHcxXLxBeYb4WHhiNgdYV5K0EsQ79NTRUXGIDoyFmNZZgn0DdffiJnTtSjW45OPh6Mj93Xr2h3rCL+woBixMQn4atx4juEO80xc5y9YsAh9+g7Ao3T54azP9S6a3eZCORdGAb2k1eaEiwvAgAtVCOxywo7IpGWv2Yl1ESnIslTBHdouBHZKCOyEo4ZNd5CWYzUJWmmFC8tXrEYfJkvn0+pU715MIKq1BVWuNCYy2jxFk7vV0y2VZYq9Hc4+xzzavOPW2/Dpx58wgck11ilwV7Iff52dbjJjeQy5cdXZ8hZq9w5jreKw+tDDHEmWr0e2Kt1eIqi9hCTYsmz9iqbf1fUjjSbDRo+hn1UHcEFedeVV5udRvfOtnzL10+Y1DBF6qUKvISnTn8QwcwfLxK5duhlwX3/1DQY+86x5+eKO2+/GDMJevWotLfszXus2Low7ucg/NT9lfjv+O/Tt05+Vx22YPGkqcnPysWnTVgxlpXIz2374wSdYSPhrVq/D4iXLsWTpCmRm5zEjdx8WdgVddFRWGeYQ9vqIJGSXOJnBh7Q7GtiJBOsXg7qRGmpL4FlW8wStoLQKxaV2LPyNroxWpTdQTjvlVCNB7XTPvfiOblMlljJb1amy9tP/fpppc+p//908JlVtrgcbyqbn0EWqzpYrHvzsc8gkbJVJgi3LvvC8C+h2exhvIVf+wH33myd2Z1DnnHGWifV6GifYsmz9SKIETL+s3cSk7SsmgeVMvrxexjYmfpGRkYQz3PzwcvVVV5tf367hGPXSxOWXXY4P3//QwC7mPejXPCVsl3Nst992J136A3jogYcJv7uxYln2UoL6jAma9nfp3A2dWJJ143FtO95wM3o89jg2rA9DRbkV8SrbeA833nSrOda715Po3+9pPMlF8dqwN7GbJWq51Q4Px6rxtshz4HMlQcbnVmL+ul3YGJGInGLHgfZqR1WxhCspZXzOrCRkh1G8Ae4wPA8LW5+TssqRb3GiqNRG2EvxaPceOJ0T/vf//G8jwZIbVknkZparbPeXCRMNSD2/Po2gBf3WG2/GZ5xsJWLBcugBlm3K0IN1tty4ErR+T/Qxi0jxfQsTqvmM+9p3Li1bz+PlDXTsTlqfHqIoNIQx9ipZ1K9eeotFrznrRUS9w60JKSm2GIh6ZUgvTJzy36fgv//rFPPbt94bG/L8EPMzq95Hj2B9/SoXbIcO5+H//p//wOWXXolePZ/Am6+/Tc/W37xPNn/eQoz49HN6i6fpFT7Bdddej9NPO5Nzo9evbmJ40AuHWVxoXhQxeftt0VL06NELHc49H2eccTZOPfUMnH/Bxejx+BMIo+WXVljh5jhbAQ+BbWNVkVZowxKVXnuTyISJY7Adj50Y2JllBral3Im9jD/jv/6WmWpX45L1g4PqUYErZlzUAwsnV2j03khTrz7GUkmWd/ftdzKJecu80eLgcQ1OFqxSSaC+GDUauVnZxrL1C5oybSVgyu5jIqPMT40/MGOW21d/L9CSlQx++uHHrLHpktlelq1FJi+hFxUWLFhg3Lje/TYT4apCVlaWebFQv7nL1estE71CpffVHuVYF/22mHG3yLx4qN/Au9C6b6XrHTTwOfM++/y5CxinR9AFrzdWO23KDIwb+zU2bAgzP2Pee+997K+TScw2bgg3fzyhN0vtrMFT0zIxe/Y89O7dF7fcwiqCVt6rVx9MnDgJObmF5rUkgT4c7KwiJrDborEnJo2e1nqgXQC2m7AtfwR2YgC21eFFaZnVvDwnVzxp4s+Yxlp3/eq15kcMPXY0F+VWP3zoUelSTp4gKY5v4oQU5OS1DFBxWxm0LFKPOvW0S4ulhJOtF//0jFzH1ZeyagHXdZWwyfoTY+PNeQobenomjxLPNsqu9bdXGemZ5qWHoGVLLnoevd6r14YmcmFMnjTZ/3pwr94mRutd91yO0UEPowROC2PixF+wYtkqxMcmss8sbGUJlpWRzXYFSGI9Hbk3mpZbQq+wHVMmTcMvP0/Geo49P6/IWJpZaFV0w1zkmVm5WLZ8NSZNnoap02ZiFeN2cko67Kzl3WzXFrYnZJ+TKrPTunNKkVdUwQXkamkXhK1Hu4eFnZBhg1/WNtK+SiRmlBK2C3auPLfHwyySLj2/CDmZ2abeFQi5ZQ+P6S9B9J63pJq5jC4xOyML+ZxAPR9XAmbaSTxHT7N0vt1KC1AfOt/stwf221raq60WQg49gPqVB5G0SGy0YPWt9qqhKysqzSu8LdcKkcPuMG+vCLr+8kPvtOmFSb3gqFejYrhg5AX0MoL+bElgC/OL6SXsXCxuY63KpPXZwQm3WR1s7zG/Gaj8yqIsJeUGtLkfyk1VUU62K+GxHC6UfPapV7O1T/PaVhqrzgt+d1EOfrc6yIB961jLfWnOdQ2OqYSGmZRRgfgMu1FcBoFzK55HBVsJmmC3dH4ohQ6gPQUGdchj7e0PKvS89vo40rUlthFIybSn9D74uLHjzDvmL77wogk1ep+u1Xkcmzt07NqGfNcxczz0nHYUhNieglBbif1rGzyuBRP83qKQsWgBFh837PQKxKUWI49pvpWrSRerUsdS0BJDLxy4qP84J5Ru1HxuM6iDzgseD0rt2p7H6+n3bj3qNPtD24Qq2Efb/QH5XfuB76rB9adF93W6z7yguHD+QvNeWug5wT7dXPAOerbgfgOZ+6pYNmnbsl/Wqu8h42iBd5ixHY3M/Js+2nhTbkNhJwRgx4fCjk9nadBKlS2f49LKEZtchFym+VZ25GL807NxTbqRAByP2M8x7T9WqZ9DKdBGbl7flcTp4Ur3bt3N++N6+KI/QHS73fQAkjzBgfPMZ/XD4636De4L3R/8fiLV0i/nP7CvKnA9JxPBohLG5/Ry8rMhzojAuRXPw8KO50nGskNgh964UeBCfzaZ++BEKWnTy/1y4XrVeMniJeZN0eBE/uvKD7uKEhfdU1vYfh01bPr+tBK6cT9sddx20g4exJ9EgbHLcvUgRZm53HlsbKz/b6zbtv8XlAEt8V702cGsvpCsEo4XdkK6pTXsfydpkgjbyUw++KhUmXy7bUMVXOjHI56veTxaBa/Z3jFJsJ3sV1uVcIWWY4IdqgqTjf87ww4CUKkV/Nzq2IkW+24L7HAKjqe9Y8aqqaOGHZdWyUTsUCo3lp1bbDcvtruqmKz8O8okYQc+K3mTK2/Zd4KleTwRcgbkkHfi1sa6v6CEcNPKyE4JtsQkzWwr/+KwBVPlXAjoVseCn9uTjh+HXJQzIH1uC/BYdHjY4nfMsEsI2/bvC1s61PfDKdj2GGUAB8V+jlbtjUH7W8OuImzW1YeEnaoHJ4dSKU8sRk6RFRU2ujaXi4P8NxLd9UHfj2bfCZTm9Gh0qHMdlJ3j09ZKRvn0wvGplgA/Ak8laLOtOBrYRf++sINirX1IoP+fYUuhUI9Vh4ctCbRfRwm78siwg5PyZ1Jw7EcD+1DH/5clJq1h040fH+yyo3fjoZPyJ5P+OL+9/X9Y7c0TFbTK9o4di4L9tA9bTz+DHAWbpVdsSgUOLVp2KmEXVqLc6oTD6YTzcGK54jipFrU3R5rDULXX5mil822UNbCtIKPcIiZkKcVkV0aVBzhWGh0GNlcDT4hPLSFs69HBpkJv5KQOVntzdryyU4Jc6XQY4H7YTMhSisivtIXjEWDroE6qQALT+JxCB8oq/Z23dwOhUpuT+p+RQPth+627tWULdhvLjkkux8GqoKyI5TaBvj8r34GScgcqbVxB+n+AOvyqPKljUgVVzvk7IQr0F+yzQvsqHYRtNz9LxyRbqLIATz/TI8KO5+rQO02ZOVbk5EuVVLlRVl45MoPK9Ssjp+ykDqF0iXN0opRB+ee+jHx4jWwLkjMs5FZMfu3AjuWHg0XTT6LpJ2nLrI4nxadYaOXFfrEcS6QSmKknpJWc1BGkvKdFaZaDFMf9x65i018iz09k9p1A151Ii44n6NjkEsItbQO7nKUX/9NKgmvkBx2TyBMSeWKSOqBSQsXVw9gQKn8WKOnzSfknPUTa11Zt2xylYglTeZXhRUbxiVw4Zn+wTRvY7Vt2QIJtRHg8MZZ1t56XG5k6jm1MEtBaMYTtv9BJtVV783W8iqPiCTuerPwinzbXC9Xfogny6FXajtprd1L/M6L1UrFByQuHHPPL0qJjhH1SJ0JRJ0hB2EHFct8B2P7jJ2H/L6o9aH9EB4AzRFCtYfuPB/W3KP7npP5nFBnQ3hOkYH/qOwhd27bX9asU/w9z2bYnRnLdlwAAAABJRU5ErkJggg==;base64,iVBORw0KGgoAAAANSUhEUgAAAH8AAABkCAYAAACvrO9LAAAAAXNSR0IArs4c6QAAAARnQU1BAACxjwv8YQUAAAAJcEhZcwAADsMAAA7DAcdvqGQAAFZzSURBVHhe7Z0FfBTX2v973/da21tvoRD3BLfi7oQQiAAJBNcEd3d3d3ct7u7uEnd39wS+/+fMJhBo2tveW7n3/3kP/LKzM7Oz55zfI79ndmf2g8wcCItKISA0EX8NSfiFpuAbmiZIL4KMAmT+MoRl4heW9S7Cs/EvAr/w97b/Cii2L//xkL5rkDn5HVBAfqqQn6QR7x+aLBt+TfLfJUVBIz3iLX4T8sXoiu3PfzSU0Spk/y7QyA+NVOQn/1eSr45fLIrry388VL8Viifr14ZGfkhECoEa+Tr4habKxqKEFyW+sIM/E0KEX5gQXBRauM95gx9s/wUo9j3/q/FDkn4rvCFf5/kpGvzeeH1xlln8gX4RNOIU6ToUu8//4TeHRn5weHIR8lMLyH8/xP+KVlmE+P8j/4/D/zfk+yiEZP3Xo7ix/Vb4/8rzNQP4L0dx4/qt8AeSn/sGvqHKAH4KxRzjX0Zxx/9vRHFj+2X4g8nP0+Abqgzgx/DrDPQt1PGKe5//Jvw6BvCzyPfRIDlJXlB8aJJyrgh0hlIU7+6vK9OKeP+bwfwY3n39v4fijv9HojhyfwxFX1fc2HTwCcnGW9MQxW8vxD8lX0f6W+ILyS88ReiviJTt/rKvf0gGfsEZ+Ah8Q+S16rFguSj8FOQ1OsjxlNB5b5+3UNvex9v3/1eh+v3HIqcAue/gjUMUC+Uw0v/3oDuppaDjxlvmx0szAGUIb9e/j59Fvre8QSHekK8OGizkBKcLZP8geV1Qijym4CPL2rofRbq8XgylAG+OUcx+OhQY0Ruo930LzZikP/8cun01Q/2PgHIaMYQiKM5Q30A7YSZjeA9vIrSMUUEjX6KDt6D4SK3Dv0m+Ii9dXpNGQFgaQWGpBIXLo0JEesGyPKrlIghWiMwQZGoIisj4J1D7CMJluQgCC6B7rtteuK44aPvJ8YLfQN7/D0Hx7/9mnIXQxlQUhWNNl/EUQje2ANnuryKAGLcK+Yp4pa00FCG8KP5F8sUCZVuAWF1odA7hsblExecSk5hLbFIecck6xCap57lvnhciPkXhVQFey7pXgvwfgdqm2x6bVIg8eS8F3XtqSMglWiE+58dRuI9A66sc44/AD/peCOlXbBHEqDl9g5x3EB2XrSEqLkeb+8j4PMJiVOpQEUBSr3h/YUldHPEKv5D8wjCiIz84MpuENEjOhHQ5TlY+5LyC3NcFKLpcBHmA7PoGecXs8z7Ucd9AXpT9PuSgWb8QPzjGHww1rhzpV+7PQE6uDtkCNZb0bIhNRiKGhH5Jld4Slf/ZSaNfQH5hDtFZkiJfhaLoxHwy5Bga6QXIE8h/8oU0BbUsD2+gnhdF0W0/F+8f4+ei6DEKW+HxtL4qFDwvit+qFb63BnnyWq1QrWD5x1DY1KJ6rTIcFUVDJI36q89llDZSgvk9woviXyNfnivBovJPbNIrzWrF+N6QraB1Sj2qhSKtcP0r6bHCe5v/I5rWR9U/WdAmu2Ddr93en5sftGK3F/8i5XAJKflCvuR/IV8T08JRcaQX4peF/Teer5SzEnTp8oavNW+X/xoKvUd1sRBFmxrwKzGWfAWxGPWonv/ImH6Xpt46V8JnuuSulNRMMjLzJKTKuKR/eap/qs9qjL8yXgtUy5fHLInf2RLz84RFNR+aYfxgTtQK9aKCFxZp6hiJootCREwHCvkBqrIRnoojvRC/WPB5y3MlKHxDdEo+SXK+ytlvuiULr6Tn6rnC++2VWEe+DDAvN59ciVVZmblkSt7IlbyhTcaPvfCXtoLjFB6uKN5vauJi4xJ5+Ogpp8+cx8vbj+SUDDEIZQDSX9leSNavCdXUuMPDI3n0+AnPnr8Q40sjR4wgX+apaNRRM/paZlh6I88U1AHejkb1L0nIDy1CviolVYlYHPEKP4t8HXRKXysjVO0tnh8SlUlSuo581RVFfL704pWMTEf/e01tF+JzRankZOWSJaSnJKWSEJdEmkx2jiiXPJlwzfILx1cE2oSpwyoUWaczODl2weM72wvWFULzqPdajhDw8OETZs+eh6NjBzZt2kZQUJgWlTQCinnNr9XSJdKcP3eR6dNmMnfufGJiYsnOzpH3ljks8r66+SwYlAb1/O0Oal/l+aFSQhYlX0d08Yr/n5L/AwPQyFdKUupUIV+p/Rx540yZwPTMLLKysmQys4VkpQJ0TWfpspN6VJ4vXp8tb5wqYSMmMpawkAgS4pNk/dvBaE09LTJeNUCNQPVceYY6lqzQqgFBtuyQp3ZQhqMsUrarSKOFWXmqvVbwfstIz+LI4ePYtW7LV1+WYNDAoTx98kL3Pqq9/xr1vKBPP9qKblf7F+K9liUyfc/OvbR3bE+3Lt0JDAiS+ZMc9N6+r7WOF6784cHU2BKlJA4R8lXOV5pMF/YV8YX4F8jXQR1Ihfy35AeKsoyRul0OQaqEbz//AB4/eUJiYoL07e3MqMV8SZ7aKumkIi09NYOI0AhCxcMC/YOJjIjRvOCd8RXs/6ap4wjU65XQUEaUKysU6VmyY4YgR5YLtysV9ErLoQKZnXfmr0hLTU5ntxBQt3Z9/ueDP+PSoRN3bt2T1xbs8M9accct+lwZY2Eke2+/PKmP9+3ah2NbJ9xcuxDgG6CN6wftzesK3kyNUxuQrskwSUgWtR+RKVxmFJCvSFakF34u8C+TrzMAH3UG6Q35WcSmSBiXN08RsXTn7j127drNpYsXiY2JlhCutkiTPioPLByAMoKkhBQ8n3vx9PFz7t15wNOnL4gKiyI/XV6TIbOeIh1LkuJVIVWeZ8qLMyUUymS9ypZHQb4QrAatjC9LkKEeZUJUNHgtG95AhVD1/mryiyEgWgxv1Yo1VKpQhT998L+0bNaKs6fOaV75TlOvKzxGUTILoFJVvkTAVyoUqe0F+79Wzwte80q256nCvMCwMlOz2L5lB21bt6NLpy74evuKBhJTVv0t2tTxVUoVlZyflyuPypne7qPsJUHq/BCp8wOEq7f5/lcjX1KAkK5yvnoMisoiQeV8efM0IeXe/QesWrWKaVOncvLEcSLCw3VW/N44lMqPjYnn/t2HXL92k5Mnz3Lx4hV8X/iQFZdCWlAUCY99ib3xhNjrT0m+503qsyDyI5N5JcbwOl0GLryoyVbjV++vaFLkS+zQ0oDKma9UtFHWoSZSg3pzgSKiSPPx9GX6lBmUsSzDpx99Su0addi1bRcJsYm6HeQ1aRIdUhPTSBR9EhUWTUhAKEnxyXJ83S6K8GQx6JCAELxlHCqiqbT2hmx5z3Q5RrBEuZfPPIkIidSMQh1z8/ottGnVRjzfTebkPl6e3oSGhJKakqqLlur4Mp6E+HhJC/74+fqSlChpUo1Nmpret+RnF5CvzsUUEv+bkJ9Nosy48jxV64eGhXPw4EG6uLkxwN2ds2fOEB8br3W8aMuTCYkQb7tx8y4XL13j8OETnDl5Hr8HL8kJjCX4zG3uLtvBpbGLuDhqAfemruHpwm1kX3wCXlEQKRYnNa3GuJr8AkJVmi9I9VIy5WtQYf8N8dpG3b6FXqnag9sPGDl0JOWsy2FpakmV8lVYtmgZoUKwatkSAR7fe8zta7e4eOaiFqZXL1/N5fOXSUlI1Y6VmpjKvVv32bh2E9MmT2ftyrXcuXGHNDGAHEmJWWlZPBRj37B2I7OmzZZj7CdW9I4yiF3bdtPWrp2W97du3sayJcvYtmUbD+8/lGpIxTQJgEL2xQsXWLZ0CQvnzxenuS7rxBkKxvAu+boPjH5z8pXnZ0kHlHGnpmVI+H7GxIkTqFunDsOGDuPc2XMkJ0mvijSl6EPDozgvxH9/5AS7dx3g7PHzhN71JPWWNydHLmBdo65sruLEjqrO7KvWnv21XPAavICU5Qfh2G14EgIxMjFarBdkK8YVuSL6ZCZyRXDmSqH+xgAUNB1QYACKfGU40pfLZy8xoI8H1St9R+tmtlQpV5npE6fhLWlJGUh0aBQzJTJ079SNdrZtqfNdbcwMzejeuRuP7j0SYqUKEm+fPX02VmbWfP6Pz7XHUcNG46WOIe/j9cKbcaPGUcaqLF988gW1q9dm/+4DmgEc3HsQ2+a2WsRp1qQZ5mbm1KxRUyqA6QQHyTilr5cuXqJ3r14YGxnybcmS9OrZi5s3bpEmRqXaH0C+5HwxfEW+dm5dSpSoqCiOHT1CZ1dXWjRvwYhhIzQDSE1JeyP4ciRMBEnYO3n+Cpu372Xjhh2cOnSWwIuPCT9wnb3Ow9leuQNHrRw5a+3IFSsHLtu0427tbjxtPQiv3lOJnLsZTtyC52Eg0YLoFInNMhgV86WMfCXE5wty1YkTwSvtpLnMkCJcka+gJIk8P7TnIG7tO9GsQVPGjxxH7Wq1GDloOPdv3tP2CfELZoj7YL6rWA1LYwtM9U0oKVVBVdEIG9Zs4LnolpPHTtFBysTP//EFX332Fd98UUJCuT1Hvz+qpYptm7bTukVr9L/V56vPv6Z0CT2GDx7OHYl+O7fuolmjZpQuWRoLMwsh91uMDI1w7ejK5UuXtei5eNFi6tWtK9XIF5T45huqVqnKls1bJYJGyyD+APJ1gu+15nTKqbKlRElKSsLT8yUrVyyX0qk1TRo3YdSIUdogEuISJAUINxIGPX0C2XvoJKvW72DF8s0c3HmcF0dv47vxLJsa9mGXtRMXTJ25bebME1NHnpk78tDcnodlHblXsxOP7NwJHDCTrKW7Yc9ZuHhfDCFIxIRYY4p4gxJrMrhXWVIzZ+eSJ8hXBqAMUEHVhgXYIqG6vb0TnZ07sXvLLlo2akGfrr0lGp0lR4RsiH8IfXv0xcrUSgivipO9I21t7SlrWZZxYizHJXptlHDeRIynXq16dHR24bvK1Wlcvwkrl67E56UPQwYMpWHdhrSSyNJJqokqFauKyGsr3r+f9avX07xxc418Jwcn2tm3o0rlKjRr2owd23fw+NET3Pv1p0H9+uJQzejYvj0Vyldg4oRJPBP9IKMoUPt/gOfLITRHyhZPS0lJkbItgtu3bjF2zBgaNWhEg3oNGDNqjISuy8TFJpCelskLT3827zjIYiF+8aKNMulHebT3Gi+WHWP9d93YZ+LELYMOvDDsQJCBE2GGDgTq2xFobMcLs9bct7LlfjUnfOzdifKYTvyMNaRtOQxXH4F/BIhwJEV93JhNfmY2uer0qUQmbaYUtHD1ihzZZ/n8JTjbOTDcYyh3r96hi7MbnZzEELbuISU+lbDAMPr06COaoDxuLm6aQFu/egO1vqtFz6492SFqXSn23t37MH/2fE0sdpGyTRmDyv+3RCs4tHHArqUd82bNk2hwjIH9B9LRyUXL98pAWjRpQfkyFVi/dj3r1q7D2cmZ+vXqs3TxUomkx3B0cMTVxUXL+bt37aRRw4YS+ntz9eoNrfxVsuZ3Jz9eneQpID9X8mtqahox0VGiVkNE8Z9ggMcAKlesrIWpkRIB1NmsCCnpfPxC2LH3KAuWbGDRok1C/nHu7LzKndkHWVG5GztNOnDZQDzcqDO++i746zlrRhBk5IC3YWue6DfjgXEz7lm15HkdF17Y9cOz61hCJ68kZ/95eOQvCjQerYPKCMQA8rIkGhR6vhIpQn68KPcZE6bS3s6RWZNmEOgZwPABw3Gyc2Ll4lWi7GMIC4qgb89+1KlRVxNrfl7+PHv0XFPoTlKfb9u0TcTePY4eEgO+/0gL5R79PGjcoAnjRo/j9InTtGjagm5u3bXlZGFJ7btUROUVqXJWr1hNM/H8po2a8vjhY+7fu8+ggYM08mfOmMn6detp2bwlI4YP58Z1cZDnz2kvxuHk6Mzx46fJEQL+APJ1gu9N2BfPz8jMlPyeLN4fjq+Pj1jpbtw6uWFibEL5chUkfHlwVMKkp3cg1+8+Zf3m/SxcuInNaw9xacN5Lk3ew6JKPdls3oVTxt25IXhi0JWXep3xMeyEv2FHAowcCTZuQ6Bpa/zNW+Fn05rn5dpyr7wjl6t34I7zUKLmb5VU8BCCYnQGkC6pQJ0504Sfyj2yLELF58kLhvUfhEtbZ9avWEdYQDhjR4yjdfM2zJg8C1+JUOFBkfTo0ktCc0tR+WuJiYgVIeeNa3tXzQB2bt1JSmIKGRLRvF56sXrlalo0a0G9OvWYMG4Cu3fulujXkH59+nPpwiUtCsVLBIyOjCYmKoYtm7Zg29JWC/m+Pn48eviI4UOH07RJU6ZOmcr8efO1COohFdTRw4dFQ53F3q4NrW3t2L//exF9ktr+KPIL1b72yVR2NtlZmVKGJBIt4u/u7bssmL+AOrXriAGYUq1qdbHqIezdf5gb956ybfdR5sxZy9rl+ziz+gynxu5iTsXerLPqxfdmfTlv0pfbhn15pN+LZwbdNSPwLe1MiH5bIo3siTGzJ9LUllB5DLJ04lkZJ65VdOKOaIKAicvJOnoFfMPFACQ/CTlIRSJliUA6np7J9TPnJcy7ULtqTXp27sHS+UtxbONE9co1GOw+VMq1e4QHR9K7Wx+N/JVLVhMVGo2/eL8K+Yr8LRu34uPpw/Gjxxk4YKBUOnUpXao031X7jimTprB963Zq16qtRcHr125I2NE1dSJHVUKbN23GtlVrXDq6EBQYJDn+MSOHj6S5GNCUyVPF+2dRuVJlyfPladWyBW3s7DA1MaH6dzXYvn2XpNrMPy7sK8+X0l0cq7C8EiPIyiIhPoEAvwBOnTzF0CFDRcRUxdzcklq16tKrrwfL1m6QvH+AefPWs3bZfk6uOMOx0buZXr4fK6zc2W02kGMmg7hoOJjr+h7c1e/Lw9LdeV6qE36l2xMqaSDSqB1RhnZEG7YlxtiRIDNHXtg4crdye+7b9SdozEJe7TsDt59CgFQGMZIKEhI15Av2bd5CKwm3hqX0KWNhQ4Oa9bAxscawhD6dnVw5J6IvOiQK9179adPcTosOceL5gSJY+4oOaGPbhuVLlnPk0BEGDRgk0a08lSTNGRoYUqtmbaZNmcb2bdupIUQp8m/dlApFmnbKWZCSnKKpdjvx4o4dXAgODObJ4ycS4oX8ps2ZKuTPnjWHiuUroq+nRxlrazGESlhZWooh2PL990fE80XXyPz/ruQXqn1VMamcrz5U0T6N0k5D5svAkrWwpkLhvr376d6tB5UqVcXE1IKKVb/DuXNnJkydzaSJC1m1eC8nVpzjyKj9TCzrwSLLQRL6h7PfdBQnDEdzVm8Yl0sP5Fbpfjwq3QPP0m4ElO5IWGlHYkrbk6TnQLqeE4mGjkRbtsfLwp6nVdvj5zCQ+DELiF+wnrzDYgSSqwlTRhBDnmDV3HnUEQ/97JPP+PzjzygpZdpXH37Gp3/+iFYNmrF/624ixWg8evbHvllrNq5cT2JkPIHi+b3E8+1bt2Ha1GnMnTNXRFgjLcK593eXKqcpjRs2ZvKkyezcsUsjv78o9hvXb2ikq3lRZ/EiwiOE/C3Yt2mrlXbK8xX5w4dJ2JdjKOOZN3e+eHl1MaaadO3ipuV+pQnmzV3A/fuPJdqqD7T+APKjk19ppbO8t+6TM+18s+D1azIzMjTLjo2J5eULTwlvW+gg1l2mbAX0JQVYSRhr1Lw1nTu5M2/qeo4sO8PB0QcYXW4AM6wGs8JyJJstxrHbZAIH9EdzXG8oF/UGcUu/P4/0ekoEcMOnVEeCJQ1E6bcnUaqDeKP2RJu2J8DYnoAK7Qlr1JOQdh7cb9MD70ETSVq3A0R94yOC0D+ARTKRDaVsMtfTp5KlNdXLVqScsTnffvw5jarWYN3CpQS/8MFdiG4updoqeR4bGoHPc09cnTviIGXZ6FGjGTxoMDWq12DyxMkidE+Klw+kZYuWUo5NZP++/dSWKNCzR0/tZE1GeoYYwU327N6jRYK1a9bh2M5R00aK/KdPnjJMcn7jRk20Ez2LFi6SMq8B/fr25fixY/h4e4t2uCjC8IHYcLx2lu8/i3yB8v4sUdkqr0WGR/LypSerVq3F0akjFtZlKKGvzzelDCVM1mNQ70nsmP09e8Tzh1UYxDirQcy1GsVyq4msMZ/CZuMJ7JUIcNxwBBcNBnNTrx93S/XgkRjAi9Ku+Om5EKrfgQgxgEhjMQCz9kRaS4lYph3e5ey4W6455ys1EzHYk7BZi8g7dJxMqTwmOzrhKJVILwcHVsycxS4ptRZPm4mdlKcta9Ri3riJ+Nx7iLtbN2pXqMwMEXC+z17w5O597FvZ4tK+A6NHjqZvn740bNCQ7w9+r52fV2nOVrbPkmOePnWaurXrSk535cTxE4SHhTNfvNm+jT3Lly1n3px5WinXyaWTdkbv+bPn4t0jNM9Xr18lAlKRP8DDQ4zlphZR9+/dx9kz5wgVQ1Qh/w8J+z8kXxf2tdN54v3q1GpmRqZ2lioyIooHDx6zZt1GOnbuglmZMpQ2NMPUuAKNa7VjsNNY5rguZHj14YyuMJRJZUZIBBjLPMvJrLKYynbzyRw0GcdJo5Fc1B/M1dISRkv14k6prmIEnXkpRuBbugPByggMnYk2cSDGpA0hpi3xtWiOV6XW+LXqSmifEYSOm8FTKe3mtrBlnOTOHTNmEPHgAZkSin3u3GGKhFXHBg0Y3acPDy9dxqNLVypbWNGtQ0e2Sum1etkyKkl+d+vUSSvHlNBToVkpfRXGFZkNRaErpX771m2NaEXmpAmTJA3spItbF+0E2KqVq2SfBdqJHTeZk7DQMCnlXkhZrARfcwnt8zh44KDk91ZSDTiydMlieX4Ah7btGDJ4KLdv39c+qv7dBV9x5Gvf5HmlPm4UFaB6JRvyRASmicKOFwEYHBLGXamFN4oC7tKzD+VFVevrWWFuWJlGNi3pXLkLPct1Z0C5vgwvO4Cx1sOYbDWOhdaTWW81hZ2mEzloNJaTBqM4pz9MjGAQV/TECEr35p5ogSd6XfGSiiBQ34VwMYAYQ3uijVoTa9GG+AoOxNfvTESLrjxu4cqZFk5saNiCXV2knNywAfz8kDDF6/BQts6fQ8dmjenhYM+5A/sZ2L07ZURhl7eyolnDhtStVQtjQ0PGjB7N1q1btUclwjqKcXTu1Fk7A1etajWmT52uefJI8eSakvfVOnX+vmzZcqLa7dktoV95fxsp3VRkCCoQfFrOl1JvwfyFPHzwkL69+2g5v1HDBji0a4eFuYXk/cES+h/pPtmUef7PIV/7vFl5vy4IqK9uxcUl4OXty/3HTzlz4QqLlq+mraMr1tZVMChlTblvxQD0G9HW2A43K1f6lO3BoLIDGV12NNPLTGSRxSTWmkxiu5EYgMFEjhmMFyMYzWmD4ZzXjMCDO/p9eKzXHW99N0kDLsTpO5Js0I4siQK5lo7kVGpPQkV7ntg05lKlxpxt0pY7/QcTvGoVORfPw7MnogWkbFu3kp4OUn61asr+TesY0KMrlWysMdLXw0CvNJ9//hkVK1dk0+ZNXLl6mQUL5ovSL4uZqSpnq2JjbSMaoCbjxo4j0D+Qndt2SFnYmtIlS/HlF19ioG/I4MFDuHzliqaFnB2dtWig9i0s9Vo0b8nypcuJiY5h8ULduf2SJUoUqH4bFi5YhL9fkMy8jvzElF+JfL/QdNnhhwbwi8jXlL9iXxcE4sTzb0rd//3RE2zfs5+V67fgPlDlNjuqlavNd0Y1qFeqNo1LNqCthGsXKxeJAn3xqDBCosAYJor4m2s2iRWmU9hkLCWU8VR2iTHsNR7PYaNRnDIYyiUDKafEAJ4YdMfXwE00QEfiDduTauRIunE7Uizaih5oiZdJI7yq2BFs153wnkMJGTaOgEnTCZOwnXToe+6uWsHiPj2Z5NqBE6tXMNLNFdua39G8Tk1aNKhLjSoV8ejXi9s3r0l55s+RI9/j2qkjVtaWtGljh4tLR3r27MkCCfsxUdE8f/KMGaLcG4qWKGtTVgvjO3fuwl9E5ynRBKNENKrKQIV9L08vjVj3fu7s3b1XyuZsLorAGzhggJTLlShXtizdunbj/LkLJKlv0EpTOf8t+Zn4hQj5If8G+X4a+e8awD8jX+X8wrD/hvyClpaeybWbt1m+Zj0jx0+m/5CR9Og9kN7dPejq2B37Gm2oW6oG9UvUoql+Y1oZt6adRSc6lnGnR5lhDC07gYllpjHLeiaLLWazQrDKYhbrzKez3XQSB43HiB6QVGDgzm39njzR74KfvivhmgE4SzXQjngDO0kFrYgya0WylILYe5Bi1xPPBm25UqcFl+2dud3Pg6cSru/Omc3NhfN5smUT04TYfrbNmT1iELvXLmfrqiVcPXuC2PAg8rLSiIoM4cSpo8yaO4PDxw5x6eolrl27woN798iQlJeRksaDO/fYIHphzuw5HD50RIRfBDnZOYSIzrh27brk7zu66ig6lgf3H3D54mXNENSnkurz/KsSJVYsXyavn62p/XiJpOJjWiv0/OBw8Xp1sUZwlnY18y8mX4eiBvAu+RpkfUBEpka+qvM18hXExV+rOK9CfoHXq6YWk1JSuSrkr9uyjQnTZwv5o3D3GMH0sTNZMmE+4zsNE7KbYKtXn6Yl69OoREMafmtLU0NXHC3607vcGIaVn8a4cjOZaj1HjGAec63ns8hqHmssZrBNosIBk1EcNxokaaC36AAlBDvhrdeRUIP2RBk4EKlvL2hNlJEtiVZtyajSnrjK9viXbcKjCo142qQdXq49edF3IM+Gj+alGIHXggVs79mdNb26cXnNMmLuXCPuyV3SA70gJQ6yxfuyUshMi5PoFk5KegKZuWnk5meRl5cjTiDuIePPEuNXp3RDg0NJSUrRxLByDnVuRH0ukqtOO0tT30dQhKvvPWrfRVBN9stIT9e+HhceFqadRFMtL++1ds2Beml8EgT9VuRrNz0sNIAfIV99qVAjXzOAAvJlUX3WHyBlzAkpT1Zu2MTUOQsYPXEGkyfMZtviTeyfu5FlPSbiUdae3qa2uOo1p22JZjT7uhX1S7ajhYTwjhYDRAeMYUj5qYwpN4uJZecxtcxCMYKFLLSaxUqpCjabj2Gv6TCOGnlwRr+XVARdRAi68EK/PT56baUaaEOAnh1BBq0JkQgQYtSCUPMWhInYDKtqT1xzNxKc++Bj68K9Fg7caduBR116cllE3FWP/jyfO5OInVuIOXqQhItnRCR6itKKhoxEyJHZfyXuRzo5CPlkytDzBBIFZV7UV9pypPTNycjSPmbWJLqan5/T1H5qbsWpNC1V0NQ0q5CvbCQ+6fVvTL66ClTWKQMIiMjQyJdD6IhXKPyjoMhXnRMLTpCw9UBU7MGjx1i5cRPzlq5kzqJVrFy8ngvbjnN6zhZWtx8lYd2ByTbtGWHuTF9DRxy+bUv9b9pQ5+t2NCnlQjvj3nS1GoF7uakSBeYypuwixlstYorlTGZZTWKp5Tg2Woxit+kQDhn1Fx0gxInh3JH6/0Hptjwpbc9L8X4fgzZiDK3w+baZGEBLYq3sSansRHa9zqTXl0hRrRXPy9fjYcW6PKnTlKct7PDq7IbfYA8CJ40neOFc/FcsIeXwQbh3S1xOjCBexFdmlAw4joz8WNLyEkjPTyNTIkBOXq7Ok5VHq+8YqIlXF9i9mThBca1w/Y9tl6amWg5NvKj93yzsv0++f/gPydc1tSTQDEBCknh9eHiE5Ptb7D9ylPXbd7Jqw1bWbtrJ3s37eXLwEhenrGV98/5CngPrbDqxwqoLc827MNioIw4l7Wn8RUvqfdacBl/ZYaffCVcLd3qXGcnAMpMYIiXgSMsJTLAaz2zBcsvxbDQbK2JwuAjBwZwx7C8G0EPSgCt3JQo81XPBU3SAZ2lHvEvZE2ygRKADCdZOJJVzItrSljCLZgSZN8LXvB4+1vXxrdyY4Mb2hDm4ENGlF2GSFrz6uOM/cgxxS5aSfeiAGME1CHwGsf7kp4eTmxlLhkSETNEEumsZRA8p8sX7XxWSr7xfTZ5CYSuYvnfa+8+LNLVJhf2E3zLn/3zyVZNnWgSQlChqNViJmhs3xfOPs33/AbbtOcCOPYc4e+AUvgcvc330MvY06MM+yw58b+rKPlM3dlv0knwu5Z6pC64i1pp/04zaXzSgzpeNJQrY0c6kM12t3eljPZSBNiMZUWacRI1JzBVjWG4+lY2mE9ltPFYMYLhEgAFc0OsjBtCLB3o9eabfnRd6nfEu3RH/0k6E6okeECOI0rcjSq8lMZJ24g2akWDUlATjRsSaNiC+fFMSa7Qkvl4bwuq15nnNptyr25wnkhr8pC6PW7OSzDNHyH1yk/wIbxE5keSlJvAqO0NyeI7uQy/l9RnZwpbMmBCmg0xSoRH80yb7FdN+c8FXSL5a1sgPS9fIV5/qqTG82y15VrBCU7RSwtwQNXvoxEl2HTrM/u+PcezIGe6fuELY/kvcHTKfo7W7c86iIxfF288ZdeaseS92lunLXJueDBPV31lKtZZCSv1vGlLr6/oiBpthq9+W9qad6W7VF/eyQxlZdiyTy0wRITiDZRbT2GA6mR3G4zhgNJJjBkM4pz+AG/ru3DPoyyO9Hjwr7aYZQJCeE+H6jkRJWoj5tjXxguRSrUnVsyVNvwUpBmIEUh7GmtcnQqJBgElNnhpU4YlVLfzq2RHSqRfho8YSOncO8Xt2kHbtAq+9XkC06IG0dN1HyeqLjgrqmnaFTPVcWFNfKv2h9/xIK9ixwLEK2+8j+IqSH55OTMF3+H6UfIE6w6dq/OdeXpyXkubY+QucO3ORG6evEHD2NvF7z/HYYwZnqnfihpkzd406cMvIlesm3Thu2YctNu7Ms+7DCKuudJHtbQxtqV+6EbVL1KPuN3Vp8m1j2hi1FUHoRi/r/gwpO5pxZSczw2YqCy2nstJ8MptMJ7DbaAyHDIdzRlLBFaMB3DTozX39bjzTc8VXBGGIgRMRevZESVSJKdWWuFKOxEtEiJd1MVIhRBi2IMi4CYFGDfE3rIefYV0CzBsSWUWiRcvOxHUfRNLYqSTNW0zAvIX4rVxPwvFz5D16CeGxkKq+WyhCT93NQl3nliIRQH0ZQilmNYGK1/fbu5MqTQsVgoL5LWg68n8HwVeU/MIvcL5LvlpSnRPIgFQ5kyGhPyQykjsi+i7eus3tq7d4duEWceelDt55Cs8+E7kiZddDk3Z4GrXnmWFHHhl25rJJL46aDWCz1UDmlXVnRPne9CjXCXsbexqZSAT49jtqlqhM3W9r00TCtL2JM50s+0oqGMFQm3GMt57MLDGApRIF1ksU2G4yloOmIzgpgvCCCMLrhj25L4LwhWgAfwNnCf9tiRAdEFHKicjSnYgUfRCh155QiQr+BvZ4iuH56DeXiqEp4UbNpGSUVGDRiqQa7cl06AeDphDfZxQPO/Tisktf7o6YRuCaXWRcvkvecz9k0iAkRiKCqLNkRb5MlSJfQSKAdm3h24l8M5W6phZU2Sg7vxbxqJS/rFJr3yVfOPtPIV8tqs/6Y5OSeCLef/PRYx7deYjn1XskXX1E+t5TvOg/juvV2uJp2kLUd2uCDdtpZDw06spl0/4cthrCxrIjmFdxJOMrD6N/5YF0KtsDWxNH6pVsSs2vGlLzm8Y0KNlSUoMjjpI2upr2oL95H0ZaeDDdZjgLbUax0nokG6Ra2GExVHSF+rKIBxeM+3LTSLSAUTeeG3bCy0Bg2E2I7sULQ0kNhl15bOjGAzHIu4ZOPJZqwVPSQZAYQqhBc6KNmhNZwYnYJv1Icx3Hi6Y9OF+9LYer23HKtgvPR8wkbMlWQtbtJ2r3KbIvPYAAiQRJKvTLBKnQr75ZLOnxtfaFPFkuKJOV47z5oEw7nSbbX8t+r6R6kP20qlqtlU068jPfI1+RXojfjXzVK3lUfZYHRX5iaiov/fx4+PIFL588x+/OEzIfeJJ77AJeQydwr5YdwRJGYw0akmjYkgQRYEEmXXgm9f1lIeyA1VjWWIugKzeF8ZWmM7TqVLqVH05Lwy7ULdmW6t+04LuvGlPzy0Y0+LoJLUUTOEm+7iZaYZhNNyaX92BWhSHMLzecJVZDWWk6mC1mQzkoOGUyWIsE14TwOyZ9uGvmwW3TQVwz9uCSUT/OG/XmvBjEReOu3DFy4bFeO7z12hBi2JpoY1uCrdrjU6k7z6r05Jq1I+csW3OuUhvutOhKzNBZvOw1gSsdh3KxxzheztkE1yUVRIsOUNckKgGYLSEgS9KBiEMpjzQDUGdI1cfi6vo8RbYoR5lL2U8eX79Sl3HnyhSLccgUa7dlSXol5Asvb8gXvEd4UfzG5As0y30tdegrMrJF9UdE4BMYSLBfIJFe/rz2C4Frd/CbMpM7DaX2Nq9JnEld0kyakmUsudesE35mfbljNoTTqnyzmMoqqeln28xjQrm5DCk/g97lJuBiOYDWohOafGtHXakG6n5Rj/pf1qTJ19WxK1Wfjkat6GXhzOCy3RhVvh+TyrhLWThQ0sFgNlkMY4/ZMPYbefC9Xm+O6ffhmKEHx4wGSaUwkIOy/oAIxEMGvThu3Iurxt1EK0ipKDoh0EBEopEjfuaduW/enbOlnDkjhnFe0tedKq4EthlISu/p3KjTmVNVnThUx4Uz7Qfhv3grPPPXfa0sWVJAhkh1daYwR5ArAjE3k9d5ObxSyFdkK9LFOF6JccjjazGA/HyJAO+Qn/+fQL5yd1mjkS95SYhXl02pq2cTk1OIioklNjJKKiFRwrKMpyfh69bz0KUbTyvXJ9SqLolmDcg0biqG4EigSXeemAzgutkYTphNZbf5HNZYLBYxt1jC+WLGl1vAyHKT8bAeTDezHjgbtqd1aVualmggEaC6hobf1KR56fo4mLSks2U7+ll1ZJR1N3l9X5aWGcR6yyGsN3ZnoxC/Rb8vWw0HsM14sIatxgPYatCPXYZ9+N64j0SBXtzSk3Cu30VSUxfCBS/FKK4ZidGUFJL1O3FRjOFBpZ4E1PcgpPFA7pbvwBWbdpyq0IbT9TvwsP8Y8g+fEAN4LGIwQOq0CDGAOPF+MYasBEGiRPcUMYA0IT9dplGRriCG8Z9PvvJ8WauRL8SL4lctOzNbu/o0RfJ/WnKiqF+x+KgwUs+cIGTyVIKcOhFeW0J+2YZkmNQnzrg1ocaueEtefmA8nMtGEzluNJu9JkvZbLqSVRarWWyzWkL5AmaUmyQqfziDyvSnu6UbTiZtaKbfQMRgDap+XYkq31SiVqlqNDKshb1RI7qY2DLYogOTpZScZ+3OQnN3lph6sNxkIMtFEC6XaLBSUsIqSQ+rxfs3SfjfY9Kfk0Z9uVK6h5SKvSX09yVYrz+PDQZwXsrIY3r9OGnYm3NmPbljJZpBjv3Cyo2n5h14bOHEoyrOeLbsSmj/EaQuXUr6vi1knT1Ezh2pCjxv8zr8BbkxPuQlBvFaO1uoO2X8+pVEhDdQEUBFBBX2tWnVneSRslvdzFGRr7vjaPGkF+I3FnyyVn20m5enXTunVqkzXNnpmWRJ/s9JUxf6iTUni6U/fSSqfxcJ4ycR5tyZqAa2xFVQUaCplFP2eEv4fyq5+I7hYC4bjOG04XSOGM9lr+kCdpgvYovVbDZIfb+i3HjmVhjJxAoDGVymO93NHXEyakmzklIWSgSo81VV6nxTlUaybPtNbTqWbkJvE3sxAokEll2YaN2LKdb9mGo9gKk2g6VcHMxsiSjzLcUgpOrYaDqAfRIhTkl0uG7gLpXCQJ7qD+Sq/mCOCA4bD+WY7HNKUtUlk54iJLtwS1+IN+3ES+tOBNfpTlr7weQNHEfi8JEEjRqE75SRBCydTtieVURd2kPsk1OkBFwnO+aJRINAcetImUeJCK8kPbySOVMRQBN9OodSTZ3keXtzhsJLtIsnvRC/MfnSI6Vc1S1a1GePEvaViaozXLmpEs7SxYoV+Sli3cEyyKtXSF+/jtDBg4l27URcs1aEVpeyqlxLAss44W/dlZdS+j0wEDGmP4prBhO4YDCVU0YzOG4ylSNSz++xnsDGcuNYXnE0cyoOYXz5PmIEbnQ3c8RBSrQW34oW+Ka6aIIq1P20Ao3lsWXJmthLhOho0ooeItz62rjhXrYnA8v1Z1j5AYyuMEjE4hDm2gxhmfkQNpsM4pCkg3Mmw7hiMkL6MZwTgj2GI9hnNppDFsM5JoZyRqLVJcPuXNfrzCPTbvjY9CC2Tm9eOw6AboOIc+7Is5aNuWnXiLvdHXgyuT/P1k/E9/QKwm5vJ+rZ9yQGXiQrTowgS7RRvqSFvGSp9CRavlY64D+MfJWBXiuPf88ctKY+flKr5EGrTTIkfIkG0L5HHyX5/8Vzso8fJmT2NKJHDSGxb3di2rsS0cyZmIadCavqRoBVF7zFozyNBvDMYCgP9EZwR38MNw1HixAbzRnTURyyHMHuMiPYXF4UvUSABSLwppXvyUhrV/qZtcVVSjPHUg2w/bI6zT6vQsPPKlHvi0o0+qqGGEJD7PVaSanYjg6mHXGT9NFLDGFwhf5MKD+QOeWGsUpSy3YpHfdbj+Cg1UipFuS56XA2mI5kk/lIdgv5h0RIHpMUcUq/B5dEH9zR74ynmRthFTuRVLsDyQ0cxLAb8LxiBe5Ur8iDNvXxHO5K6KZxBB6bhe+puTw7OZsnZ5fgd28PqZF3pSwMlrwZS57SBprif598dU+eP9zzFcmqY2pDPnmZmdJh8XCpY8nIEkuWfB8VS6760pm6ikZdTBkWTeKdO4Qd/Z6YPVsIXzqDkAkDCPXoRVz3XmS6DSCxRS9CKnTE36wDQVJyBRr0xF/Cr09pd17ouUv97SF1+ACumrhz3tyDE5ai3q09xBD6s6VsX1aK5821dmOSZQdGSiQYYNyG7hINHEs2oMXXtWj6ZS2JBHVo+nUDmn3TmOYlm9GydEupIuxwMnWgm7kLA626Mc66N7Ns+rNA6QRJD4ttBgmGslgMbqXNSDZLGbnHYiAHTPpxWPp4Vr8btww6S+pyI9i6PWE2tkSWbUKIeTUCzcvhU6Uioe0akTxRIsP6oQTsG4nf4bH4nJyI17k5PD23BO/bO4kPvE5+ikTIbEkBUvJp5V/BrP/HkP9Ks8h8ciSk+3p5cvHMGS4L/J+/4PGNWxzYvJ0ty1Zz4+Q5siLjyYtKFAu/yo7Zc1k1YgjX1yzEd8dS/FZNInjGcBLGDoVRYyVX9ia0qj0Bpi0JN7QnUs+JqFIdiCjpSkhJiQrfSmjV6y4qvDuPjXty16Q31036clHy72lLKdUse7HTqifrrLpLnd+VOdZdmGDlwiDRBd1M29DRsCX2pZpiV7opLb9tpKsWStSjTsm6Ihrr0VSdRhZjcNG3p6eRM32NO9JPcrm7RReGWfVmnM0AZpcdzAoxhk1ifNvkvfcY9eaEUQ/umHbHz7IbgZZSHqoTWYb1iNSvRqxRBaKrVCWlbWPSRrQnYkFnArb1JuLYcGIuTSTi6my8L87j2cXlEgH2kRhyR1KAaIDX6UK+kKeFUSFfCChKviL+Dwn7uVKbqk7FREeya/t2+vXqRf+evVi9eAlTR4/FsXkrmtesy+QhIwi4/5RHQvzCkZNxqFmHlhXKMte9G4/2rCbk8Hoiti4kZukkcmaPJ6NPb2IatCTEui6RRvWJNmhGROlWhJdSp2QdiJQaO0xPooK+CwFGbngbdeeZYS8eGonyNunBVdMenDXrJdqgN3sterFN1Ph6UePLbLozR9LJBAsXhpg60lcEYBeDlrTXU4bQkKZCfuMSdWj2dW1afFGLll/UpvVX9WktEaJ1yUbYyX7OYoxdTF3xsOzBGDnuVPMezDPpwipjN/aYunHZWspVm248t3ThmbE9zw2a4mdcXwy5BoFVahLRqgEhvZsTMseZkJ3dSTw7nNQbE4m9MZWAy9PwvDyXl9dWEvz0oFSEj4RtZQCilbS7EImOUuSn5OvUvsZX8YQXxa9GvvJ1ZYNS2IkVKvJf4+/vy4RxYzEzNsa4tD4tGzamik1Zvvr7R3zx57/RtFpNDm3YxrwRE2lRsRYl//QXSv75f7CvXYUzW5cTevMYCZf3ELlnPonLxpAzpg/Zzq1JqlWXZJsaJJnXI8qwIRESumP1W5KsL9sM7Ik3cBCP6kCUKO0wCbsBEgm89dT5+648NBQFbtiPi1KTn5Lq4bhFP4kIUsJZ9JFavweLbLqK0ndhpIWkBQvxcIvWuJi1oL1pczoYN8Hh29o0/7IaDaVqqPlFRWp+U5kapaSCKFWXBqWaY2vQlg4SFboZOjNIvx2TJEosN3TggKSqS2YuXBcdccuovaQne56YteKJeUOeVqqDT5N6+PVoQvyKziQd7UPWleFk3hxFzJUR+F8cgd/1KXhencPLGysI8RQDSHksWjpUJlzd9i5LyH8t5OcRFCn8CEeFN80sjvRC/OrkK+9XX1tSTZE/ZvQo9EuV4ot/fIre1yX45C9/5a8ffMAnH/wPliVK0dWuHY3LV8Ps46/5VNZ/+b9/orqVMduXzib0wQVyX5wl9dxqUjeNgbnqgxMH6NiUvKZ1SatTn/CK9fC3akioRRPiLFsSa25LhJR2keK9EeYioMy7E2DixstSjngaduSxeONNiQLnTbpJKujJcfHSExY9OSkR4YCQv1nIX1mhK/Mqizao0omRVVwYUKUDHlU7MqyaK4PKtKO7SQs6GYohlK5PW6NGtDQSjVC6kZSPTWj6leiEr5pj/2UzXL9sTJ8v6zPss7rM+LwBa75uzvbS9hwwcOaQGOlJM1vOWjflWu3meLs4ETdVSN8zktzL48m/PYm0G6MIvzCIgAtD8Lo4XHL/GB6em8Tjq4sJ8jokBvBMqidVBkrlJHFfka/ujegbloG3cKVul/tTBvCbeH6u5vnw7NkTBni488Wnn/BnIfbjv/yFj//8Zz78kywromXZ+LPP0fvrR5T44M98Juu++J8/Ud6wNOvmTiX43kXwuUj+tbVk7xgJi7rAhNYwtCX0b8GrbraEtmzEw6q1eFyhNr6VmxFctTV+ZZrjY9kCT+t2vCjnile5TrywdOSphQM3xaNPi9jbLwJup4ivnWVcOGzpyjnJ3cctOrHfphPbK3VhdY3uzK3Tg0lSlw+v1YXR9XoyrX4/plfrweSynZhm05lx5h0YIZrBQ9BPxGAvExfx+Pa4lmpDhxItcBXR6PZ1Pbp9VpM+H1dn+Kd1mfhVU6Z93YIpn9dntojMpYY12VGrKTd7dSVi2XjSjs4h69pc0q5PJ+byaILODcb7jDu+l4bgd20MXlfG8fD8VO5eWkqo71myk3zEAEQ4SzmdmJKrke8j5Htp5Ovumloc8Qq/AfliiAWC7+bN6/To3o3PP/mED4X4ahXK06RuHcqam/L5X/8s3v8B+v/4iGZVKtO6eg2qmJjw7ccfUd5Inw3zZxH26Dp4nyfj7Hzi1nQjYWoTMkdVI2dUbTGCpjCtIzHubbnYsBoHrMw5WaYSzxq2xqueHffLN5I6uw7fG9TjtGljblg1FzTjqElDNpSqydyvqjDhy8rMKl2XrYYtpGZ35Jx1R47adGCDiR3zrOyZUMGRYRUd6W7dmu4S/sdW7Mz8Kr1ZUaEv60TxrzLryWKrvswu485MG3dJF/2ZaK0+RXRjkJkz/SX69DZpSU/J731KN6OfVA/9vmlGf4kA7l82YJCQP7RkZakeqrKwSX22drfj8JgOXFjYhRtru3N/Zw88j7njf34QgVcGE3B1GH6SDp5fnMi1Y1N4dmsbyeEPdOo/N5fE5LfkewpPvzv5urAvgV/KkIsXz9HJ1YUSX31JWUtLpo4bx8pFC3FzdsTgq8/58q9/olGV8iyfOpnV06fRubUt+p9/SnljAzYvmUfkszvkPT9BuIRCrxnNCBhZibih1sSPqEj6pHqwtAuJ8/vzvUM9ppp8w3QTPc47OPCoUzeO127CIj0bJnxuxsLSFdhXoSH7ytZlqX55xn5qjMffS9Ptf0vS/0Nj8cAqIsqac7SiM3vLtmX6l9/h/nklOpWshlOp6jT5vAKNPipHb6kCZpfpzAYhf7t5L7Yb92KzeT/WWw1kvfUgEY9DWFdGqf3+LLLuISLSjelWHZlq0Z7p5h2ZYuTEuNLtGPNtO8brtWGcXhNGyvFHmVVmSvVqzGtVi5n2lZnjWpElvSuxblhV9kyvz7k19lzbJjphXzeeHHXnyanR3DwyjvtnFxPje0nK5egC8vOFfAn1wpHnH+H5inz1Nyc3ixMnjuHQrq2W853btuXWlSu8fPSQGRPGUdbEAP0vPmREn65Sw17j6aXzjHPvK+R/QkVzI7avWkqM10OynxzGf3Nfnk6uQ/C4isSPsSZspDUhYysSt7Q9sdvGsKVXS7qYfSKl2qfs6e3K/Umj2dK6Fe76hjh/8jXDzcuwoVFzFpavwuBvSuH20ae4/eNLXD4S/PlzBn1swDLDGuyq0oZN5Voy+G+mtPmgBHX+51tq/sWA8h+UosIH3+L4YSUmG7Zli00vDpr05LC+PBr1Y5+JBwdNB3HYfKikkKGiHQawW0rLrVJarpeyUpWW6+U1qy16sMS0GwsFi6S6mC+paLpZU2ZWasyK1m3Y3a8zK7s1E/KrSVCzYoqLITO6GLJ8oDXrRlZg59S6HF1sx7kNXbi2dxC3Dk8i5PFR8hJCULecUaVeQGSORrpnwS3yf1fyC1tqWjI7d26naZPG2vVtHn36EOLnS0RgAItnz6SKtRnmpb5g9bxppIYFEPr0IVOGDaLUZ/+gejkrDmxZS2LgM/J9zhJ5ZBIxW3uQtdGZ7CWNCZtUFa+R5fGb24bwXePZPMSRDuW/xtbyS7aOFkPZuJTVnZzoaGJIq1KlGd+kCTt79mBU2TJ0FP3R8dNPcTc2ZahVOTr94xu6/PkLxpewZo1ohtUVm9H3rwa0+OATan3wObUlOlQTfPfB17T7kxnjSjRkm0VHTpl2kYqhG2cNunNaKopzhn25ZOyhfSfgrGFvTkttf8y4G4eMu3DIpCtHJVIclRLzoCozBbuk5t9h4yIC056ddR242tud6PVLidq7hBfbJnB9ZS9OzW/L4VlN2TpO0kI/I6Z3LcXMHkYsG1qJffPtOLulP97Xt5MRKXk/J6eA/FyNdC/1yyi/N/nK81/LUkpqIps2baBhgwZaqTdyyBBiQkMJ8fVhzpRJVLYypYJZafZsWE6KkO93/zbjB3ug99Wn1K1anqO7N4pRPIfoe7x+sQdeboKnS+DsUFJWtsVvYm2Cl7gQf3g2+6b0xKWWMQ3LlmDFuP483L+Rud07YGdlgn2Fcizz6M/JWdMZWLUSjpKCeujpMa7Kd0ytWY8uX+vh/OdPGFTClCXfNWVF9Zb0+cgQxz99TXtJD10NKtJRrxxNxQA6/EmPSSVqsM+qHVdE7N0VgXfHqJN29u6OflfuixHc1ZNcbdCDB0aybNiV66WlvCvtKtu7cFed6TPswXXZdsnIjavWnTkt5eSxcs242sqB8KljyDu0kswLK0g+O5uok2MIPT6UwBMDeHqgO9e3iNGtasv3C1uyeWIdjq1w5cXFtaRFvJCwn63V+Yp8H83r/8Xf1fs1PD8uPoalSxdRs0YNbKwsmT1tGpnJyQR5ezFNav9KliZUsTTk8I71JIf58/jKBQb0cOPrTz6kQc1KnD+ynZyYlxJCxAAiL0DYIfDdCFIGJax2xmtCXUJXdiP9/AqOLRqCa2MbapT7lumjenNu1xoGt7elpmlpEZPlWThiCLtmTaF9WUsc9EoxpEJFZjaWcNu4OV31jHH46Av66pszv05zlotY7PGxPm4flmaIUSWmiEGMrtJAooUBPf5Wmll6VTlWtjX3pJJ4ZtqWF8aOPNd34HlpJzz1XLWrg30M3PAz7IKPvisvv3XGV904wqgroQbdCBAj8ZHHFwauPDftwD2T1mJI9blatS4POthLnT+WzBPzyLs4hwwRdokXRpNwbTSRV0cSKOXei9NDeHTEg1siBm/u8iDg1layY72FgKLkK+LlUcMPv75ViF+N/KKnd9VSeHgIU0XIVapUkUqi8lcsWUJuRjreT58wdshgyknOr1HWjPOHdonlBnLj9FG6Orfli4//im3jmty7sA/in0DiTfAXz7+7EE6PIndbZ0LmNMV7Yl2iN/aVengzZ9dNoLttVepUMGTS0F7sXbMA1+Z1qGL8Lfb1qrNk/EiWjhpMExGETb/9hp7lyjG0Tl08atam5dff0uTDz3DTM2dKjSbMrd1KI77nPwyYZl2L5Q3bMqtOC7p/ZUS/D0sxT78ip8o357FNKyG+Kf6mtgQY2eJroNAGP6O2+Js4EGzhTKC5Iz5GUnoa2hFu6kyEsTMhxur0rgu+Ug14mrflqWUr7pVtyPVKNThdpwoPBjgQuX4oOSenkHd5IsmXRhNxcRih10fhd2OsOMkY7p0dyf3TY7h/aiphzw6TlxwkBOQUCD4d+V5heQUGoPP+4iLAb0S+dCLQj+HDh2JTxobq31Vjw9q1Qn4Gj27fYlCvHtgYlKLxd+WF5ONkxYRy8fBe2ts240sh37VtExGBhyFGEb+P7AsTid7kQthCqeOn1MRzbDX8pjYgafdgSQf7ubp7Dv0c69KwsjnjBvZkxawJNKtRnppljOnn2o5tS+cwuX93qut9Q6VPPqLxtyVpaWJMI0NDyv3t71T9y8c4lrZgRNWGjKnUgA5/K0m/z4xYWKYO6xq2YXb1hvT47Fvc//4VC/StOVu+Ac9sGuNjLAZo04KksrbEWLUk2KSJEN1QiG9OXFVHEr5zIrRMC/yMGxBu3oIYKRejrNoSbu1AoJSSPpYt8asoxlOnNS/qN+ZUtTIca1WRR+PbkbhzEK8ujiHlknj82QF4XR7KwysjuHRhGGdODOXiSVH7V5cS6X+BV2nh4vlK7b8iMEKRnyvk5+sMQAzhdyVffb3I388bd/d+WFhZULdObXZs3cqrnGxuXbpEL9eOWAv59o3r8OL2JXLiQjmzfzsOzepR4pO/4u4mnvLwiHTsJKmX5+C9rA0PxlXCe1I1fMdV5vmYqvjNaELq92Mh/AIPjq9lkGsLGlSyYljvLowb3I/qZc1pJV6/bMYkbhz/ngn9elKldEnM/v5XrD/6EMuPPsLs448x++hjqn3+DR2sqzCyXiv6WdegrZDfp6QVsys3ZEG9lgwrUxmHv31Cz48+Z46JFccq1eFe+Xr4lG9IYr125DbtSGoDJ4IqNuGhUVU8y9UnsYULWQ49iW4saaFsPbzLiVD9TgRqHSf8a0g5WqE5d8s3EtLtCXXuQlCnzpxvVpet9aw51Lk2zxe4kXh0FHFi+P4Xx/FYcO3CeE6em8DxU1M4c2Yej+/vISb8Ia8y43mVm68JvkLyPcNevSHfW4j+HT3/Fb6+XnTv0Q1TM1MaN27EwX0Sxl/lc+XsGdwcHbDUL0m7ZvV5cecyGVEBHN+5nnZNamH45d8Z18+ZuMffS5m3meCd/Xkk3h4wszbZGx1JWylhdEYDvGc3J/P0TEh6gNeVA4zo4UzdCjb06CDK366llJKGdHVqx5GdW3l06QLDu3alsp4+NczMcahfn062tjg3b05nWzv62Tkws1t/VvcbIaKwMXafGuJepiZzWzgzq5UjndX9+f78F/qU1mdxte84XLcRV7+rR1AzezI6doOe7tCjP3FtRQRWrsE1KSkDWrcjo48HaaLiPZu34V7NhgTYOhHXrR/RPT24b9uOUzXrc6W5LS979CRw6BBudndlfcMqrJMUdmKoPc/WD8Lv2BTuHRnPlZOTOX9+DqevLefS7a08fHaCoJAHJCeHScTP0L4vo37mTkd+Hp6h4BX6SsgX9S9E/67kv3j+BCdnB4xNjGjX1p4L587K6lecOXIEp1YtsdArSWeH1gQ+uydhP4jvNy3Drm4lzL/5kJmDXUh6uJukawvwXduJgLmNYH93uDIa9opomteMl/Nsyb+6DNJeEHDnDBMH9KR2+bK0EmJric6oYGnBONEWdy5c0G6oNKhTFyrpG9O+eStWzlvA6UNHOLBzF0f27OPywaM8OHyay2t3MKZFe2xLWDC6uSO7xk5n98Rp9G/YiJof/Z0BUjlsdmrLmY4dOFGvPtdkfaBLRzIGupM/ejjpQwfh4+LM2Xo1uW7blMB+vUgYOwpPcYIzjRtyV+YjbNQwkuZMw3fMUO7068HjoQMInj2d2FXLCVg4h4vD3Dns7sbRUd24umQIjw/O5urBGVw5s5jrt7Zw89kRHvpcxjPoEeGxIaSkJWlXRGkXbSjypc7/Q8l/9SqX+/fvYNemNcamxrjKBN26fl3yUh6H9uzBrlEjbAz1RN13JtrvBRkRfuxYNovmVS0pW+pjlo3pRsqDHUSfmszL5e2JXOEA16dKfheyD3vgM6+VhMV2IgJF/Wf6EvboGjNHDKJGmTKUF8821zeg3nfVWbNkKUEvvXh28w5DuvWivJ4Jbm0cOLR9N+G+gQR6++HzVIzn0XOC7z7hxu4jDGjhRBNDG6Z1d+fS9r1c27OfMW5uVPnyM4Y2acDRsSO4N20Sxzp14IBolLt9RMVPHEH83KnEz5tOyLQJXOvdjUuCJ+NGEbpoAd4zp3PJvS93RgzGd8FMIjetIGjdEkI2riB+7zbSTx4h49wZ4o4fw3fXDh5sWM2dTUt5cmA1/ld28ezKNp7f34+n5zkh/Y5w8Ex48SY6IZrUjDTtAlD1FUndp3oZQn62kP9ay/u/e9jPycnkyuWLNG3WRPP8rl278PDePV5lZ7Nj40aa1Kotat+YiUMHkhzqR3LQS9bMGE2DsgZUM/yMLdP7k35/KxGHR/N0kRPRqzvDYyHeZz2v9nvwdLYtz5d0lHU7ISuIqOf3mD9+NFWsbPj6o08o8ekXONq15fiBw6TEJBD43JtJQ0ZRRsi3q9+UzcvWiFH4ER0ayb0bd7h+6gL3z17h9Pb9tK/XnDrm5Zg9aoJEjSvcOS8po3cvLL/6jOHt23F1w0qCDu/h5oLpnB4zkEeLphEiREXtXEvUrvVE7d2Ct+zzfN1KvLdtIvj7/YQePojXzi347NqC/6EdBJ7cQ/DpfSTfPk/u0zvkvHxM+vNnJD15RuyDJ4TdukfIretEPrxGrOctwj2vEOZ3nbCQx4RGirHHhAgiSExLRV0Loa6J0L69m5JDcGSqxpFnEcH3u5KflZnBsaOHqVmzBvoG+vTp3RvPFy/ITk9nzdJl1KpYmfJC/ryJ48iKCiHW+zELRnlQy6wEdS1KcnDxKLIf7iLi0BiezG1D1BLx8tuz4c4c0ta78GRKY3xXdIKnUgJmBxPj84SFUyZoXv+/6pPBj//BoH79uXvtBnnpmcSHRUqoX0QZQ1MqS/4e3m8gx/Yf4sblayyYM5+F0+dweMsuDm3aQWMpuWpZVWD5jHk8FRJunDpLTydn9D/8kDFd3Xh89BAZzx4SdeUcEedPkHzzApl3r5Bx9yqpt66QevsaaRL1Mp48IvXpY5KktE3zfEmm10syXgrBzx8SK4THPbtLpt9Lsvy9SPH1Id4vgKSgMJKCI4j1DyHG15c42R4b8IzIgIeEBz4kIsyL6LgwElPiSMtKITtfiH+dp313X3eJdrZGvp/6SDdUV+r9ruSrjqSmprBn9y4qVayIoaERw4YMJTwkjIyUVJbMnU8lqzKUMzaWkmwaebERRDy9x1T3HlQ1+JIm5Y05u0GE3IvDxB6bzDPxcv+JtWC9M2zsQMSM+jxTJ3hWu8EzRX4QsYEvWTJzCuXNzfhAyDcs9S2L580lSCZVlUApMTHs3bKFGhUqUurzLyhvYYVts+a0aW2HjZU17j16cWT7Hg5u3kllMxtqla3MlqVrCHz8klsnz9GlVRsM/vYxE3r35cmZs2QECFHenqRKRZPq602aPGYE+JEVGEiKjy9Jvv4kBQQRHyhRyT+Q2KAQ4oOCifMPIMbPT0Ocvz/JwSEkBQYTGxxGdHg0MZFxRAvUj0yGBAQS5i9eHuBJePBLosK9iY8PIz0zmdxXmYI0IT5dwr0Se9nk5L4S8nMIiUgT7iT0F5zkUWf5fjH5796Rqwj5BcvFka+auv1qYkIC69aswcrSCkN9Q0aNGCkDiyYlPpEZk6ZgaWgiXmjE6rmzhPxIgh7cYmzPzlQq/QWtqtpwdaeEeL9zxJ2ez+M57Xg4vBI+Y6oQNVsE1pS6PJ/ShJB1veD5AQkzMnmhPiybN1NEnrlGfrVK5dm7cxtxUVL/iv7ISUvhwc3ruLV3wqBkCT76y1/4VMq8Dz/8O3//298Y0KcfZ74/wvY1GzErZUi9KjU5IIYQ8dKfa0dO075RC0w++ZJZw8fgJdEgIzpWIzTcz1+8MogYITFOjDsuOJzowFAiBOqnWYICQggJjSA8IkYjNCwonFDZFirbIgLFGRJSyU3NJjMth+TUHBJkOTY5ncj4JCJj4ogRo02IjyEpKZq0tDiysmX/vCzx8kyBLOcnC+mpUlpna1+MTkrOIVTIVz+qqK7M1Z3g+YV1fvG3YsvCX4SE+olO7Wc6QzIJkPASlyw5XsgvPLWr7igdJ51eu3o1DUQRq3vGLlm0hLTkVKlJo5g3Yxa1q35H45q12LtxPfmJcfjfv83kAX1oWtmGPg4teH7+oNTvD0m4tYeH64ZybVobHs5tR9imvviv6cnzte6EHJY0EHxN+zJjXGQQW9evFm9ujJmRPj26dObG1UtkpkrnVM/yc0iKjWLjmlXYNm/Kt19/xYd/+wsfS71ftoyNhP653Lh4hR2btlKtQhVcHNtz/sQZITWcq6fO49auPXUrfceGpSsJ8wkgPz2LNCEoLiKa+KgYEoWo5NgEUmITSYlLIlmQGJuk/URsUlIqKSkZpCSl6ZAozwXqJ9fyMiVky+Tl56ovNr/W/SRtdp6E9Bztp2kzMzOF8EzZlqEjXcahPirPV5dqvVJ3+lI/9pzBq9e5WtRNkrAfGpEqXCrudFfmvjWAn3mVbnF34FSE+0v+UF8J1r4WHJIl5Gdq5Ks7jKg3V039gEBSfDxnT51i1oyZzJ09l4siml7n5YsnxvD93v1MHjueuVOn8VBVAOmpRPl6sl8U7tyxw9i+dC5xXg+lbgkizfcOfue38GjvNKl355JyayPxV9cRfmUz8Y9PiMLxFfLjSU2M4fqVC8yfM5OhAz3Yumk9wQG+4vTq4ndllhKXJDe+fPaYZUsW0sm1A02bNMK+jR0Txo/Tfq9O/ZLlxfMXGTt6DCuWreD50+ckJSTyTETYkoVLmTJpKlcvXdN+KUv9kqf6EWj1k7Dq1zUyxRjU8+xM9QPRoryz81G/EK5+P1D9PrB2xbWC6sZPQF2JrTxYu0PLG6jr9QvxqgDq7l7qXod52gk1yfja/CemZAn5KQQKf7qvbivCf+H1+f8O+WohJyuThNgYAiWvBUhojI+N0zZlpWcQKrnP56WnhEV/stTVqXlizeKhCSEBRHg9I0FyHMnRkBqlGUBW8H1SvM6T438Rou9qn/IR/RjivMVwZJ+sRPKyM4SUaHxEVD28d4cgyZVZ6hpA5VLqu+0K0rEsMTQfrxecO3ua/fv2cvzYUZ49far9KkiWeFlsdAzenl4ESG5WxGeLB6alpBEYEIy3l6/myerXv3PFO7Nk4hTByhBeaTdVeEuiZm8KalJ+CQpacZveonBJ9yavleAT8tWzxJRMqQYUlyp1K84UyYUG8BuS/0+bWK52M+b3m7qkSxuMaupRXCQ3Ter3RN1VqxlCcEaYEB0ij8FCdqhYV4zsI9vzZD/Jg3kSGtWlzJrrvDmWciXlbkJ84QUkaoo0j9FB997FN91NEeQ1hYdTTZa1n4DPFg8XqJslanfYEldVEe+nfq/3lzT10h+H+lv4JgpqbIp89e3ddEIiE4UXxWWGxtnvQr7q0tv27jNdk27/2GRr6xUUYUKW5DHdteqpsizIV1emymNmrKyPl/XqTWXda+m8KF11Hbt2MaiKmcoACr5DqDumQHNHRbas15Z1/Xu3P8X1uaCJ4b6Fei7/xTDUffW0e+vJ++pujqjGWLDPv9EK3qIY6P69GZcGHfn5MpZ4iVLBkQnCT5Lwo3Sb4u43Ij9Q1H+8RFf1+zqakxT2spimdVn+qO7+YJfC16kDKI9UXqzuTqEgQod8hUydMWgQ4pWBiMrVQrtKqupqYI14eb0iX/P2oqQXQuVLXS/Uo/riiYaC5aLr1bLqsfa8KArWqXsMayg4ZuGxdK97Hz+vFRJc/L+i71HQVxmfgrqhV4IIy5DIJOEnWfhJ10T5b0q++h1h9SPK6iRDYZQsisJuFtDwBrquv4c3L5BBFUDdxTtXiFXIE5LVvWzzxSiUmHulPeYIcoVvUbza7UuKEv1DKKH0Vjj9GHSEvpL9fxbE83Siqyh0pPxS6G7X+s9QYHDyT+uvWivzliCCL0RyvuLRT0rx34R8TUhoYT9bIz9L2FQGoE4xqrSnoCxRQf20rUoLarko8YV4s7/aR6BFbnleiKLH0qD2kz/ajyWL4FLKWv02b668UeGV4EWi8ztQ71eIwr785pA3/iVQ9y7K/ad4O6fao0C7M0dyrpCfLlxKqVd4OzaN+F+ZfB8h3z88izghP0Mir4I6lvb7egKpejS8ud+gLCsD0X6CrQDqeeG+RfdT67R9Beqx8N6FGtRxZL9CqN9JVFAfbGjGIxMiD78rpIvij28h3dEZvaDoeH8OtPH+TBTdX82Zuv1qaFSOFpH9Q3KEJ0V6XgHU8s8kv+iZvR8jX53lC4zIJDI+X5BDVHw2MYk5RCdmy3IWkXFZRBQgUrZFJ8i2hFwNUbKs7aPtlyn7ZBSBOmamtj0qPoOouLQCpBMZK4hRj7I+VvaJlX0E0XHy3tKHaA3q+D+C+DxB/o9AthX3mh+FjEGDGm+2biwF4/5lkPH+C9DNcUbB8xzConOEx0whXrgSsv3eEK/wCzxfka/U4luoMP9u2PdVp3glxIREZYnKTCcoIlUe0wiKTBWjSCUgvBBpP4Ki+/wEwlIKoJZ1CNQgNXgBgjSky7KEvfCMn0DmT6Bwn/ePoZ7/DKj3/ilo+xU9rnKeDJk3BTV/0n/Z513I+DTIeN9DUJH1QWrfMHUvnoL78QjZOs8vDPk/k3z1oY6qE9WJgrd4S75mACEKar3O+9Vr/UKS5KDJghR8NKQK0v5NpAvUBxVvoYxON0gFld/EWLXHApGjRaV/ETLWN3jn+bt90KHIfj8XMo+FKCRBfWai5vfd+S6EzsH+OdR+aj5UpH577J/CL/J8FfaV12tQd3qSN1L7qRsw+4YI2cGJMsBkGZiOeF/plLpi9N+DDOY9vNsv1c/CvhZ87lBkgL8c6vXvH6NwXXF4u1+xZP8Eih6/sO/vjq0QhWP8Z9DtX1zfisPPzvlaB4X8dw+g1qv9lEBUXyJIEahHea4MQm1TZIll//ZQHqQgBvo74t35+HehCCs65/8uftoAfpT899X+++RrHxNqIUbtp0KzzgD8JI/5S/70E2ie+s4xfkv8c0v/z0ehxxY3vn8Fvzn5Cir/KU+XvCuk+0fIvlIGKo/8/Qzg/8j/IX4X8nWCSD0q0v0jJPy+If/XHMxP4acH+t8BNYZfc75+ek7+DfKVaHm7/f/I/zWgxvBrztdPz8m/SL4QL+vUSZ7C7e+QH/5/5P9rUGP4Nefrp+fkR8lXX+N6/0A/JL/odoEQ/VZ16/D7kF84ae8O7r8Tvxf52fw/7EhuUIVZxf4AAAAASUVORK5CYII=;" vertex="1" parent="1">
          <mxGeometry x="507" y="330" width="113.46" height="110" as="geometry" />
        </mxCell>
        <mxCell id="enYdKQxFRi82km_zU35g-10" value="" style="shape=image;imageAspect=0;aspect=fixed;verticalLabelPosition=bottom;verticalAlign=top;image=data:image/png,iVBORw0KGgoAAAANSUhEUgAAAH8AAABkCAYAAACvrO9LAAAAAXNSR0IArs4c6QAAAARnQU1BAACxjwv8YQUAAAAJcEhZcwAADsMAAA7DAcdvqGQAAFZzSURBVHhe7Z0FfBTX2v973/da21tvoRD3BLfi7oQQiAAJBNcEd3d3d3ct7u7uEnd39wS+/+fMJhBo2tveW7n3/3kP/LKzM7Oz55zfI79ndmf2g8wcCItKISA0EX8NSfiFpuAbmiZIL4KMAmT+MoRl4heW9S7Cs/EvAr/w97b/Cii2L//xkL5rkDn5HVBAfqqQn6QR7x+aLBt+TfLfJUVBIz3iLX4T8sXoiu3PfzSU0Spk/y7QyA+NVOQn/1eSr45fLIrry388VL8Viifr14ZGfkhECoEa+Tr4habKxqKEFyW+sIM/E0KEX5gQXBRauM95gx9s/wUo9j3/q/FDkn4rvCFf5/kpGvzeeH1xlln8gX4RNOIU6ToUu8//4TeHRn5weHIR8lMLyH8/xP+KVlmE+P8j/4/D/zfk+yiEZP3Xo7ix/Vb4/8rzNQP4L0dx4/qt8AeSn/sGvqHKAH4KxRzjX0Zxx/9vRHFj+2X4g8nP0+Abqgzgx/DrDPQt1PGKe5//Jvw6BvCzyPfRIDlJXlB8aJJyrgh0hlIU7+6vK9OKeP+bwfwY3n39v4fijv9HojhyfwxFX1fc2HTwCcnGW9MQxW8vxD8lX0f6W+ILyS88ReiviJTt/rKvf0gGfsEZ+Ah8Q+S16rFguSj8FOQ1OsjxlNB5b5+3UNvex9v3/1eh+v3HIqcAue/gjUMUC+Uw0v/3oDuppaDjxlvmx0szAGUIb9e/j59Fvre8QSHekK8OGizkBKcLZP8geV1Qijym4CPL2rofRbq8XgylAG+OUcx+OhQY0Ruo930LzZikP/8cun01Q/2PgHIaMYQiKM5Q30A7YSZjeA9vIrSMUUEjX6KDt6D4SK3Dv0m+Ii9dXpNGQFgaQWGpBIXLo0JEesGyPKrlIghWiMwQZGoIisj4J1D7CMJluQgCC6B7rtteuK44aPvJ8YLfQN7/D0Hx7/9mnIXQxlQUhWNNl/EUQje2ANnuryKAGLcK+Yp4pa00FCG8KP5F8sUCZVuAWF1odA7hsblExecSk5hLbFIecck6xCap57lvnhciPkXhVQFey7pXgvwfgdqm2x6bVIg8eS8F3XtqSMglWiE+58dRuI9A66sc44/AD/peCOlXbBHEqDl9g5x3EB2XrSEqLkeb+8j4PMJiVOpQEUBSr3h/YUldHPEKv5D8wjCiIz84MpuENEjOhHQ5TlY+5LyC3NcFKLpcBHmA7PoGecXs8z7Ucd9AXpT9PuSgWb8QPzjGHww1rhzpV+7PQE6uDtkCNZb0bIhNRiKGhH5Jld4Slf/ZSaNfQH5hDtFZkiJfhaLoxHwy5Bga6QXIE8h/8oU0BbUsD2+gnhdF0W0/F+8f4+ei6DEKW+HxtL4qFDwvit+qFb63BnnyWq1QrWD5x1DY1KJ6rTIcFUVDJI36q89llDZSgvk9woviXyNfnivBovJPbNIrzWrF+N6QraB1Sj2qhSKtcP0r6bHCe5v/I5rWR9U/WdAmu2Ddr93en5sftGK3F/8i5XAJKflCvuR/IV8T08JRcaQX4peF/Teer5SzEnTp8oavNW+X/xoKvUd1sRBFmxrwKzGWfAWxGPWonv/ImH6Xpt46V8JnuuSulNRMMjLzJKTKuKR/eap/qs9qjL8yXgtUy5fHLInf2RLz84RFNR+aYfxgTtQK9aKCFxZp6hiJootCREwHCvkBqrIRnoojvRC/WPB5y3MlKHxDdEo+SXK+ytlvuiULr6Tn6rnC++2VWEe+DDAvN59ciVVZmblkSt7IlbyhTcaPvfCXtoLjFB6uKN5vauJi4xJ5+Ogpp8+cx8vbj+SUDDEIZQDSX9leSNavCdXUuMPDI3n0+AnPnr8Q40sjR4wgX+apaNRRM/paZlh6I88U1AHejkb1L0nIDy1CviolVYlYHPEKP4t8HXRKXysjVO0tnh8SlUlSuo581RVFfL704pWMTEf/e01tF+JzRankZOWSJaSnJKWSEJdEmkx2jiiXPJlwzfILx1cE2oSpwyoUWaczODl2weM72wvWFULzqPdajhDw8OETZs+eh6NjBzZt2kZQUJgWlTQCinnNr9XSJdKcP3eR6dNmMnfufGJiYsnOzpH3ljks8r66+SwYlAb1/O0Oal/l+aFSQhYlX0d08Yr/n5L/AwPQyFdKUupUIV+p/Rx540yZwPTMLLKysmQys4VkpQJ0TWfpspN6VJ4vXp8tb5wqYSMmMpawkAgS4pNk/dvBaE09LTJeNUCNQPVceYY6lqzQqgFBtuyQp3ZQhqMsUrarSKOFWXmqvVbwfstIz+LI4ePYtW7LV1+WYNDAoTx98kL3Pqq9/xr1vKBPP9qKblf7F+K9liUyfc/OvbR3bE+3Lt0JDAiS+ZMc9N6+r7WOF6784cHU2BKlJA4R8lXOV5pMF/YV8YX4F8jXQR1Ihfy35AeKsoyRul0OQaqEbz//AB4/eUJiYoL07e3MqMV8SZ7aKumkIi09NYOI0AhCxcMC/YOJjIjRvOCd8RXs/6ap4wjU65XQUEaUKysU6VmyY4YgR5YLtysV9ErLoQKZnXfmr0hLTU5ntxBQt3Z9/ueDP+PSoRN3bt2T1xbs8M9accct+lwZY2Eke2+/PKmP9+3ah2NbJ9xcuxDgG6CN6wftzesK3kyNUxuQrskwSUgWtR+RKVxmFJCvSFakF34u8C+TrzMAH3UG6Q35WcSmSBiXN08RsXTn7j127drNpYsXiY2JlhCutkiTPioPLByAMoKkhBQ8n3vx9PFz7t15wNOnL4gKiyI/XV6TIbOeIh1LkuJVIVWeZ8qLMyUUymS9ypZHQb4QrAatjC9LkKEeZUJUNHgtG95AhVD1/mryiyEgWgxv1Yo1VKpQhT998L+0bNaKs6fOaV75TlOvKzxGUTILoFJVvkTAVyoUqe0F+79Wzwte80q256nCvMCwMlOz2L5lB21bt6NLpy74evuKBhJTVv0t2tTxVUoVlZyflyuPypne7qPsJUHq/BCp8wOEq7f5/lcjX1KAkK5yvnoMisoiQeV8efM0IeXe/QesWrWKaVOncvLEcSLCw3VW/N44lMqPjYnn/t2HXL92k5Mnz3Lx4hV8X/iQFZdCWlAUCY99ib3xhNjrT0m+503qsyDyI5N5JcbwOl0GLryoyVbjV++vaFLkS+zQ0oDKma9UtFHWoSZSg3pzgSKiSPPx9GX6lBmUsSzDpx99Su0addi1bRcJsYm6HeQ1aRIdUhPTSBR9EhUWTUhAKEnxyXJ83S6K8GQx6JCAELxlHCqiqbT2hmx5z3Q5RrBEuZfPPIkIidSMQh1z8/ottGnVRjzfTebkPl6e3oSGhJKakqqLlur4Mp6E+HhJC/74+fqSlChpUo1Nmpret+RnF5CvzsUUEv+bkJ9Nosy48jxV64eGhXPw4EG6uLkxwN2ds2fOEB8br3W8aMuTCYkQb7tx8y4XL13j8OETnDl5Hr8HL8kJjCX4zG3uLtvBpbGLuDhqAfemruHpwm1kX3wCXlEQKRYnNa3GuJr8AkJVmi9I9VIy5WtQYf8N8dpG3b6FXqnag9sPGDl0JOWsy2FpakmV8lVYtmgZoUKwatkSAR7fe8zta7e4eOaiFqZXL1/N5fOXSUlI1Y6VmpjKvVv32bh2E9MmT2ftyrXcuXGHNDGAHEmJWWlZPBRj37B2I7OmzZZj7CdW9I4yiF3bdtPWrp2W97du3sayJcvYtmUbD+8/lGpIxTQJgEL2xQsXWLZ0CQvnzxenuS7rxBkKxvAu+boPjH5z8pXnZ0kHlHGnpmVI+H7GxIkTqFunDsOGDuPc2XMkJ0mvijSl6EPDozgvxH9/5AS7dx3g7PHzhN71JPWWNydHLmBdo65sruLEjqrO7KvWnv21XPAavICU5Qfh2G14EgIxMjFarBdkK8YVuSL6ZCZyRXDmSqH+xgAUNB1QYACKfGU40pfLZy8xoI8H1St9R+tmtlQpV5npE6fhLWlJGUh0aBQzJTJ079SNdrZtqfNdbcwMzejeuRuP7j0SYqUKEm+fPX02VmbWfP6Pz7XHUcNG46WOIe/j9cKbcaPGUcaqLF988gW1q9dm/+4DmgEc3HsQ2+a2WsRp1qQZ5mbm1KxRUyqA6QQHyTilr5cuXqJ3r14YGxnybcmS9OrZi5s3bpEmRqXaH0C+5HwxfEW+dm5dSpSoqCiOHT1CZ1dXWjRvwYhhIzQDSE1JeyP4ciRMBEnYO3n+Cpu372Xjhh2cOnSWwIuPCT9wnb3Ow9leuQNHrRw5a+3IFSsHLtu0427tbjxtPQiv3lOJnLsZTtyC52Eg0YLoFInNMhgV86WMfCXE5wty1YkTwSvtpLnMkCJcka+gJIk8P7TnIG7tO9GsQVPGjxxH7Wq1GDloOPdv3tP2CfELZoj7YL6rWA1LYwtM9U0oKVVBVdEIG9Zs4LnolpPHTtFBysTP//EFX332Fd98UUJCuT1Hvz+qpYptm7bTukVr9L/V56vPv6Z0CT2GDx7OHYl+O7fuolmjZpQuWRoLMwsh91uMDI1w7ejK5UuXtei5eNFi6tWtK9XIF5T45huqVqnKls1bJYJGyyD+APJ1gu+15nTKqbKlRElKSsLT8yUrVyyX0qk1TRo3YdSIUdogEuISJAUINxIGPX0C2XvoJKvW72DF8s0c3HmcF0dv47vxLJsa9mGXtRMXTJ25bebME1NHnpk78tDcnodlHblXsxOP7NwJHDCTrKW7Yc9ZuHhfDCFIxIRYY4p4gxJrMrhXWVIzZ+eSJ8hXBqAMUEHVhgXYIqG6vb0TnZ07sXvLLlo2akGfrr0lGp0lR4RsiH8IfXv0xcrUSgivipO9I21t7SlrWZZxYizHJXptlHDeRIynXq16dHR24bvK1Wlcvwkrl67E56UPQwYMpWHdhrSSyNJJqokqFauKyGsr3r+f9avX07xxc418Jwcn2tm3o0rlKjRr2owd23fw+NET3Pv1p0H9+uJQzejYvj0Vyldg4oRJPBP9IKMoUPt/gOfLITRHyhZPS0lJkbItgtu3bjF2zBgaNWhEg3oNGDNqjISuy8TFJpCelskLT3827zjIYiF+8aKNMulHebT3Gi+WHWP9d93YZ+LELYMOvDDsQJCBE2GGDgTq2xFobMcLs9bct7LlfjUnfOzdifKYTvyMNaRtOQxXH4F/BIhwJEV93JhNfmY2uer0qUQmbaYUtHD1ihzZZ/n8JTjbOTDcYyh3r96hi7MbnZzEELbuISU+lbDAMPr06COaoDxuLm6aQFu/egO1vqtFz6492SFqXSn23t37MH/2fE0sdpGyTRmDyv+3RCs4tHHArqUd82bNk2hwjIH9B9LRyUXL98pAWjRpQfkyFVi/dj3r1q7D2cmZ+vXqs3TxUomkx3B0cMTVxUXL+bt37aRRw4YS+ntz9eoNrfxVsuZ3Jz9eneQpID9X8mtqahox0VGiVkNE8Z9ggMcAKlesrIWpkRIB1NmsCCnpfPxC2LH3KAuWbGDRok1C/nHu7LzKndkHWVG5GztNOnDZQDzcqDO++i746zlrRhBk5IC3YWue6DfjgXEz7lm15HkdF17Y9cOz61hCJ68kZ/95eOQvCjQerYPKCMQA8rIkGhR6vhIpQn68KPcZE6bS3s6RWZNmEOgZwPABw3Gyc2Ll4lWi7GMIC4qgb89+1KlRVxNrfl7+PHv0XFPoTlKfb9u0TcTePY4eEgO+/0gL5R79PGjcoAnjRo/j9InTtGjagm5u3bXlZGFJ7btUROUVqXJWr1hNM/H8po2a8vjhY+7fu8+ggYM08mfOmMn6detp2bwlI4YP58Z1cZDnz2kvxuHk6Mzx46fJEQL+APJ1gu9N2BfPz8jMlPyeLN4fjq+Pj1jpbtw6uWFibEL5chUkfHlwVMKkp3cg1+8+Zf3m/SxcuInNaw9xacN5Lk3ew6JKPdls3oVTxt25IXhi0JWXep3xMeyEv2FHAowcCTZuQ6Bpa/zNW+Fn05rn5dpyr7wjl6t34I7zUKLmb5VU8BCCYnQGkC6pQJ0504Sfyj2yLELF58kLhvUfhEtbZ9avWEdYQDhjR4yjdfM2zJg8C1+JUOFBkfTo0ktCc0tR+WuJiYgVIeeNa3tXzQB2bt1JSmIKGRLRvF56sXrlalo0a0G9OvWYMG4Cu3fulujXkH59+nPpwiUtCsVLBIyOjCYmKoYtm7Zg29JWC/m+Pn48eviI4UOH07RJU6ZOmcr8efO1COohFdTRw4dFQ53F3q4NrW3t2L//exF9ktr+KPIL1b72yVR2NtlZmVKGJBIt4u/u7bssmL+AOrXriAGYUq1qdbHqIezdf5gb956ybfdR5sxZy9rl+ziz+gynxu5iTsXerLPqxfdmfTlv0pfbhn15pN+LZwbdNSPwLe1MiH5bIo3siTGzJ9LUllB5DLJ04lkZJ65VdOKOaIKAicvJOnoFfMPFACQ/CTlIRSJliUA6np7J9TPnJcy7ULtqTXp27sHS+UtxbONE9co1GOw+VMq1e4QHR9K7Wx+N/JVLVhMVGo2/eL8K+Yr8LRu34uPpw/Gjxxk4YKBUOnUpXao031X7jimTprB963Zq16qtRcHr125I2NE1dSJHVUKbN23GtlVrXDq6EBQYJDn+MSOHj6S5GNCUyVPF+2dRuVJlyfPladWyBW3s7DA1MaH6dzXYvn2XpNrMPy7sK8+X0l0cq7C8EiPIyiIhPoEAvwBOnTzF0CFDRcRUxdzcklq16tKrrwfL1m6QvH+AefPWs3bZfk6uOMOx0buZXr4fK6zc2W02kGMmg7hoOJjr+h7c1e/Lw9LdeV6qE36l2xMqaSDSqB1RhnZEG7YlxtiRIDNHXtg4crdye+7b9SdozEJe7TsDt59CgFQGMZIKEhI15Av2bd5CKwm3hqX0KWNhQ4Oa9bAxscawhD6dnVw5J6IvOiQK9179adPcTosOceL5gSJY+4oOaGPbhuVLlnPk0BEGDRgk0a08lSTNGRoYUqtmbaZNmcb2bdupIUQp8m/dlApFmnbKWZCSnKKpdjvx4o4dXAgODObJ4ycS4oX8ps2ZKuTPnjWHiuUroq+nRxlrazGESlhZWooh2PL990fE80XXyPz/ruQXqn1VMamcrz5U0T6N0k5D5svAkrWwpkLhvr376d6tB5UqVcXE1IKKVb/DuXNnJkydzaSJC1m1eC8nVpzjyKj9TCzrwSLLQRL6h7PfdBQnDEdzVm8Yl0sP5Fbpfjwq3QPP0m4ElO5IWGlHYkrbk6TnQLqeE4mGjkRbtsfLwp6nVdvj5zCQ+DELiF+wnrzDYgSSqwlTRhBDnmDV3HnUEQ/97JPP+PzjzygpZdpXH37Gp3/+iFYNmrF/624ixWg8evbHvllrNq5cT2JkPIHi+b3E8+1bt2Ha1GnMnTNXRFgjLcK593eXKqcpjRs2ZvKkyezcsUsjv78o9hvXb2ikq3lRZ/EiwiOE/C3Yt2mrlXbK8xX5w4dJ2JdjKOOZN3e+eHl1MaaadO3ipuV+pQnmzV3A/fuPJdqqD7T+APKjk19ppbO8t+6TM+18s+D1azIzMjTLjo2J5eULTwlvW+gg1l2mbAX0JQVYSRhr1Lw1nTu5M2/qeo4sO8PB0QcYXW4AM6wGs8JyJJstxrHbZAIH9EdzXG8oF/UGcUu/P4/0ekoEcMOnVEeCJQ1E6bcnUaqDeKP2RJu2J8DYnoAK7Qlr1JOQdh7cb9MD70ETSVq3A0R94yOC0D+ARTKRDaVsMtfTp5KlNdXLVqScsTnffvw5jarWYN3CpQS/8MFdiG4updoqeR4bGoHPc09cnTviIGXZ6FGjGTxoMDWq12DyxMkidE+Klw+kZYuWUo5NZP++/dSWKNCzR0/tZE1GeoYYwU327N6jRYK1a9bh2M5R00aK/KdPnjJMcn7jRk20Ez2LFi6SMq8B/fr25fixY/h4e4t2uCjC8IHYcLx2lu8/i3yB8v4sUdkqr0WGR/LypSerVq3F0akjFtZlKKGvzzelDCVM1mNQ70nsmP09e8Tzh1UYxDirQcy1GsVyq4msMZ/CZuMJ7JUIcNxwBBcNBnNTrx93S/XgkRjAi9Ku+Om5EKrfgQgxgEhjMQCz9kRaS4lYph3e5ey4W6455ys1EzHYk7BZi8g7dJxMqTwmOzrhKJVILwcHVsycxS4ptRZPm4mdlKcta9Ri3riJ+Nx7iLtbN2pXqMwMEXC+z17w5O597FvZ4tK+A6NHjqZvn740bNCQ7w9+r52fV2nOVrbPkmOePnWaurXrSk535cTxE4SHhTNfvNm+jT3Lly1n3px5WinXyaWTdkbv+bPn4t0jNM9Xr18lAlKRP8DDQ4zlphZR9+/dx9kz5wgVQ1Qh/w8J+z8kXxf2tdN54v3q1GpmRqZ2lioyIooHDx6zZt1GOnbuglmZMpQ2NMPUuAKNa7VjsNNY5rguZHj14YyuMJRJZUZIBBjLPMvJrLKYynbzyRw0GcdJo5Fc1B/M1dISRkv14k6prmIEnXkpRuBbugPByggMnYk2cSDGpA0hpi3xtWiOV6XW+LXqSmifEYSOm8FTKe3mtrBlnOTOHTNmEPHgAZkSin3u3GGKhFXHBg0Y3acPDy9dxqNLVypbWNGtQ0e2Sum1etkyKkl+d+vUSSvHlNBToVkpfRXGFZkNRaErpX771m2NaEXmpAmTJA3spItbF+0E2KqVq2SfBdqJHTeZk7DQMCnlXkhZrARfcwnt8zh44KDk91ZSDTiydMlieX4Ah7btGDJ4KLdv39c+qv7dBV9x5Gvf5HmlPm4UFaB6JRvyRASmicKOFwEYHBLGXamFN4oC7tKzD+VFVevrWWFuWJlGNi3pXLkLPct1Z0C5vgwvO4Cx1sOYbDWOhdaTWW81hZ2mEzloNJaTBqM4pz9MjGAQV/TECEr35p5ogSd6XfGSiiBQ34VwMYAYQ3uijVoTa9GG+AoOxNfvTESLrjxu4cqZFk5saNiCXV2knNywAfz8kDDF6/BQts6fQ8dmjenhYM+5A/sZ2L07ZURhl7eyolnDhtStVQtjQ0PGjB7N1q1btUclwjqKcXTu1Fk7A1etajWmT52uefJI8eSakvfVOnX+vmzZcqLa7dktoV95fxsp3VRkCCoQfFrOl1JvwfyFPHzwkL69+2g5v1HDBji0a4eFuYXk/cES+h/pPtmUef7PIV/7vFl5vy4IqK9uxcUl4OXty/3HTzlz4QqLlq+mraMr1tZVMChlTblvxQD0G9HW2A43K1f6lO3BoLIDGV12NNPLTGSRxSTWmkxiu5EYgMFEjhmMFyMYzWmD4ZzXjMCDO/p9eKzXHW99N0kDLsTpO5Js0I4siQK5lo7kVGpPQkV7ntg05lKlxpxt0pY7/QcTvGoVORfPw7MnogWkbFu3kp4OUn61asr+TesY0KMrlWysMdLXw0CvNJ9//hkVK1dk0+ZNXLl6mQUL5ovSL4uZqSpnq2JjbSMaoCbjxo4j0D+Qndt2SFnYmtIlS/HlF19ioG/I4MFDuHzliqaFnB2dtWig9i0s9Vo0b8nypcuJiY5h8ULduf2SJUoUqH4bFi5YhL9fkMy8jvzElF+JfL/QdNnhhwbwi8jXlL9iXxcE4sTzb0rd//3RE2zfs5+V67fgPlDlNjuqlavNd0Y1qFeqNo1LNqCthGsXKxeJAn3xqDBCosAYJor4m2s2iRWmU9hkLCWU8VR2iTHsNR7PYaNRnDIYyiUDKafEAJ4YdMfXwE00QEfiDduTauRIunE7Uizaih5oiZdJI7yq2BFs153wnkMJGTaOgEnTCZOwnXToe+6uWsHiPj2Z5NqBE6tXMNLNFdua39G8Tk1aNKhLjSoV8ejXi9s3r0l55s+RI9/j2qkjVtaWtGljh4tLR3r27MkCCfsxUdE8f/KMGaLcG4qWKGtTVgvjO3fuwl9E5ynRBKNENKrKQIV9L08vjVj3fu7s3b1XyuZsLorAGzhggJTLlShXtizdunbj/LkLJKlv0EpTOf8t+Zn4hQj5If8G+X4a+e8awD8jX+X8wrD/hvyClpaeybWbt1m+Zj0jx0+m/5CR9Og9kN7dPejq2B37Gm2oW6oG9UvUoql+Y1oZt6adRSc6lnGnR5lhDC07gYllpjHLeiaLLWazQrDKYhbrzKez3XQSB43HiB6QVGDgzm39njzR74KfvivhmgE4SzXQjngDO0kFrYgya0WylILYe5Bi1xPPBm25UqcFl+2dud3Pg6cSru/Omc3NhfN5smUT04TYfrbNmT1iELvXLmfrqiVcPXuC2PAg8rLSiIoM4cSpo8yaO4PDxw5x6eolrl27woN798iQlJeRksaDO/fYIHphzuw5HD50RIRfBDnZOYSIzrh27brk7zu66ig6lgf3H3D54mXNENSnkurz/KsSJVYsXyavn62p/XiJpOJjWiv0/OBw8Xp1sUZwlnY18y8mX4eiBvAu+RpkfUBEpka+qvM18hXExV+rOK9CfoHXq6YWk1JSuSrkr9uyjQnTZwv5o3D3GMH0sTNZMmE+4zsNE7KbYKtXn6Yl69OoREMafmtLU0NXHC3607vcGIaVn8a4cjOZaj1HjGAec63ns8hqHmssZrBNosIBk1EcNxokaaC36AAlBDvhrdeRUIP2RBk4EKlvL2hNlJEtiVZtyajSnrjK9viXbcKjCo142qQdXq49edF3IM+Gj+alGIHXggVs79mdNb26cXnNMmLuXCPuyV3SA70gJQ6yxfuyUshMi5PoFk5KegKZuWnk5meRl5cjTiDuIePPEuNXp3RDg0NJSUrRxLByDnVuRH0ukqtOO0tT30dQhKvvPWrfRVBN9stIT9e+HhceFqadRFMtL++1ds2Beml8EgT9VuRrNz0sNIAfIV99qVAjXzOAAvJlUX3WHyBlzAkpT1Zu2MTUOQsYPXEGkyfMZtviTeyfu5FlPSbiUdae3qa2uOo1p22JZjT7uhX1S7ajhYTwjhYDRAeMYUj5qYwpN4uJZecxtcxCMYKFLLSaxUqpCjabj2Gv6TCOGnlwRr+XVARdRAi68EK/PT56baUaaEOAnh1BBq0JkQgQYtSCUPMWhInYDKtqT1xzNxKc++Bj68K9Fg7caduBR116cllE3FWP/jyfO5OInVuIOXqQhItnRCR6itKKhoxEyJHZfyXuRzo5CPlkytDzBBIFZV7UV9pypPTNycjSPmbWJLqan5/T1H5qbsWpNC1V0NQ0q5CvbCQ+6fVvTL66ClTWKQMIiMjQyJdD6IhXKPyjoMhXnRMLTpCw9UBU7MGjx1i5cRPzlq5kzqJVrFy8ngvbjnN6zhZWtx8lYd2ByTbtGWHuTF9DRxy+bUv9b9pQ5+t2NCnlQjvj3nS1GoF7uakSBeYypuwixlstYorlTGZZTWKp5Tg2Woxit+kQDhn1Fx0gxInh3JH6/0Hptjwpbc9L8X4fgzZiDK3w+baZGEBLYq3sSansRHa9zqTXl0hRrRXPy9fjYcW6PKnTlKct7PDq7IbfYA8CJ40neOFc/FcsIeXwQbh3S1xOjCBexFdmlAw4joz8WNLyEkjPTyNTIkBOXq7Ok5VHq+8YqIlXF9i9mThBca1w/Y9tl6amWg5NvKj93yzsv0++f/gPydc1tSTQDEBCknh9eHiE5Ptb7D9ylPXbd7Jqw1bWbtrJ3s37eXLwEhenrGV98/5CngPrbDqxwqoLc827MNioIw4l7Wn8RUvqfdacBl/ZYaffCVcLd3qXGcnAMpMYIiXgSMsJTLAaz2zBcsvxbDQbK2JwuAjBwZwx7C8G0EPSgCt3JQo81XPBU3SAZ2lHvEvZE2ygRKADCdZOJJVzItrSljCLZgSZN8LXvB4+1vXxrdyY4Mb2hDm4ENGlF2GSFrz6uOM/cgxxS5aSfeiAGME1CHwGsf7kp4eTmxlLhkSETNEEumsZRA8p8sX7XxWSr7xfTZ5CYSuYvnfa+8+LNLVJhf2E3zLn/3zyVZNnWgSQlChqNViJmhs3xfOPs33/AbbtOcCOPYc4e+AUvgcvc330MvY06MM+yw58b+rKPlM3dlv0knwu5Z6pC64i1pp/04zaXzSgzpeNJQrY0c6kM12t3eljPZSBNiMZUWacRI1JzBVjWG4+lY2mE9ltPFYMYLhEgAFc0OsjBtCLB3o9eabfnRd6nfEu3RH/0k6E6okeECOI0rcjSq8lMZJ24g2akWDUlATjRsSaNiC+fFMSa7Qkvl4bwuq15nnNptyr25wnkhr8pC6PW7OSzDNHyH1yk/wIbxE5keSlJvAqO0NyeI7uQy/l9RnZwpbMmBCmg0xSoRH80yb7FdN+c8FXSL5a1sgPS9fIV5/qqTG82y15VrBCU7RSwtwQNXvoxEl2HTrM/u+PcezIGe6fuELY/kvcHTKfo7W7c86iIxfF288ZdeaseS92lunLXJueDBPV31lKtZZCSv1vGlLr6/oiBpthq9+W9qad6W7VF/eyQxlZdiyTy0wRITiDZRbT2GA6mR3G4zhgNJJjBkM4pz+AG/ru3DPoyyO9Hjwr7aYZQJCeE+H6jkRJWoj5tjXxguRSrUnVsyVNvwUpBmIEUh7GmtcnQqJBgElNnhpU4YlVLfzq2RHSqRfho8YSOncO8Xt2kHbtAq+9XkC06IG0dN1HyeqLjgrqmnaFTPVcWFNfKv2h9/xIK9ixwLEK2+8j+IqSH55OTMF3+H6UfIE6w6dq/OdeXpyXkubY+QucO3ORG6evEHD2NvF7z/HYYwZnqnfihpkzd406cMvIlesm3Thu2YctNu7Ms+7DCKuudJHtbQxtqV+6EbVL1KPuN3Vp8m1j2hi1FUHoRi/r/gwpO5pxZSczw2YqCy2nstJ8MptMJ7DbaAyHDIdzRlLBFaMB3DTozX39bjzTc8VXBGGIgRMRevZESVSJKdWWuFKOxEtEiJd1MVIhRBi2IMi4CYFGDfE3rIefYV0CzBsSWUWiRcvOxHUfRNLYqSTNW0zAvIX4rVxPwvFz5D16CeGxkKq+WyhCT93NQl3nliIRQH0ZQilmNYGK1/fbu5MqTQsVgoL5LWg68n8HwVeU/MIvcL5LvlpSnRPIgFQ5kyGhPyQykjsi+i7eus3tq7d4duEWceelDt55Cs8+E7kiZddDk3Z4GrXnmWFHHhl25rJJL46aDWCz1UDmlXVnRPne9CjXCXsbexqZSAT49jtqlqhM3W9r00TCtL2JM50s+0oqGMFQm3GMt57MLDGApRIF1ksU2G4yloOmIzgpgvCCCMLrhj25L4LwhWgAfwNnCf9tiRAdEFHKicjSnYgUfRCh155QiQr+BvZ4iuH56DeXiqEp4UbNpGSUVGDRiqQa7cl06AeDphDfZxQPO/Tisktf7o6YRuCaXWRcvkvecz9k0iAkRiKCqLNkRb5MlSJfQSKAdm3h24l8M5W6phZU2Sg7vxbxqJS/rFJr3yVfOPtPIV8tqs/6Y5OSeCLef/PRYx7deYjn1XskXX1E+t5TvOg/juvV2uJp2kLUd2uCDdtpZDw06spl0/4cthrCxrIjmFdxJOMrD6N/5YF0KtsDWxNH6pVsSs2vGlLzm8Y0KNlSUoMjjpI2upr2oL95H0ZaeDDdZjgLbUax0nokG6Ra2GExVHSF+rKIBxeM+3LTSLSAUTeeG3bCy0Bg2E2I7sULQ0kNhl15bOjGAzHIu4ZOPJZqwVPSQZAYQqhBc6KNmhNZwYnYJv1Icx3Hi6Y9OF+9LYer23HKtgvPR8wkbMlWQtbtJ2r3KbIvPYAAiQRJKvTLBKnQr75ZLOnxtfaFPFkuKJOV47z5oEw7nSbbX8t+r6R6kP20qlqtlU068jPfI1+RXojfjXzVK3lUfZYHRX5iaiov/fx4+PIFL588x+/OEzIfeJJ77AJeQydwr5YdwRJGYw0akmjYkgQRYEEmXXgm9f1lIeyA1VjWWIugKzeF8ZWmM7TqVLqVH05Lwy7ULdmW6t+04LuvGlPzy0Y0+LoJLUUTOEm+7iZaYZhNNyaX92BWhSHMLzecJVZDWWk6mC1mQzkoOGUyWIsE14TwOyZ9uGvmwW3TQVwz9uCSUT/OG/XmvBjEReOu3DFy4bFeO7z12hBi2JpoY1uCrdrjU6k7z6r05Jq1I+csW3OuUhvutOhKzNBZvOw1gSsdh3KxxzheztkE1yUVRIsOUNckKgGYLSEgS9KBiEMpjzQDUGdI1cfi6vo8RbYoR5lL2U8eX79Sl3HnyhSLccgUa7dlSXol5Asvb8gXvEd4UfzG5As0y30tdegrMrJF9UdE4BMYSLBfIJFe/rz2C4Frd/CbMpM7DaX2Nq9JnEld0kyakmUsudesE35mfbljNoTTqnyzmMoqqeln28xjQrm5DCk/g97lJuBiOYDWohOafGtHXakG6n5Rj/pf1qTJ19WxK1Wfjkat6GXhzOCy3RhVvh+TyrhLWThQ0sFgNlkMY4/ZMPYbefC9Xm+O6ffhmKEHx4wGSaUwkIOy/oAIxEMGvThu3Iurxt1EK0ipKDoh0EBEopEjfuaduW/enbOlnDkjhnFe0tedKq4EthlISu/p3KjTmVNVnThUx4Uz7Qfhv3grPPPXfa0sWVJAhkh1daYwR5ArAjE3k9d5ObxSyFdkK9LFOF6JccjjazGA/HyJAO+Qn/+fQL5yd1mjkS95SYhXl02pq2cTk1OIioklNjJKKiFRwrKMpyfh69bz0KUbTyvXJ9SqLolmDcg0biqG4EigSXeemAzgutkYTphNZbf5HNZYLBYxt1jC+WLGl1vAyHKT8bAeTDezHjgbtqd1aVualmggEaC6hobf1KR56fo4mLSks2U7+ll1ZJR1N3l9X5aWGcR6yyGsN3ZnoxC/Rb8vWw0HsM14sIatxgPYatCPXYZ9+N64j0SBXtzSk3Cu30VSUxfCBS/FKK4ZidGUFJL1O3FRjOFBpZ4E1PcgpPFA7pbvwBWbdpyq0IbT9TvwsP8Y8g+fEAN4LGIwQOq0CDGAOPF+MYasBEGiRPcUMYA0IT9dplGRriCG8Z9PvvJ8WauRL8SL4lctOzNbu/o0RfJ/WnKiqF+x+KgwUs+cIGTyVIKcOhFeW0J+2YZkmNQnzrg1ocaueEtefmA8nMtGEzluNJu9JkvZbLqSVRarWWyzWkL5AmaUmyQqfziDyvSnu6UbTiZtaKbfQMRgDap+XYkq31SiVqlqNDKshb1RI7qY2DLYogOTpZScZ+3OQnN3lph6sNxkIMtFEC6XaLBSUsIqSQ+rxfs3SfjfY9Kfk0Z9uVK6h5SKvSX09yVYrz+PDQZwXsrIY3r9OGnYm3NmPbljJZpBjv3Cyo2n5h14bOHEoyrOeLbsSmj/EaQuXUr6vi1knT1Ezh2pCjxv8zr8BbkxPuQlBvFaO1uoO2X8+pVEhDdQEUBFBBX2tWnVneSRslvdzFGRr7vjaPGkF+I3FnyyVn20m5enXTunVqkzXNnpmWRJ/s9JUxf6iTUni6U/fSSqfxcJ4ycR5tyZqAa2xFVQUaCplFP2eEv4fyq5+I7hYC4bjOG04XSOGM9lr+kCdpgvYovVbDZIfb+i3HjmVhjJxAoDGVymO93NHXEyakmzklIWSgSo81VV6nxTlUaybPtNbTqWbkJvE3sxAokEll2YaN2LKdb9mGo9gKk2g6VcHMxsiSjzLcUgpOrYaDqAfRIhTkl0uG7gLpXCQJ7qD+Sq/mCOCA4bD+WY7HNKUtUlk54iJLtwS1+IN+3ES+tOBNfpTlr7weQNHEfi8JEEjRqE75SRBCydTtieVURd2kPsk1OkBFwnO+aJRINAcetImUeJCK8kPbySOVMRQBN9OodSTZ3keXtzhsJLtIsnvRC/MfnSI6Vc1S1a1GePEvaViaozXLmpEs7SxYoV+Sli3cEyyKtXSF+/jtDBg4l27URcs1aEVpeyqlxLAss44W/dlZdS+j0wEDGmP4prBhO4YDCVU0YzOG4ylSNSz++xnsDGcuNYXnE0cyoOYXz5PmIEbnQ3c8RBSrQW34oW+Ka6aIIq1P20Ao3lsWXJmthLhOho0ooeItz62rjhXrYnA8v1Z1j5AYyuMEjE4hDm2gxhmfkQNpsM4pCkg3Mmw7hiMkL6MZwTgj2GI9hnNppDFsM5JoZyRqLVJcPuXNfrzCPTbvjY9CC2Tm9eOw6AboOIc+7Is5aNuWnXiLvdHXgyuT/P1k/E9/QKwm5vJ+rZ9yQGXiQrTowgS7RRvqSFvGSp9CRavlY64D+MfJWBXiuPf88ctKY+flKr5EGrTTIkfIkG0L5HHyX5/8Vzso8fJmT2NKJHDSGxb3di2rsS0cyZmIadCavqRoBVF7zFozyNBvDMYCgP9EZwR38MNw1HixAbzRnTURyyHMHuMiPYXF4UvUSABSLwppXvyUhrV/qZtcVVSjPHUg2w/bI6zT6vQsPPKlHvi0o0+qqGGEJD7PVaSanYjg6mHXGT9NFLDGFwhf5MKD+QOeWGsUpSy3YpHfdbj+Cg1UipFuS56XA2mI5kk/lIdgv5h0RIHpMUcUq/B5dEH9zR74ynmRthFTuRVLsDyQ0cxLAb8LxiBe5Ur8iDNvXxHO5K6KZxBB6bhe+puTw7OZsnZ5fgd28PqZF3pSwMlrwZS57SBprif598dU+eP9zzFcmqY2pDPnmZmdJh8XCpY8nIEkuWfB8VS6760pm6ikZdTBkWTeKdO4Qd/Z6YPVsIXzqDkAkDCPXoRVz3XmS6DSCxRS9CKnTE36wDQVJyBRr0xF/Cr09pd17ouUv97SF1+ACumrhz3tyDE5ai3q09xBD6s6VsX1aK5821dmOSZQdGSiQYYNyG7hINHEs2oMXXtWj6ZS2JBHVo+nUDmn3TmOYlm9GydEupIuxwMnWgm7kLA626Mc66N7Ns+rNA6QRJD4ttBgmGslgMbqXNSDZLGbnHYiAHTPpxWPp4Vr8btww6S+pyI9i6PWE2tkSWbUKIeTUCzcvhU6Uioe0akTxRIsP6oQTsG4nf4bH4nJyI17k5PD23BO/bO4kPvE5+ikTIbEkBUvJp5V/BrP/HkP9Ks8h8ciSk+3p5cvHMGS4L/J+/4PGNWxzYvJ0ty1Zz4+Q5siLjyYtKFAu/yo7Zc1k1YgjX1yzEd8dS/FZNInjGcBLGDoVRYyVX9ia0qj0Bpi0JN7QnUs+JqFIdiCjpSkhJiQrfSmjV6y4qvDuPjXty16Q31036clHy72lLKdUse7HTqifrrLpLnd+VOdZdmGDlwiDRBd1M29DRsCX2pZpiV7opLb9tpKsWStSjTsm6Ihrr0VSdRhZjcNG3p6eRM32NO9JPcrm7RReGWfVmnM0AZpcdzAoxhk1ifNvkvfcY9eaEUQ/umHbHz7IbgZZSHqoTWYb1iNSvRqxRBaKrVCWlbWPSRrQnYkFnArb1JuLYcGIuTSTi6my8L87j2cXlEgH2kRhyR1KAaIDX6UK+kKeFUSFfCChKviL+Dwn7uVKbqk7FREeya/t2+vXqRf+evVi9eAlTR4/FsXkrmtesy+QhIwi4/5RHQvzCkZNxqFmHlhXKMte9G4/2rCbk8Hoiti4kZukkcmaPJ6NPb2IatCTEui6RRvWJNmhGROlWhJdSp2QdiJQaO0xPooK+CwFGbngbdeeZYS8eGonyNunBVdMenDXrJdqgN3sterFN1Ph6UePLbLozR9LJBAsXhpg60lcEYBeDlrTXU4bQkKZCfuMSdWj2dW1afFGLll/UpvVX9WktEaJ1yUbYyX7OYoxdTF3xsOzBGDnuVPMezDPpwipjN/aYunHZWspVm248t3ThmbE9zw2a4mdcXwy5BoFVahLRqgEhvZsTMseZkJ3dSTw7nNQbE4m9MZWAy9PwvDyXl9dWEvz0oFSEj4RtZQCilbS7EImOUuSn5OvUvsZX8YQXxa9GvvJ1ZYNS2IkVKvJf4+/vy4RxYzEzNsa4tD4tGzamik1Zvvr7R3zx57/RtFpNDm3YxrwRE2lRsRYl//QXSv75f7CvXYUzW5cTevMYCZf3ELlnPonLxpAzpg/Zzq1JqlWXZJsaJJnXI8qwIRESumP1W5KsL9sM7Ik3cBCP6kCUKO0wCbsBEgm89dT5+648NBQFbtiPi1KTn5Lq4bhFP4kIUsJZ9JFavweLbLqK0ndhpIWkBQvxcIvWuJi1oL1pczoYN8Hh29o0/7IaDaVqqPlFRWp+U5kapaSCKFWXBqWaY2vQlg4SFboZOjNIvx2TJEosN3TggKSqS2YuXBcdccuovaQne56YteKJeUOeVqqDT5N6+PVoQvyKziQd7UPWleFk3hxFzJUR+F8cgd/1KXhencPLGysI8RQDSHksWjpUJlzd9i5LyH8t5OcRFCn8CEeFN80sjvRC/OrkK+9XX1tSTZE/ZvQo9EuV4ot/fIre1yX45C9/5a8ffMAnH/wPliVK0dWuHY3LV8Ps46/5VNZ/+b9/orqVMduXzib0wQVyX5wl9dxqUjeNgbnqgxMH6NiUvKZ1SatTn/CK9fC3akioRRPiLFsSa25LhJR2keK9EeYioMy7E2DixstSjngaduSxeONNiQLnTbpJKujJcfHSExY9OSkR4YCQv1nIX1mhK/Mqizao0omRVVwYUKUDHlU7MqyaK4PKtKO7SQs6GYohlK5PW6NGtDQSjVC6kZSPTWj6leiEr5pj/2UzXL9sTJ8v6zPss7rM+LwBa75uzvbS9hwwcOaQGOlJM1vOWjflWu3meLs4ETdVSN8zktzL48m/PYm0G6MIvzCIgAtD8Lo4XHL/GB6em8Tjq4sJ8jokBvBMqidVBkrlJHFfka/ujegbloG3cKVul/tTBvCbeH6u5vnw7NkTBni488Wnn/BnIfbjv/yFj//8Zz78kywromXZ+LPP0fvrR5T44M98Juu++J8/Ud6wNOvmTiX43kXwuUj+tbVk7xgJi7rAhNYwtCX0b8GrbraEtmzEw6q1eFyhNr6VmxFctTV+ZZrjY9kCT+t2vCjnile5TrywdOSphQM3xaNPi9jbLwJup4ivnWVcOGzpyjnJ3cctOrHfphPbK3VhdY3uzK3Tg0lSlw+v1YXR9XoyrX4/plfrweSynZhm05lx5h0YIZrBQ9BPxGAvExfx+Pa4lmpDhxItcBXR6PZ1Pbp9VpM+H1dn+Kd1mfhVU6Z93YIpn9dntojMpYY12VGrKTd7dSVi2XjSjs4h69pc0q5PJ+byaILODcb7jDu+l4bgd20MXlfG8fD8VO5eWkqo71myk3zEAEQ4SzmdmJKrke8j5Htp5Ovumloc8Qq/AfliiAWC7+bN6/To3o3PP/mED4X4ahXK06RuHcqam/L5X/8s3v8B+v/4iGZVKtO6eg2qmJjw7ccfUd5Inw3zZxH26Dp4nyfj7Hzi1nQjYWoTMkdVI2dUbTGCpjCtIzHubbnYsBoHrMw5WaYSzxq2xqueHffLN5I6uw7fG9TjtGljblg1FzTjqElDNpSqydyvqjDhy8rMKl2XrYYtpGZ35Jx1R47adGCDiR3zrOyZUMGRYRUd6W7dmu4S/sdW7Mz8Kr1ZUaEv60TxrzLryWKrvswu485MG3dJF/2ZaK0+RXRjkJkz/SX69DZpSU/J731KN6OfVA/9vmlGf4kA7l82YJCQP7RkZakeqrKwSX22drfj8JgOXFjYhRtru3N/Zw88j7njf34QgVcGE3B1GH6SDp5fnMi1Y1N4dmsbyeEPdOo/N5fE5LfkewpPvzv5urAvgV/KkIsXz9HJ1YUSX31JWUtLpo4bx8pFC3FzdsTgq8/58q9/olGV8iyfOpnV06fRubUt+p9/SnljAzYvmUfkszvkPT9BuIRCrxnNCBhZibih1sSPqEj6pHqwtAuJ8/vzvUM9ppp8w3QTPc47OPCoUzeO127CIj0bJnxuxsLSFdhXoSH7ytZlqX55xn5qjMffS9Ptf0vS/0Nj8cAqIsqac7SiM3vLtmX6l9/h/nklOpWshlOp6jT5vAKNPipHb6kCZpfpzAYhf7t5L7Yb92KzeT/WWw1kvfUgEY9DWFdGqf3+LLLuISLSjelWHZlq0Z7p5h2ZYuTEuNLtGPNtO8brtWGcXhNGyvFHmVVmSvVqzGtVi5n2lZnjWpElvSuxblhV9kyvz7k19lzbJjphXzeeHHXnyanR3DwyjvtnFxPje0nK5egC8vOFfAn1wpHnH+H5inz1Nyc3ixMnjuHQrq2W853btuXWlSu8fPSQGRPGUdbEAP0vPmREn65Sw17j6aXzjHPvK+R/QkVzI7avWkqM10OynxzGf3Nfnk6uQ/C4isSPsSZspDUhYysSt7Q9sdvGsKVXS7qYfSKl2qfs6e3K/Umj2dK6Fe76hjh/8jXDzcuwoVFzFpavwuBvSuH20ae4/eNLXD4S/PlzBn1swDLDGuyq0oZN5Voy+G+mtPmgBHX+51tq/sWA8h+UosIH3+L4YSUmG7Zli00vDpr05LC+PBr1Y5+JBwdNB3HYfKikkKGiHQawW0rLrVJarpeyUpWW6+U1qy16sMS0GwsFi6S6mC+paLpZU2ZWasyK1m3Y3a8zK7s1E/KrSVCzYoqLITO6GLJ8oDXrRlZg59S6HF1sx7kNXbi2dxC3Dk8i5PFR8hJCULecUaVeQGSORrpnwS3yf1fyC1tqWjI7d26naZPG2vVtHn36EOLnS0RgAItnz6SKtRnmpb5g9bxppIYFEPr0IVOGDaLUZ/+gejkrDmxZS2LgM/J9zhJ5ZBIxW3uQtdGZ7CWNCZtUFa+R5fGb24bwXePZPMSRDuW/xtbyS7aOFkPZuJTVnZzoaGJIq1KlGd+kCTt79mBU2TJ0FP3R8dNPcTc2ZahVOTr94xu6/PkLxpewZo1ohtUVm9H3rwa0+OATan3wObUlOlQTfPfB17T7kxnjSjRkm0VHTpl2kYqhG2cNunNaKopzhn25ZOyhfSfgrGFvTkttf8y4G4eMu3DIpCtHJVIclRLzoCozBbuk5t9h4yIC056ddR242tud6PVLidq7hBfbJnB9ZS9OzW/L4VlN2TpO0kI/I6Z3LcXMHkYsG1qJffPtOLulP97Xt5MRKXk/J6eA/FyNdC/1yyi/N/nK81/LUkpqIps2baBhgwZaqTdyyBBiQkMJ8fVhzpRJVLYypYJZafZsWE6KkO93/zbjB3ug99Wn1K1anqO7N4pRPIfoe7x+sQdeboKnS+DsUFJWtsVvYm2Cl7gQf3g2+6b0xKWWMQ3LlmDFuP483L+Rud07YGdlgn2Fcizz6M/JWdMZWLUSjpKCeujpMa7Kd0ytWY8uX+vh/OdPGFTClCXfNWVF9Zb0+cgQxz99TXtJD10NKtJRrxxNxQA6/EmPSSVqsM+qHVdE7N0VgXfHqJN29u6OflfuixHc1ZNcbdCDB0aybNiV66WlvCvtKtu7cFed6TPswXXZdsnIjavWnTkt5eSxcs242sqB8KljyDu0kswLK0g+O5uok2MIPT6UwBMDeHqgO9e3iNGtasv3C1uyeWIdjq1w5cXFtaRFvJCwn63V+Yp8H83r/8Xf1fs1PD8uPoalSxdRs0YNbKwsmT1tGpnJyQR5ezFNav9KliZUsTTk8I71JIf58/jKBQb0cOPrTz6kQc1KnD+ynZyYlxJCxAAiL0DYIfDdCFIGJax2xmtCXUJXdiP9/AqOLRqCa2MbapT7lumjenNu1xoGt7elpmlpEZPlWThiCLtmTaF9WUsc9EoxpEJFZjaWcNu4OV31jHH46Av66pszv05zlotY7PGxPm4flmaIUSWmiEGMrtJAooUBPf5Wmll6VTlWtjX3pJJ4ZtqWF8aOPNd34HlpJzz1XLWrg30M3PAz7IKPvisvv3XGV904wqgroQbdCBAj8ZHHFwauPDftwD2T1mJI9blatS4POthLnT+WzBPzyLs4hwwRdokXRpNwbTSRV0cSKOXei9NDeHTEg1siBm/u8iDg1layY72FgKLkK+LlUcMPv75ViF+N/KKnd9VSeHgIU0XIVapUkUqi8lcsWUJuRjreT58wdshgyknOr1HWjPOHdonlBnLj9FG6Orfli4//im3jmty7sA/in0DiTfAXz7+7EE6PIndbZ0LmNMV7Yl2iN/aVengzZ9dNoLttVepUMGTS0F7sXbMA1+Z1qGL8Lfb1qrNk/EiWjhpMExGETb/9hp7lyjG0Tl08atam5dff0uTDz3DTM2dKjSbMrd1KI77nPwyYZl2L5Q3bMqtOC7p/ZUS/D0sxT78ip8o357FNKyG+Kf6mtgQY2eJroNAGP6O2+Js4EGzhTKC5Iz5GUnoa2hFu6kyEsTMhxur0rgu+Ug14mrflqWUr7pVtyPVKNThdpwoPBjgQuX4oOSenkHd5IsmXRhNxcRih10fhd2OsOMkY7p0dyf3TY7h/aiphzw6TlxwkBOQUCD4d+V5heQUGoPP+4iLAb0S+dCLQj+HDh2JTxobq31Vjw9q1Qn4Gj27fYlCvHtgYlKLxd+WF5ONkxYRy8fBe2ts240sh37VtExGBhyFGEb+P7AsTid7kQthCqeOn1MRzbDX8pjYgafdgSQf7ubp7Dv0c69KwsjnjBvZkxawJNKtRnppljOnn2o5tS+cwuX93qut9Q6VPPqLxtyVpaWJMI0NDyv3t71T9y8c4lrZgRNWGjKnUgA5/K0m/z4xYWKYO6xq2YXb1hvT47Fvc//4VC/StOVu+Ac9sGuNjLAZo04KksrbEWLUk2KSJEN1QiG9OXFVHEr5zIrRMC/yMGxBu3oIYKRejrNoSbu1AoJSSPpYt8asoxlOnNS/qN+ZUtTIca1WRR+PbkbhzEK8ujiHlknj82QF4XR7KwysjuHRhGGdODOXiSVH7V5cS6X+BV2nh4vlK7b8iMEKRnyvk5+sMQAzhdyVffb3I388bd/d+WFhZULdObXZs3cqrnGxuXbpEL9eOWAv59o3r8OL2JXLiQjmzfzsOzepR4pO/4u4mnvLwiHTsJKmX5+C9rA0PxlXCe1I1fMdV5vmYqvjNaELq92Mh/AIPjq9lkGsLGlSyYljvLowb3I/qZc1pJV6/bMYkbhz/ngn9elKldEnM/v5XrD/6EMuPPsLs448x++hjqn3+DR2sqzCyXiv6WdegrZDfp6QVsys3ZEG9lgwrUxmHv31Cz48+Z46JFccq1eFe+Xr4lG9IYr125DbtSGoDJ4IqNuGhUVU8y9UnsYULWQ49iW4saaFsPbzLiVD9TgRqHSf8a0g5WqE5d8s3EtLtCXXuQlCnzpxvVpet9aw51Lk2zxe4kXh0FHFi+P4Xx/FYcO3CeE6em8DxU1M4c2Yej+/vISb8Ia8y43mVm68JvkLyPcNevSHfW4j+HT3/Fb6+XnTv0Q1TM1MaN27EwX0Sxl/lc+XsGdwcHbDUL0m7ZvV5cecyGVEBHN+5nnZNamH45d8Z18+ZuMffS5m3meCd/Xkk3h4wszbZGx1JWylhdEYDvGc3J/P0TEh6gNeVA4zo4UzdCjb06CDK366llJKGdHVqx5GdW3l06QLDu3alsp4+NczMcahfn062tjg3b05nWzv62Tkws1t/VvcbIaKwMXafGuJepiZzWzgzq5UjndX9+f78F/qU1mdxte84XLcRV7+rR1AzezI6doOe7tCjP3FtRQRWrsE1KSkDWrcjo48HaaLiPZu34V7NhgTYOhHXrR/RPT24b9uOUzXrc6W5LS979CRw6BBudndlfcMqrJMUdmKoPc/WD8Lv2BTuHRnPlZOTOX9+DqevLefS7a08fHaCoJAHJCeHScTP0L4vo37mTkd+Hp6h4BX6SsgX9S9E/67kv3j+BCdnB4xNjGjX1p4L587K6lecOXIEp1YtsdArSWeH1gQ+uydhP4jvNy3Drm4lzL/5kJmDXUh6uJukawvwXduJgLmNYH93uDIa9opomteMl/Nsyb+6DNJeEHDnDBMH9KR2+bK0EmJric6oYGnBONEWdy5c0G6oNKhTFyrpG9O+eStWzlvA6UNHOLBzF0f27OPywaM8OHyay2t3MKZFe2xLWDC6uSO7xk5n98Rp9G/YiJof/Z0BUjlsdmrLmY4dOFGvPtdkfaBLRzIGupM/ejjpQwfh4+LM2Xo1uW7blMB+vUgYOwpPcYIzjRtyV+YjbNQwkuZMw3fMUO7068HjoQMInj2d2FXLCVg4h4vD3Dns7sbRUd24umQIjw/O5urBGVw5s5jrt7Zw89kRHvpcxjPoEeGxIaSkJWlXRGkXbSjypc7/Q8l/9SqX+/fvYNemNcamxrjKBN26fl3yUh6H9uzBrlEjbAz1RN13JtrvBRkRfuxYNovmVS0pW+pjlo3pRsqDHUSfmszL5e2JXOEA16dKfheyD3vgM6+VhMV2IgJF/Wf6EvboGjNHDKJGmTKUF8821zeg3nfVWbNkKUEvvXh28w5DuvWivJ4Jbm0cOLR9N+G+gQR6++HzVIzn0XOC7z7hxu4jDGjhRBNDG6Z1d+fS9r1c27OfMW5uVPnyM4Y2acDRsSO4N20Sxzp14IBolLt9RMVPHEH83KnEz5tOyLQJXOvdjUuCJ+NGEbpoAd4zp3PJvS93RgzGd8FMIjetIGjdEkI2riB+7zbSTx4h49wZ4o4fw3fXDh5sWM2dTUt5cmA1/ld28ezKNp7f34+n5zkh/Y5w8Ex48SY6IZrUjDTtAlD1FUndp3oZQn62kP9ay/u/e9jPycnkyuWLNG3WRPP8rl278PDePV5lZ7Nj40aa1Kotat+YiUMHkhzqR3LQS9bMGE2DsgZUM/yMLdP7k35/KxGHR/N0kRPRqzvDYyHeZz2v9nvwdLYtz5d0lHU7ISuIqOf3mD9+NFWsbPj6o08o8ekXONq15fiBw6TEJBD43JtJQ0ZRRsi3q9+UzcvWiFH4ER0ayb0bd7h+6gL3z17h9Pb9tK/XnDrm5Zg9aoJEjSvcOS8po3cvLL/6jOHt23F1w0qCDu/h5oLpnB4zkEeLphEiREXtXEvUrvVE7d2Ct+zzfN1KvLdtIvj7/YQePojXzi347NqC/6EdBJ7cQ/DpfSTfPk/u0zvkvHxM+vNnJD15RuyDJ4TdukfIretEPrxGrOctwj2vEOZ3nbCQx4RGirHHhAgiSExLRV0Loa6J0L69m5JDcGSqxpFnEcH3u5KflZnBsaOHqVmzBvoG+vTp3RvPFy/ITk9nzdJl1KpYmfJC/ryJ48iKCiHW+zELRnlQy6wEdS1KcnDxKLIf7iLi0BiezG1D1BLx8tuz4c4c0ta78GRKY3xXdIKnUgJmBxPj84SFUyZoXv+/6pPBj//BoH79uXvtBnnpmcSHRUqoX0QZQ1MqS/4e3m8gx/Yf4sblayyYM5+F0+dweMsuDm3aQWMpuWpZVWD5jHk8FRJunDpLTydn9D/8kDFd3Xh89BAZzx4SdeUcEedPkHzzApl3r5Bx9yqpt66QevsaaRL1Mp48IvXpY5KktE3zfEmm10syXgrBzx8SK4THPbtLpt9Lsvy9SPH1Id4vgKSgMJKCI4j1DyHG15c42R4b8IzIgIeEBz4kIsyL6LgwElPiSMtKITtfiH+dp313X3eJdrZGvp/6SDdUV+r9ruSrjqSmprBn9y4qVayIoaERw4YMJTwkjIyUVJbMnU8lqzKUMzaWkmwaebERRDy9x1T3HlQ1+JIm5Y05u0GE3IvDxB6bzDPxcv+JtWC9M2zsQMSM+jxTJ3hWu8EzRX4QsYEvWTJzCuXNzfhAyDcs9S2L580lSCZVlUApMTHs3bKFGhUqUurzLyhvYYVts+a0aW2HjZU17j16cWT7Hg5u3kllMxtqla3MlqVrCHz8klsnz9GlVRsM/vYxE3r35cmZs2QECFHenqRKRZPq602aPGYE+JEVGEiKjy9Jvv4kBQQRHyhRyT+Q2KAQ4oOCifMPIMbPT0Ocvz/JwSEkBQYTGxxGdHg0MZFxRAvUj0yGBAQS5i9eHuBJePBLosK9iY8PIz0zmdxXmYI0IT5dwr0Se9nk5L4S8nMIiUgT7iT0F5zkUWf5fjH5796Rqwj5BcvFka+auv1qYkIC69aswcrSCkN9Q0aNGCkDiyYlPpEZk6ZgaWgiXmjE6rmzhPxIgh7cYmzPzlQq/QWtqtpwdaeEeL9zxJ2ez+M57Xg4vBI+Y6oQNVsE1pS6PJ/ShJB1veD5AQkzMnmhPiybN1NEnrlGfrVK5dm7cxtxUVL/iv7ISUvhwc3ruLV3wqBkCT76y1/4VMq8Dz/8O3//298Y0KcfZ74/wvY1GzErZUi9KjU5IIYQ8dKfa0dO075RC0w++ZJZw8fgJdEgIzpWIzTcz1+8MogYITFOjDsuOJzowFAiBOqnWYICQggJjSA8IkYjNCwonFDZFirbIgLFGRJSyU3NJjMth+TUHBJkOTY5ncj4JCJj4ogRo02IjyEpKZq0tDiysmX/vCzx8kyBLOcnC+mpUlpna1+MTkrOIVTIVz+qqK7M1Z3g+YV1fvG3YsvCX4SE+olO7Wc6QzIJkPASlyw5XsgvPLWr7igdJ51eu3o1DUQRq3vGLlm0hLTkVKlJo5g3Yxa1q35H45q12LtxPfmJcfjfv83kAX1oWtmGPg4teH7+oNTvD0m4tYeH64ZybVobHs5tR9imvviv6cnzte6EHJY0EHxN+zJjXGQQW9evFm9ujJmRPj26dObG1UtkpkrnVM/yc0iKjWLjmlXYNm/Kt19/xYd/+wsfS71ftoyNhP653Lh4hR2btlKtQhVcHNtz/sQZITWcq6fO49auPXUrfceGpSsJ8wkgPz2LNCEoLiKa+KgYEoWo5NgEUmITSYlLIlmQGJuk/URsUlIqKSkZpCSl6ZAozwXqJ9fyMiVky+Tl56ovNr/W/SRtdp6E9Bztp2kzMzOF8EzZlqEjXcahPirPV5dqvVJ3+lI/9pzBq9e5WtRNkrAfGpEqXCrudFfmvjWAn3mVbnF34FSE+0v+UF8J1r4WHJIl5Gdq5Ks7jKg3V039gEBSfDxnT51i1oyZzJ09l4siml7n5YsnxvD93v1MHjueuVOn8VBVAOmpRPl6sl8U7tyxw9i+dC5xXg+lbgkizfcOfue38GjvNKl355JyayPxV9cRfmUz8Y9PiMLxFfLjSU2M4fqVC8yfM5OhAz3Yumk9wQG+4vTq4ndllhKXJDe+fPaYZUsW0sm1A02bNMK+jR0Txo/Tfq9O/ZLlxfMXGTt6DCuWreD50+ckJSTyTETYkoVLmTJpKlcvXdN+KUv9kqf6EWj1k7Dq1zUyxRjU8+xM9QPRoryz81G/EK5+P1D9PrB2xbWC6sZPQF2JrTxYu0PLG6jr9QvxqgDq7l7qXod52gk1yfja/CemZAn5KQQKf7qvbivCf+H1+f8O+WohJyuThNgYAiWvBUhojI+N0zZlpWcQKrnP56WnhEV/stTVqXlizeKhCSEBRHg9I0FyHMnRkBqlGUBW8H1SvM6T438Rou9qn/IR/RjivMVwZJ+sRPKyM4SUaHxEVD28d4cgyZVZ6hpA5VLqu+0K0rEsMTQfrxecO3ua/fv2cvzYUZ49far9KkiWeFlsdAzenl4ESG5WxGeLB6alpBEYEIy3l6/myerXv3PFO7Nk4hTByhBeaTdVeEuiZm8KalJ+CQpacZveonBJ9yavleAT8tWzxJRMqQYUlyp1K84UyYUG8BuS/0+bWK52M+b3m7qkSxuMaupRXCQ3Ter3RN1VqxlCcEaYEB0ij8FCdqhYV4zsI9vzZD/Jg3kSGtWlzJrrvDmWciXlbkJ84QUkaoo0j9FB997FN91NEeQ1hYdTTZa1n4DPFg8XqJslanfYEldVEe+nfq/3lzT10h+H+lv4JgpqbIp89e3ddEIiE4UXxWWGxtnvQr7q0tv27jNdk27/2GRr6xUUYUKW5DHdteqpsizIV1emymNmrKyPl/XqTWXda+m8KF11Hbt2MaiKmcoACr5DqDumQHNHRbas15Z1/Xu3P8X1uaCJ4b6Fei7/xTDUffW0e+vJ++pujqjGWLDPv9EK3qIY6P69GZcGHfn5MpZ4iVLBkQnCT5Lwo3Sb4u43Ij9Q1H+8RFf1+zqakxT2spimdVn+qO7+YJfC16kDKI9UXqzuTqEgQod8hUydMWgQ4pWBiMrVQrtKqupqYI14eb0iX/P2oqQXQuVLXS/Uo/riiYaC5aLr1bLqsfa8KArWqXsMayg4ZuGxdK97Hz+vFRJc/L+i71HQVxmfgrqhV4IIy5DIJOEnWfhJ10T5b0q++h1h9SPK6iRDYZQsisJuFtDwBrquv4c3L5BBFUDdxTtXiFXIE5LVvWzzxSiUmHulPeYIcoVvUbza7UuKEv1DKKH0Vjj9GHSEvpL9fxbE83Siqyh0pPxS6G7X+s9QYHDyT+uvWivzliCCL0RyvuLRT0rx34R8TUhoYT9bIz9L2FQGoE4xqrSnoCxRQf20rUoLarko8YV4s7/aR6BFbnleiKLH0qD2kz/ajyWL4FLKWv02b668UeGV4EWi8ztQ71eIwr785pA3/iVQ9y7K/ad4O6fao0C7M0dyrpCfLlxKqVd4OzaN+F+ZfB8h3z88izghP0Mir4I6lvb7egKpejS8ud+gLCsD0X6CrQDqeeG+RfdT67R9Beqx8N6FGtRxZL9CqN9JVFAfbGjGIxMiD78rpIvij28h3dEZvaDoeH8OtPH+TBTdX82Zuv1qaFSOFpH9Q3KEJ0V6XgHU8s8kv+iZvR8jX53lC4zIJDI+X5BDVHw2MYk5RCdmy3IWkXFZRBQgUrZFJ8i2hFwNUbKs7aPtlyn7ZBSBOmamtj0qPoOouLQCpBMZK4hRj7I+VvaJlX0E0XHy3tKHaA3q+D+C+DxB/o9AthX3mh+FjEGDGm+2biwF4/5lkPH+C9DNcUbB8xzConOEx0whXrgSsv3eEK/wCzxfka/U4luoMP9u2PdVp3glxIREZYnKTCcoIlUe0wiKTBWjSCUgvBBpP4Ki+/wEwlIKoJZ1CNQgNXgBgjSky7KEvfCMn0DmT6Bwn/ePoZ7/DKj3/ilo+xU9rnKeDJk3BTV/0n/Z513I+DTIeN9DUJH1QWrfMHUvnoL78QjZOs8vDPk/k3z1oY6qE9WJgrd4S75mACEKar3O+9Vr/UKS5KDJghR8NKQK0v5NpAvUBxVvoYxON0gFld/EWLXHApGjRaV/ETLWN3jn+bt90KHIfj8XMo+FKCRBfWai5vfd+S6EzsH+OdR+aj5UpH577J/CL/J8FfaV12tQd3qSN1L7qRsw+4YI2cGJMsBkGZiOeF/plLpi9N+DDOY9vNsv1c/CvhZ87lBkgL8c6vXvH6NwXXF4u1+xZP8Eih6/sO/vjq0QhWP8Z9DtX1zfisPPzvlaB4X8dw+g1qv9lEBUXyJIEahHea4MQm1TZIll//ZQHqQgBvo74t35+HehCCs65/8uftoAfpT899X+++RrHxNqIUbtp0KzzgD8JI/5S/70E2ie+s4xfkv8c0v/z0ehxxY3vn8Fvzn5Cir/KU+XvCuk+0fIvlIGKo/8/Qzg/8j/IX4X8nWCSD0q0v0jJPy+If/XHMxP4acH+t8BNYZfc75+ek7+DfKVaHm7/f/I/zWgxvBrztdPz8m/SL4QL+vUSZ7C7e+QH/5/5P9rUGP4Nefrp+fkR8lXX+N6/0A/JL/odoEQ/VZ16/D7kF84ae8O7r8Tvxf52fw/7EhuUIVZxf4AAAAASUVORK5CYII=;" vertex="1" parent="1">
          <mxGeometry x="450" y="220" width="87" height="68.5" as="geometry" />
        </mxCell>
        <mxCell id="enYdKQxFRi82km_zU35g-11" value="" style="shape=image;imageAspect=0;aspect=fixed;verticalLabelPosition=bottom;verticalAlign=top;image=data:image/png,iVBORw0KGgoAAAANSUhEUgAAAHsAAABZCAYAAAAeo1tCAAAAAXNSR0IArs4c6QAAAARnQU1BAACxjwv8YQUAAAAJcEhZcwAADsMAAA7DAcdvqGQAADMgSURBVHhe7Zx3nBTVvu3Pn+/dz73XY1bMOR3FnNGjIiAKgpJUUAQz5qyggCCKGZScJEnOYYYcBibnnENP6jjdPT15wPXW2t099AxDlHfv8Qifz7K6q3bt2rW/+5eqa/xbrqUBh1c9ckrqkC3pc1uVcv9JHbWyLFLtcSn7INWZ+W+teuQakV1Q5CQdFnZeoGF2MS9WXEPgtQTMDo30Wao5qX8R5ZJHbmktudUfpFwyO4Jl+xvlCHKxD9lF1cgq8obIw33uv4SyQtTe8UOq2MO5O7xyS7wHqb12QanPoHJKqo1yLZKPCkAnt6OHXUIXTYvOLqpBHmHnc8UUsKM8dpzHweQHVFDi+Usov42C+wvbKPScghK3XxYeC1WpF0XtqawaxUeQ2hSWV6OA23zKbEsPKK+UjOjOQ0EfFnaeVMLPxXVULUqt+2B3Ay4v4AzI5f0dVZ6/jlwS7zn0vt2Up420T/K32U/tg9sr7TfSdyPua6tgm1bt2ortnJSdsvG7ZHUfUJmj+SDYJoYLdg7BtlWupZGwJTamVVe6AF890NAM1FPaNlJNIWr+kyh0zMci3a/uO/Tem5uAfQHpc4t0bN8hpGNt1MRzjILfKV2jke0135I+N7KNpDHUUbX8XEP5Gv2qpuzVMF64BTLzLiVtSqYN7GyJO6UDsJuMdQu21fU7aho4CF4wqH37gf3U7/z8O7f4/V9QGleINE4z3uOQ7rc5IH0O7kdA+zn5+7UN7m9vPIeS+qPM58A/fVU3TdxHhua7/v3O7y3HqEZ+r+eOem5ruXX6fqdn9lFKoplcB7hKftghO1rDlmXXEPZ+1PKKzexwny5G6aItg/1X/Rc6xj8q/tMkBz62PqYDlFlMAZl/oW0OIc2lwAVPCf5r5A4faXplvYE2of90us4JQpfofOFi43wDW9Yspo0tbP+WTaBZPBCUvueYeN1oYnYOM/BK1z5a9u9o4sj2kfL+gH7/M4ljP6LaO+9oxHPbnZP2+g3Zt4/bBqqa8vB7Q6CN5rieKvfWo8DuhcXbgJrAOftpbfso8znQtpFqouooR/U+GiizcnLMJsesoMj2KGB7adnNtOzfadl/UtiaqKNRe+ceSTxvPyVwwblpOSYoATBtpbaaz2oez7Q5kWZzobKmEQ38LtA+KqPCiR2pOYjMsfCYv30zj++jizXQeU3tC8Ku5Xe7t5ncfKyk9HykAZlHCztP2Thh2wi7jrBDQf8pYPPmD5Imvz2111Y6in418YLQrM+h7Rjcg30H4QqKJECyZHvDPmxOycTiPbHYnVUMCy3Tzf1SmrUaa2PSsDIyBcklTtTqPPala4XCVj/GsrnP7mkiO9beZJdF4JlB4EcDO6/QC7uzGfWEHQq65aZ4wZab+1eTxtZWmvy2aq+dFOinFcB22smyBUBhzt+WkHUeU2sdF5A6bgUrKLlcbcvqGrEqLgXjFq/B5PU7sS27EkUMmQ4eK6j7HeHpJZi/KwHhiblwkkE9+9HCUb/BBSTY2tZzDH8cNi37sLD/TAqFLLXXJqjgPbZVO+1kZS1zEtA+Wrb2Caqd81dJ2XhNgVSM9lKVdMmxFS78sn4HRs1ZiQkrd2Frth0Wtqvg8QR7I1Ym5mH53lTkORvg5X5ZsfpX34IsL3FUsLO4M7PkgPQ9m41yigi8qBY5BR7YnE2oa9jPG2qt/ZJu6M+u4L2cMO0zauTnOqrY04iIPCs2JBVie74DifSURUy3HTxmp8qpmDIP5myJx9i5YZiwYhe/16OM+ws5vu2FLszfHoctSXmoYH2lPpuppoB0HW3rWBfa3I0mz8omu8yiOmQU1SND0MnWDzsEeGvYNcgp9MBK2LVtYLfcWNuJ+zMq9H4Oq2aqKUSCGnrcD9nfzg+gmkqwVGHmljgMn7MWI+aH46ewOKxOsSDBUY8SXt/KNiVN+7G3yEfgaRg3bxPhpiDRsQ8FPB5jb8ayqAws3hGHDKsXbkINhXxMsA9Iv27VEjazcAO8BtmFblQ6G1vBbn2D7Sh0Iv831d7Y/pAEuDEgffZDbQ052MY/Vz4qrsiOKRv24N3JS/HKhEUYNmUVRi7ejhm7MrC1yIOsuv3GivPr92NHjhdT18Vg/MJN2JBahoya/UijtmRVYOH2WETmlsHK9gIcqoNgF5IlYWcSdqZgk+nfsrgC/KoJyBfYal81MgtcqOAKrKnfxyRkH+PQX1mNVEOImqjmgPQ5cLy53uzTfNVQGTYfVsbl4qcN0fh88U68MXMjXp6yFm/M3ozxGxMRnk/gnF8L22Z59mFjcjnGzQ/D7G1JiCwjsLp9jOu1WMa4HZaQjQJXrem3nmoIqJGqbdoHa1UDQbO/ghpkEnhGIa1bIs+TsI9JAhoqQQ49RtjNgl1nPmu+BELlVVZVE6LLa7E2w4rpe3IweuVeDJu+Dq9MWo4Jm5OwvaQGeY37UMb2ybZ9mLU5AT+u2oW1dPepXADpZhEUYnlEMpKKbHBwAdQG+peaqPZgZ56E/UdEwCyp/DqwX3PTbIAHYNO6m5oaDYQ6yku5qApKlhpeUIUfNiVg2ORlePXnxfh5SzIiLHWwEFgRoW/OsuGrReGYFs76mxxyavdhL89ZsjMRu9OKUOyqRzWvb6ybW3Mdnms7CfuP6aD7FuRQcZ8mu5Gwm1tc/QHLNy6WEvAqSsAzfPuwpagK03an4u3pK/EJE7f5e7ORbG1GMftMrtqHmdsSMXFNBFbFFyHDy3Pc+7AhPhfbkwuQWe5FFT1GELbGWC/YrsPBLiRYI0I2qg5stc+LzHwnyu118NU1o4mrufkvJt1zW7UcbwqInxuam1Df3MhtA9s0cB/BB9rpnHq281FefnZRFVQe5zSqwodp2xLw8axV+HrpVqxLKUVOfTMKeHwT6+1pG2OZoScjkkZY1NiMbell2Bibg/h8G5xsVxfoW9eo43Grsx7ZBW5k5ftoqARewLgtkedJ2IdREK7UGKLgPtOuBbYmvtEAb2xqDdvfrsmcW0/VUB7KQVmoiBIXflyzEyPnrsXk8HjsrWiidTcj2dWMRYzvMzbEISylDKXctzffhbWRWYjIKEWl7yTsE6Ig0KBCYQeBt22v/Q2C2sjkTPv5OVRq418UfuCycgEvqG1GeEYJfly5A2N+24QFkbnMzpuRS23KsGPe1lSsjMpHIb8nVTRgQ2wetiQVoMBei1qe3y7sgnZgZxKsX4zPRgRsttrnQUa+A2W2WlTX8iY04L+IdK+hEsRQtTcXjY081kDLpto7Fuynnqqjaikv5aCyXXpGnodxy7ZhzKJN2FlSjXyeE0crX7onF7M2xiGmpA4FNU3YllaGddHZSCq0okZ9BfqubWhCpZOlGhO5jIJqykfVIF0iz5OwDyPdb6hagxbQoNqcy8kP/S7Q9VoE/BzahyTwAlZZ38S47MTksFh8MmMF5u5MQaq7CVnVTdicbifseKyJLTKw9+Q5EZZYZEowr/oO9FXDPiocTMragZ1xEvbRKwgnOAdOhx3p6WmIjoqEtbKS1szELHCsrUJhh/ZhjlGycll4HuGuSy7B98u34tsl4Ygo9iCX8x5tacBvO9Ixj4lauquJFl6NzSkliMoqgcPHPCHQT21dY7uw5cJPwj5GBUE1NjYgJzsLvy1cgG/Gf43kpCTU+mraPUcy7p1qOT94jPvMcUrAbXTDSeZJWQbG/rqKJVc+y60mpDqbsCqmCFPW7EVksQ9xZXXYmlGGbYk5KHV4W8GuPAi2yi+VYSdhH5fq6+sRFxuLsWPG4PnBg7Fj+3Z4Pd6D2wpmAOiRJNcu6y6jm44usOGHJRsxfWMkoixMlD1y5Vb8vHIXNiRbDOwdOVaERachv9R6IGYb2G1jdghs/07JGxABm632uZGeZ0eZtQZevTLDLFOZ5l9edMkx0TH4bMRn6Ne3H7Zu2Qqv29tuu8b6wLbtsTbS3NZRPqrE04hlEUn4bkkY1ieWINXeaH4Rmxkeh0W7M7CnyI3dNMLNcRlIzSuGx1dnwkQQdgbLs/R8L2N1wI2bbfVJ2MclTmxsTCxGfj4STw14Cju27TCW3V67I4EOzqm2BhgXR0V1I7alFxvYy/ZmI8XWiFRHIxbsTMecLQnYmedAbJkPsXnlKKpwMjHz91HPrfUk7BOrBk5qXGwcvhj1BZ55+hla9jZ43J7W7YKgjwA7VCrbBNxBC00u82LSmp2YFR6LnbnkUNWIlbGFmE3YO3LtSCP8XFsNKt21xiOY81vBFr82sM0KMPIExI7NVvuqkJZrQ2mlj66igQNp4IBOqq62zrjxIOzN4ZtR5apq3a4+RKH7j0JunpPvbsCCHcmYtDICq6ILkepqwPa8KszZlojNaeVItzegnEycVG3gvLraBlRyAWSwNPPzq6Z8ga33JOzjUa2vliVXtIE98JmBCA/b1D7s0O/HIC9VXteATamlmLI6AvO2pSLe2oBEZwPm7UphvZ2HZGbtdrbz8DpB2LU19QHYATd+EvYfV22NH/bokaONZR8E+zgtOqhqykEllNdgLt32jI1x2JLjRGo1622WZSujspBg8cDJNjWBc6S6Gr9lZwbc+HHDdhN23R+4gT+12sCTG4+OjDYJ2tNPPY1Nh3Ljod+PVjzPx62sNtPRgKUR6Zi8JhJLovKQRpjLE/KxIiqT5ZkdVrbVwgh144rZh4SdlueBX+6ACNhstc+FVNZzFqsPVdX1TO3rTY1Zy5utLK9EdlY2crNzUVnBWo/7dKw+0MZX7UN5WTnycvKQl5sHq9XKfTWor/Ufr/ZUo9pbjRpfjbEUSW2Ki4pRwb6rvb6WtpL6d9gdyM/NR2ZGJiwlpXC73K3aqI8aXiPYnwAUFRTBZrWZ7xqby+lCTEwM1q9djy2btyArI8tk0qYP9aXxc6vxB/sN7tMYNF4fxxYVGeXPxvs/hbCNYXA6nCZJ09Zd5T4wHyHny816vTVwcdzOKg88HGsdj0st7ahafnZTJZzzzcklmBkWh7k7UpHkqcf6jDIsi0rHzgwLStzsj+18PEd9qH+rvZZJtZPsvAFVB7aeI8OWZQdhq8OamjqUlZZj1YpVGP/1eIz7chwWLliIjPQMuhH/DeqmU1NSMW/uPHw59kv88P0PZkJKikpaJi09LR1bN2/F9m3bkZqcahbO0iVLMeGniezvN6Qkp5jaVTevbU5WDtatXYfvv/seoz4fhRnTZyBqbxTsNrtp43JWIT423gCUi83PK8DOHcxmZ84y7bRQrJVWbN60GZ9+MpyxdhBefullTPplkunbjIvjVxuNJSUpxfSp/bonLZz8vHwkxCWgpLgEe3bvwWglaE/5EzTdT9iGMCxetBjbmJ2rHwOP50rVnhou5FKEhW3G4iXLsIHnpPK6bsZ/wT0Au87Ms4eyUTEFDiZqaZixKR7RtnpsL3JhZUwWF0E+8u0+A7smALtGMfuPwFbpZbFWo8rLlcNOKytt2LB+I14c+iJuvflW3HD9Dej7ZF/M/XWuWdWaMIGf9Mtk9Hi0B665+hrcfefdePutt7GR56lNDW9Qi+WtN9/CG6+/gSmTpuDXOb8aK7nzjjvR54k+mD5tOkotpcaSsjkp6v+FoS/gjtvvMH12fqgzxo4Za6xUXqKwoBA//vAjXnv1NXwx+gusWLYCnw3/DE/2ftL0LQ8TRdf75htv4aYbb8aFF1yEyy+7Aj179MRvC38zXkWeJjkp2SzeyRyTzglauKXYgjWr1uC7b7/D3j17zSId88UYU2evXL7SLKqhQ4aix2M98M7b72D3rt3GiwQhllrKsXr1Ojw3eCi6cV6GvvwqZs5bgFwaQNAyg7C19RCcrDu9wofle3MwbWMMdha7EWWtxZqEXGxMzEWW1WNga7HofB/PqWDM/gOWbUVJpdfAdnt8nNw4vPLKq2bCT/37qUYdb+iIjz74yLjMUkuZmVzd9FlnnIX//I//xOmnnY4bO96I999931ifAM6aORsPPfiQWTDPDnzWWMgVl1+B0/5+Gi6/9HI8P/h5Y6Eeurv169ZjyOAhZv/fTzkVZ5x+Bvs8A/d1uh8TfpxAT1OGtNQ0vPLyK2YxPPboY+ZaXTp3wfX/uMF4AwGaPnW6Get5Hc7DBedfgA7nnmeu+czTA431y91v27oNH37wobF8lVceeRdOpELHt998i96P98bSpcsQvjHcLKrHCG70qNF4vMfjuPLyK3HWmWfj5ptuNvsy0zPNvaqPPbsjMWzYm7js8qtw+lnn4NKrrsGA557HGiZ3bp/fmv0Lww9bhlXD74WOemyMK8aMDdHYmFGOBFc91iYVYHVMJlIsduMBgrCr2U85vfBxwU7NdSIps8LAdjFelDM2r+Lq7tz5Yd7UWTjllFPMxN9MSxkxfARKGUflOl8f9jquuuIqnHbqaQaewHQ4twO6dX0Ec2bPMRY0exZhP/AQrr7yanS6t5OBoDZaGGefdTbuJ8jZs+YwNluwgBbQo0cPcy1dU7A6nNMB111zHYa9NsxYtyzy9ddfx+233m6Aq728jib++2+/x/x58zGYk3vuOefi7rvuNhb5eM/HzfFbb7nVjEceZMP6DbT+N9G/b3+ThMlrCIK81ZgvxuLBBx7E/Lnzjcv+csyXXLCd0atnL9wiL3fDDbj0kktxEb3G49yn0CXrllXPmjEHd93VCXfdcx8e6todt3F7f5du+JJjczIHaAtbHlIQS6vqsTWpFNPX7cXCiFTEEf66lCIsj85ATH45qtjWx1AjV+6trj087NRcN6FKVQExKTNbN1JyHEhkQlBSWQ27qxYpqZn4/vsfjVWfecaZZtIvuvAiM3njvvyKiVUFfmO87fV4L3PsbK5yWdA5Z5+LM08/k0BvxEcffmRinqA/zEVzwXkXcIIuI4QO/sVBqa0gyE0rYVu1chUG9Btg2up6V15xJc6jVapveRC54fS0DFrkRyZkXMtFcPNNt5jj8ijKG77jpMrib7/tdnzz9Tcmzi5j7NTCVJtPP/kUkXsisXbNWrz79rumpBJsJW91BJCemm5i9D/v+6fxXApJn434nOfeZBaXPNF49juci75b1264gR7l5wk/ozC/ELEx8fj04+G45577Me7r77Bg0TIMHzkGj/Xpj8F05wmpGXALuOJ1ba1fSjL5vdJbh4hMK2bRjU8Ni6Ybr8P6VAtWMG5H55bBxfzHp8SRbT1M/kppmKm5DqTkeoxSc/VdW/fhYacSdnJWBUq5WmzOGkTsicb773/ICb/YAO/bp6+5SU2YJqAgvwDfjP8G995zr5loxcbevXrjnrvvMedcdullLZM4c/pMdO3SlQvhHGNtai+IAir3f9211+H99943iZZ+aBCMPk/2wUsvvmRi42233Gbayiv8PPFnk1UP/3Q4J/5OxuMLcfFFF5t+NIaPP/oYH3/4MR7p1t3kGnsi9hiXXciwI4t/pNsjGEhXvmb1GqxYvsJcV99jomLahT2HHmfjho3GmylM3H/f/Zg5YyaSEpOMZ9M4rv/H9fjk408Qx7C3lonlqy8PozcZhB27ImEpt2Ft2Fa89s4H6D2ACd72XXC4PK1hS/zuoIUnFHrw2/ZkTF4fhT0VhJ1WjmXR2diTaTGwBVoLw+vV/+zIDzv5mGHTjav0KmPQF+zNW7bjhRdeNuDkzqZNmWbc2YZ1GxgTIxHPTFUuUJYlN65YrElQDLzrzrvMeQKsCZ3MBK7Lw11wDuOXwGjC1F7wBEvgBVZZfUJCgknolDjt2L6DUNaaRXbNNdfSUu/AV+O+MjFVk6yQckYgbKgPJYmCp3iuxakxK9lSiaYsP5YwlDxqXEoKVUG8+857JlmMjY4l7OqDYCu8+C37M9x2622m1hZUhScllQvmLzBe61XmNso3lJ+89OIrGDVqLAqKykx/Sek5GPvtj+jV72ksX7OO9bHLD5sWHYQtgFW6dnkNVkdmYvK6PdhV4sHGtFJTa+9KLTCwzXmU3HgZk+lDwk7JqaK7llwBOQNb7XMcgO2qQRhd36BBg00m25MJiX4AqGLNqElTCaSypl+/fgbWLXSjylyVJcsK9FhRCdadd9yFqVOmMmn6wcTsc+nib7n5FmMlctfKZG+ku9cC6E/XrcRKSZ+V+YLd5jCPKlUCff3V1+jUqZOJt4IsGLJguU8ljVdccYVx/Sr7lDUPHfKCydRlrU5OrKnFOaFys3K3WrwqIyfysyoE/XTph+017dJS0gxs5RJz5swxEHVdLU55naLCItOuiuWarFuVw7ODnmWsnkVv9y2GvfoGFixYDJvdbdpl5Bbhp6kz8eRTAzFjzjy6X5vZX1tTY7Y1egahZwX8nFNZgw102xNXbEE4w+qm9FKsi88h7Dw4A/dRQxk3TstOybEjOcdtlJJD6GZbdWTYqrMF2+GuRXj4FjzDLFXxVZa4fOlyU0/qYgIu61O8vliW/88HTd2sUksT9QGt61q6fsH4ljc//qvxtJL7ceH5F5pESfWxJmz61Gk89wETk5X4RO2NNBPon4haVJRVYAfLng/e/wB3sUyTJWuBJMYnGg9yLa1d7vvhhx42+YMe+qgseu2V10yGbB6wqK+A9HBo1YqVJpvWs25l3Er6BvQfYKoB3Zfa6R50XLDnzpmLdbTGEZ+OwCNMOmdMm2GePchb6IFLBvOHTz76hIu1v1mUnw0fyTLzHc7fVlQHF1mZFTPm/YZ+A5/Dj5OmopAVhRlTjc8PnO0EsIrbQlsttrGu/nFJGFbEZmFXnhXRRTTEUgccXPxetvFyq2qpzFZNbscJOyW7EqU2H5yeWmzZuhNDnn/BgLiKLvItumyVIHZOYA1vcslvi9GN7vBKWlW/Pv2wbfNW/40x7n7OmvcfdO9XsLbV53FMmv7Jibv04kvpMgcgibCctNzlLGsef6wnzhdsAti7ew9cdieshLJr+058TZc9kGXaPUzELr3oElx/7T/w+qvDEEuLfZ/u9x+M9br+q3Tb8bFxxiPMpnW9+fqb+InJZXUAXlBVtPLIiL30Av1ZPn6IsaPH4I3XXscgxuw4WXaVv316SjrGjBqDB+57APN+nY/1azdg5IiR6N2TpdiipZwDe0ufxQXFHOfXZg4+eO9DztPb1DvYFL4dFZUOVNo5t1n5mDl/EZ7ifH7BxZ9FD+jjuTWE7fNVm34E202VOWuxN6MYPy8Lx4KdSdhb6EB2VS0sZCLYHoku/A/DTs4ibCZoTlr2LtaKeihx0fkX4Rxm2rex3PjovQ8QsYMJBoErcXno/gdwNeP1c4y/sUzENGhLYTHGsWy5me5ZgN5ntjuWVvIg215B1/7MgKeRnpxqJn49Labfk315jQvRi9D37oqApagE2zZtwSdMsjrdfS8upee4gIuhA+P9Ddddj2HMaKOYM7z71ju4ngvqJl5n9OejzHUdDC8zGKffefMts63V41SOyUgWwTo+nVb7/KDnzGIZ/dlIvDnsDbOgYiOZoDFxUtv05AyO+UuO+SHMmzMfG9duxBefj0Hf3n2xctkqLlRnS7/lJeWY8P0E9HuiH8f2Op5/dijv6SmM/GwMpk+fg6kzf8W3EyZhGBdCl15PYPiYcQyXuajmuTW1NayX/bAF30vZOPfxeWWYvmYb5m6NRWyJCxbtp1y6h4Blezw1R4CdTbBGhGwka9ZW++xcgZX+0quqBvEJyabWvPYqukomQWdS99/TCd9wFScyOZvCpOv+e+/D1ZdfiaGsaZO4r4YuqZQJ0XcsS+5gDXwx4/3rdKmybi2MK2npmtiM1DRjwWFM9p5hcnQJgfZkcrVr2w5jtbrGvXfdg7Ppov/+X6eYbQfG+xsZFl596RVE0gO8x0Uk76FFqOvZGQdt1OSJv5iFMJeLUa5WDzo0Lm1l6Xmsr19+4SWzCDUuWfbTHIMs3u2oMm3TktMJeyzHTNiz5yN8fTi+/GIc+j85AKuXrzGwTZ9UGWH/8tMv6NOrL16g5fZ7YgDuuv0ehp1O6Nz5ETzU5VHc+0AXdLzjbtzA6uFTepOUrGxC85/vJWwft9WUh7IxFicXsfzasAtzNkchttiJMu63U1WUl/chybJVeqVk25CUXYVkKiWboM3WdWTYqdlWlFR4adk1KCi0mOfWDzEeX8RS6cxTT8cltNQnH+/NCfgVE374yQC55sqr8dILLyIlIckMvoIJ1k9MyBRjL2K59BKTl08Z0x5kZnsNvcBgeoEsxjk3Y/MmhoVBhC8P0LP7Y9jM78sWLTGe4sIO5+Ns1uCXcMFcdsmluPC883ED3firL76MKIL5kF5Gbv12wv6RdbW8jY3u/+efJhjYC+bORw2zawM7CJ3hpyA3H28wFAj2cCZb8hRPM7mTt3A73G1gd8aCXxdiS9gWLsBvONZBBnxVoJ0ky548cTJh96HHGEJX/yTHeSNLxUtYkVyGSy69CuddfBnOuvASXHPTrRhNN57OpDMIW5Zd7fMZ2Nrn4DjTSu2Yu2kPZobvQVQB8yjuF2wtBrVRW8G2VNKSjxd2cmYFisrdqOLqUrYXF5vAzHIYriXQ82hZF3Q4D3cT4kesv+UCFUtvur6jcYVpSSlm8GUlFvzAzPzO2+8w7vkVwhn+8afGjWthCLYsu4rJ3EZatiZaQAV7xZJlPPd7PMpESNeS23+UdXGXBzvjH1dfa2C/zIUVtGy58TtYg+scY9mM2RMF+823DWxZsgEdAruIOYWOf0A3rkWoxTOQoSUpLhHVVcqKg7C/xMO0SOPG14UxNI0zsLdv2QGf29cCu8JSgWmTphnLHvTUs3iiZx/8894HOe6e6N/3GQwcOARP9nsGjzEEDBzyIub8tggFTNAEzceY3Ra2k8ood2Lu5r2YvGY7dmWVopTjd3G/gc37MF7gSLCTs5yMy5Lis0TAZqt9NgO7sKyKCZoSB/1sWWmePD3JWHP5JZfRnZ6J65hlP0VAbzCLvY1l1LVXXYMXWeoksPY05wQtmzWxsm9Z0Ui6y870EFo0gq2YrQRNMXtA3/5098zS6cblemVxd7Nkk9U+/+xgTvZcjOLCUhjoyJjdAlsxmwna7SzHvv/mOwNayePknyfhbeYas6fPNNmyftwIbr0sHTPpVV5jKND5wwlblm1iNsOHx+kx95CSkIIxI8fQq3XGrzPncpwbmMyNZbtB2MnEVYtC7STBnjxxCt13f453iGkz9LkXeS8LELEzCnsiYrBj5x5s2bEbO/dEIzkji6Wt2wBWcuarJmzKy+8eykllVVZh8c54TF27EzvTi1FS5UNV4LiX91FNud3VsFQwVpNbYpYLSVRyFqGbrfPIsBWzi8rccLBz3YiXk5SdmY0pnMCejz6Gy5lNC7os7xXGPU20YvZz+iFhb5Q5R4nS+C+/Yu19s4EtC/ySsV/WKTcuF60kqUoxe/1Gs3AEuzdLL11HydMtHW+iJ/inAafSRiXaI127GutWfrCHidwH775v4N9Oyw7CVh4wlbmEYCrMKCEzsAPSNQVV4/34g49M4vgW6+xBzww0lUAVM2fdQ3J8MhfYaOYk/8ScGb9i7cp1JkF7ZsAz2LFlJxeN17STSou1uH8yydtLQ17CkOdeYIL4HvYQtNPm5pg8sNmqYKVsdP92LiiPxqPzCdm/5VxzK5guKtfuxerodExbvwvbUwpQ7PDDVhuBVnsPF9wfhO1340HYkmpPWaIAKu4KuKzs5aEv4h5aoOA/wTiuDFoWlJ2RiRGMhf9gDXwZY/HnrE+/YZ3dlbWwWRgDB9GNp9OKqrA5bJPJzi+58CJTgn379XiTnXdkItbjkUexZuVqWFlry+If7dbduPGhg4dwInfjQ8FmO7lxA5vx2kOLkUW/RE/zBTN0xXEf47axbN6LLF95QR96qlEjPsf3jJ/K3DWGiJ27WmAnxSVhxMcjcO+dnQKw17L9KCZo/U1mHmwn5Wfnm/iuY++wvn79lTe4fZ/97eWi8IMJSqAMLJ0b3B/oRxYrmG6q0OlDWFIuZmyMwJbEPBSwHD7hsJMzywnbY9y4EgCX090yqK3hm7lqBxtgyspffellPMDa+SJapWroRfMXwkXXLMuR676Ci0CWOJ6ZtWB0IeyrDGzFbMImGMEe+PQzJhuXt/hi5Ghj4YrFgi03rxxg6uSpeIQ1/S033mSsVrDl7lWKhcL2cWEuZ9h5ja5ZrryQyZhKPAOcE1VRWo6F8xag68Nd8RVrf3kBuXPB37l1B9v6IcZGxbH/9xmK7mpx44L9+KOPM2FbwGtxEbGdFpFc/ntvvcdafZBx9R+99zFDw5tYtXwtFxuvHVhoZh4VHqXAnLaIx4OwZd3FNLat6UWYGbYHmxNykK8XStSGOmGwU7MrzcsLdl6smFlmenoG616LGbBKk7eYiKmu1cSr5u7etZuxXrlSZcSqkQ1AxkC5Zrl5uWY94GiBTRcqT6GFsWHtehOztWB6dH+UcXK0id3XcZHIklcvX2ke0qiOVimn0utNlkqCLYvUovC78W/Ngxift9o83FE2bt4q4Vgq6RmCsPOyc83C0OKUm1/EakPuvGvnLli7ao0p3byuapOEvUiXfEvHW/DrrLmsGjZzbGO5SLrx/B9QwkpF/Skr370zgkYw1GgSs/LPh4/C4EFDMWv6rwwtDj/sEKitPofIxGJtKQsTQL2KNIuww+OykMsKSbBNIhc438CmF04hN4H2KwR2UqYDftkDYkOz1T6/G9fv2VZHNaJj4jFt6gzzMsAGWpiAqezqyOy7d4/HMYHfhzB+yrpUP6teXvDrPJPhyvKDsX3d6jXMVqcY2Gon2MrcHTYb1q1Zi359+piy6jHC/ZI1qK6h+lllnRKzOTNnm4z9Kp5ryjy66N3bd5qMWkmcXojQI1nBVqKjV4lGjxyFngwLegKnH020Xw9cNq5n9k+X3Z3jmjN7tvmJ8/MRn+H+TveZ59qW4lJafyUWLVyCx7r3xI0db8bsWb9yUW5kmTYC99x1L95+813mMTmmT1uFDatXrsGjj/TA66/RmleswU8/TES/vk/hA1p4fm6R//07tj2SvFyowc+lXHC7Mkowa91ubIhKRzbzqCq10XG1o9zMGyxMppMzrUjMdAbkMlvxPCzsZAO7EsUVHlTYPAgL34JhtOQHGJ/1OFEwlBAp+9ZDCJVJeiZ8Jy3u3DPPNvG0T+8n0ImQFNeVjD3L82KjornKZ6LzAw+ZBfCsYIdk4/379DMlmh6qaEENZoJ24w0dTbjQObL0mzreaB6pCvaLzw9FBBM0PQHTQtOPI3rGLavUROnHDr1r1v2R7uY1pPl024kJidi+dTtGcvHcxXLxBeYb4WHhiNgdYV5K0EsQ79NTRUXGIDoyFmNZZgn0DdffiJnTtSjW45OPh6Mj93Xr2h3rCL+woBixMQn4atx4juEO80xc5y9YsAh9+g7Ao3T54azP9S6a3eZCORdGAb2k1eaEiwvAgAtVCOxywo7IpGWv2Yl1ESnIslTBHdouBHZKCOyEo4ZNd5CWYzUJWmmFC8tXrEYfJkvn0+pU715MIKq1BVWuNCYy2jxFk7vV0y2VZYq9Hc4+xzzavOPW2/Dpx58wgck11ilwV7Iff52dbjJjeQy5cdXZ8hZq9w5jreKw+tDDHEmWr0e2Kt1eIqi9hCTYsmz9iqbf1fUjjSbDRo+hn1UHcEFedeVV5udRvfOtnzL10+Y1DBF6qUKvISnTn8QwcwfLxK5duhlwX3/1DQY+86x5+eKO2+/GDMJevWotLfszXus2Low7ucg/NT9lfjv+O/Tt05+Vx22YPGkqcnPysWnTVgxlpXIz2374wSdYSPhrVq/D4iXLsWTpCmRm5zEjdx8WdgVddFRWGeYQ9vqIJGSXOJnBh7Q7GtiJBOsXg7qRGmpL4FlW8wStoLQKxaV2LPyNroxWpTdQTjvlVCNB7XTPvfiOblMlljJb1amy9tP/fpppc+p//908JlVtrgcbyqbn0EWqzpYrHvzsc8gkbJVJgi3LvvC8C+h2exhvIVf+wH33myd2Z1DnnHGWifV6GifYsmz9SKIETL+s3cSk7SsmgeVMvrxexjYmfpGRkYQz3PzwcvVVV5tf367hGPXSxOWXXY4P3//QwC7mPejXPCVsl3Nst992J136A3jogYcJv7uxYln2UoL6jAma9nfp3A2dWJJ143FtO95wM3o89jg2rA9DRbkV8SrbeA833nSrOda715Po3+9pPMlF8dqwN7GbJWq51Q4Px6rxtshz4HMlQcbnVmL+ul3YGJGInGLHgfZqR1WxhCspZXzOrCRkh1G8Ae4wPA8LW5+TssqRb3GiqNRG2EvxaPceOJ0T/vf//G8jwZIbVknkZparbPeXCRMNSD2/Po2gBf3WG2/GZ5xsJWLBcugBlm3K0IN1tty4ErR+T/Qxi0jxfQsTqvmM+9p3Li1bz+PlDXTsTlqfHqIoNIQx9ipZ1K9eeotFrznrRUS9w60JKSm2GIh6ZUgvTJzy36fgv//rFPPbt94bG/L8EPMzq95Hj2B9/SoXbIcO5+H//p//wOWXXolePZ/Am6+/Tc/W37xPNn/eQoz49HN6i6fpFT7Bdddej9NPO5Nzo9evbmJ40AuHWVxoXhQxeftt0VL06NELHc49H2eccTZOPfUMnH/Bxejx+BMIo+WXVljh5jhbAQ+BbWNVkVZowxKVXnuTyISJY7Adj50Y2JllBral3Im9jD/jv/6WmWpX45L1g4PqUYErZlzUAwsnV2j03khTrz7GUkmWd/ftdzKJecu80eLgcQ1OFqxSSaC+GDUauVnZxrL1C5oybSVgyu5jIqPMT40/MGOW21d/L9CSlQx++uHHrLHpktlelq1FJi+hFxUWLFhg3Lje/TYT4apCVlaWebFQv7nL1estE71CpffVHuVYF/22mHG3yLx4qN/Au9C6b6XrHTTwOfM++/y5CxinR9AFrzdWO23KDIwb+zU2bAgzP2Pee+997K+TScw2bgg3fzyhN0vtrMFT0zIxe/Y89O7dF7fcwiqCVt6rVx9MnDgJObmF5rUkgT4c7KwiJrDborEnJo2e1nqgXQC2m7AtfwR2YgC21eFFaZnVvDwnVzxp4s+Yxlp3/eq15kcMPXY0F+VWP3zoUelSTp4gKY5v4oQU5OS1DFBxWxm0LFKPOvW0S4ulhJOtF//0jFzH1ZeyagHXdZWwyfoTY+PNeQobenomjxLPNsqu9bdXGemZ5qWHoGVLLnoevd6r14YmcmFMnjTZ/3pwr94mRutd91yO0UEPowROC2PixF+wYtkqxMcmss8sbGUJlpWRzXYFSGI9Hbk3mpZbQq+wHVMmTcMvP0/Geo49P6/IWJpZaFV0w1zkmVm5WLZ8NSZNnoap02ZiFeN2cko67Kzl3WzXFrYnZJ+TKrPTunNKkVdUwQXkamkXhK1Hu4eFnZBhg1/WNtK+SiRmlBK2C3auPLfHwyySLj2/CDmZ2abeFQi5ZQ+P6S9B9J63pJq5jC4xOyML+ZxAPR9XAmbaSTxHT7N0vt1KC1AfOt/stwf221raq60WQg49gPqVB5G0SGy0YPWt9qqhKysqzSu8LdcKkcPuMG+vCLr+8kPvtOmFSb3gqFejYrhg5AX0MoL+bElgC/OL6SXsXCxuY63KpPXZwQm3WR1s7zG/Gaj8yqIsJeUGtLkfyk1VUU62K+GxHC6UfPapV7O1T/PaVhqrzgt+d1EOfrc6yIB961jLfWnOdQ2OqYSGmZRRgfgMu1FcBoFzK55HBVsJmmC3dH4ohQ6gPQUGdchj7e0PKvS89vo40rUlthFIybSn9D74uLHjzDvmL77wogk1ep+u1Xkcmzt07NqGfNcxczz0nHYUhNieglBbif1rGzyuBRP83qKQsWgBFh837PQKxKUWI49pvpWrSRerUsdS0BJDLxy4qP84J5Ru1HxuM6iDzgseD0rt2p7H6+n3bj3qNPtD24Qq2Efb/QH5XfuB76rB9adF93W6z7yguHD+QvNeWug5wT7dXPAOerbgfgOZ+6pYNmnbsl/Wqu8h42iBd5ixHY3M/Js+2nhTbkNhJwRgx4fCjk9nadBKlS2f49LKEZtchFym+VZ25GL807NxTbqRAByP2M8x7T9WqZ9DKdBGbl7flcTp4Ur3bt3N++N6+KI/QHS73fQAkjzBgfPMZ/XD4636De4L3R/8fiLV0i/nP7CvKnA9JxPBohLG5/Ry8rMhzojAuRXPw8KO50nGskNgh964UeBCfzaZ++BEKWnTy/1y4XrVeMniJeZN0eBE/uvKD7uKEhfdU1vYfh01bPr+tBK6cT9sddx20g4exJ9EgbHLcvUgRZm53HlsbKz/b6zbtv8XlAEt8V702cGsvpCsEo4XdkK6pTXsfydpkgjbyUw++KhUmXy7bUMVXOjHI56veTxaBa/Z3jFJsJ3sV1uVcIWWY4IdqgqTjf87ww4CUKkV/Nzq2IkW+24L7HAKjqe9Y8aqqaOGHZdWyUTsUCo3lp1bbDcvtruqmKz8O8okYQc+K3mTK2/Zd4KleTwRcgbkkHfi1sa6v6CEcNPKyE4JtsQkzWwr/+KwBVPlXAjoVseCn9uTjh+HXJQzIH1uC/BYdHjY4nfMsEsI2/bvC1s61PfDKdj2GGUAB8V+jlbtjUH7W8OuImzW1YeEnaoHJ4dSKU8sRk6RFRU2ujaXi4P8NxLd9UHfj2bfCZTm9Gh0qHMdlJ3j09ZKRvn0wvGplgA/Ak8laLOtOBrYRf++sINirX1IoP+fYUuhUI9Vh4ctCbRfRwm78siwg5PyZ1Jw7EcD+1DH/5clJq1h040fH+yyo3fjoZPyJ5P+OL+9/X9Y7c0TFbTK9o4di4L9tA9bTz+DHAWbpVdsSgUOLVp2KmEXVqLc6oTD6YTzcGK54jipFrU3R5rDULXX5mil822UNbCtIKPcIiZkKcVkV0aVBzhWGh0GNlcDT4hPLSFs69HBpkJv5KQOVntzdryyU4Jc6XQY4H7YTMhSisivtIXjEWDroE6qQALT+JxCB8oq/Z23dwOhUpuT+p+RQPth+627tWULdhvLjkkux8GqoKyI5TaBvj8r34GScgcqbVxB+n+AOvyqPKljUgVVzvk7IQr0F+yzQvsqHYRtNz9LxyRbqLIATz/TI8KO5+rQO02ZOVbk5EuVVLlRVl45MoPK9Ssjp+ykDqF0iXN0opRB+ee+jHx4jWwLkjMs5FZMfu3AjuWHg0XTT6LpJ2nLrI4nxadYaOXFfrEcS6QSmKknpJWc1BGkvKdFaZaDFMf9x65i018iz09k9p1A151Ii44n6NjkEsItbQO7nKUX/9NKgmvkBx2TyBMSeWKSOqBSQsXVw9gQKn8WKOnzSfknPUTa11Zt2xylYglTeZXhRUbxiVw4Zn+wTRvY7Vt2QIJtRHg8MZZ1t56XG5k6jm1MEtBaMYTtv9BJtVV783W8iqPiCTuerPwinzbXC9Xfogny6FXajtprd1L/M6L1UrFByQuHHPPL0qJjhH1SJ0JRJ0hB2EHFct8B2P7jJ2H/L6o9aH9EB4AzRFCtYfuPB/W3KP7npP5nFBnQ3hOkYH/qOwhd27bX9asU/w9z2bYnRnLdlwAAAABJRU5ErkJggg==;" vertex="1" parent="1">
          <mxGeometry x="470" y="509" width="123" height="89" as="geometry" />
        </mxCell>
        <mxCell id="enYdKQxFRi82km_zU35g-15" value="" style="endArrow=classic;html=1;rounded=0;fillColor=#3333FF;strokeColor=#3333FF;strokeWidth=2;" edge="1" parent="1">
          <mxGeometry width="50" height="50" relative="1" as="geometry">
            <mxPoint x="249.5" y="261.5" as="sourcePoint" />
            <mxPoint x="490" y="380" as="targetPoint" />
          </mxGeometry>
        </mxCell>
        <mxCell id="enYdKQxFRi82km_zU35g-16" value="Pull the code&lt;br&gt;from SCM" style="text;strokeColor=none;align=center;fillColor=none;html=1;verticalAlign=middle;whiteSpace=wrap;rounded=0;fontColor=#e2472c;" vertex="1" parent="1">
          <mxGeometry x="320" y="338" width="80" height="60" as="geometry" />
        </mxCell>
        <mxCell id="enYdKQxFRi82km_zU35g-17" value="" style="shape=image;imageAspect=0;aspect=fixed;verticalLabelPosition=bottom;verticalAlign=top;image=data:image/png,iVBORw0KGgoAAAANSUhEUgAAAJIAAABYCAYAAAAeCK5cAAAAAXNSR0IArs4c6QAAAARnQU1BAACxjwv8YQUAAAAJcEhZcwAAFiUAABYlAUlSJPAAACRASURBVHhe7Z2HexPXtvbPX/I997n3lC8355DCSUICCb2F3nvvvYRiqoHQAyT0FgjdgE3vBky1sQ2mGVe5927LliX3975rj0aWbNlUxzJHK1kzoz179uzZ6zdrrT0amb9EJ5XAmRqsGpNkoZq5LWpxWtetTV+VrRPF3rVV9tnXjUq0UM2ITiyGIdHE/SbUA5KFamZDojzABlLpB9Qytza6arawgaRgEuchag+SbrO3BknAKWZDJqWyrYHkrDPvquXUCrc2msr4l9GupQSoFLEKJB2iaphkf7XNShElHNhAEkaK8ZcoVtS1GiTxRjpERXZa7ZmcqWMH3kSl49pFuLURVMbfaotYghFHjVVgaM5Di0ZiWw0mQzKho2qORsq1aBWbXAMkDSatgrgrgScuxYSkDAsS04qtatLWqaJmmya9k1qoJW5tNJXxr2kTsasJCUrF3iVISCsjB+WIUSBp4c0+YsUmM7RFJpdAV3FZmmcRz0MPlFyIxHQzcoxArrGKWoE8Yznyuda00qYFVjW+lVZR4TJaUFD1H6a0WUGF0nxu57Esj3YRO+eI8nNuIZCVDzqTSvKg5VLVIGnOJja5qB6QEgt5oBHJmRYUlwGWck1LRSuAskqqrKnl9sr9ulbYK/dV2ql8dgWt2ef/VNVtKbYVLbFqKe1cZAHSskEuND4kakUrRiR3FofzBiClZpeAHIHnAtsF20UV1S0fv+h2NtP46TmVZKOYAJk5YyummphsF1ELWV5YP0ixCiQLytiiopOqPBG1gmW6VjpT1qkS6nTy6tJGlir2Qfr6VirHUOXYj03kkniJSnVbi0dKzeYMT8AhG1Gi3I5KKKQa6wcphiDFEaS0LLMCSXd5OkT6yeTESqXMqgKQri4NEs9v39c3VZfpf4NIlfpPLrOci3JeY1EJkJLFJJtMVINk0mB6nUeyB0kas+VD3BaQZAxrqj1ItUlzUbXv65uoszaautpEPlRyWUHlkh9pcphKxSPpIBGgDwISB1PBok7s2B9Vbl/wJtqYIuevCUp92tj9/VNE80cKJH6Sy5bJVlpOmc0jRSoVoAgSNfpdQKpgy/Ygici2vdYqqEsbW6QP9qC8Tl2hz3+CaMGt+pLNCqQKlSOJN9JBik4WJUjJtUDSnliqJ5o8KI4V7EGSqbIzkETks6jNK+m9qEtdQZz163X6MYvt+qpBEpHHPvYgRegeiSBF1Q2S9bE5Y6AGkqUapDeAyAaSrm5pGuJgL21D/1gXSJFWkKJeCxLjnz1I4o1s57KKfBbVIRK1Fbql6YiD3RyNZ6kR2gSkiPcCybF923ntIfoYn638R4jYTVdtYZMGBUk/pz1ECiS11y1NTsRwutawYoOBpJ/PGUSibmmCohtPGdDRijpI6rmRHUgRBCnyXUHSz1UXRKJuaYLiYEBHK9qDFJlcjHCCFE6IBKQIghT5riDVB5GoW5qgOBjQ0Yo1QQoTmAhReIoGUsTbgqRP/+uDSNQtTVAcDOhoxQYHSU7nTN3SBMXBgI5WrAukiPcF6Y2m+FLHmb6rvM+xbnm9ONjIcbCdg8SEO4X6LiDJA8k3MqjeobrUXuoqt5c3qeOW9xOHMXYc6A8OkrzU5XDCmqqLs326Om5Wi9NCq+j76trvlvcXhzHWBlqPPHWClFqMSIY3eQTw54BkJ/JRmrFv6rWiV3yjym55J3EYY22g3wik1D8LJCWyob0wJUtphs3Z3nexP1ST2iUfVPS+/RnaVMShz1rHdZDUayTZ1SAJROES1hoeJH5Qr0nquIhaK8iKu6qs7anXV2sdb9WGEr39D6ki+tpe7Pe7suj9VH3VOmwDSb0hWW4HklnLjxocJAUOMQZ7IFolv0GxCtuoNLO0kDVMrFnC3axe613oWm06EWf7ax7f0Kr3uy6pWd9VxaGPWkddBCSBiDAJROrBk/axIgeIDTHB1ycCwX6ZSDEAJUXcZ3+8fZv25fZSs05jqlybCLdLLRVIT81EWGgkkhJTUSo/v6k5bq4m9n1T/dM66QIgibBAyuQYcUjFXCUCr3wLcGh1EDwnnsOvi+/B92QOUqIImEU7xCZ6m7rWlJr7G1nFo1byOrMycnH1ii9WeK7GoYNHkZmRg/Iy5oVyb+n1G1vs+u1UtUXjgyQOSMZNlQlE7EhZHBB+MR/HPZ/Bo88lzOx6AfMH+WLHkkj4nTUiNZaeibCp+nZt1Wzftsu+3BVUxoaakpSBfXsOokf3vli2dKXySuVllbVBst+uKfq+t9U3FWfH2qu2aCSQ7EQeXMpTcAUFw1ZVMvD8XD4OeQRi6QAfzO95BuvH+2P1RH+smuyPrStDcO1cDuIZ5oqMPI+i0FHkji8trYLJVIaCAjMKjSUMI5wD2hvI2g+pW2IuhzHfhIK8IrWt6qmdmsrPyMs4QOVU8SSyXcQ2pV1LcQUqJCrbt8025RjZV1hgYdtmFJvK1fG2timJ8WnY+usutG/bBYs9liM+LpltVyqvVM51GUNdBQe0Zk4o5RZaTEKhnFvqS5hUP2/nZwunTqZCC8ymUq1v+vEi+ppSTkMVF5lRkG9k/8w8Fyva7VdiPWedqi0aHySpp56CEyIT4fA/mo8tk+5gVgcv/PTjKRxY+AIBRytwbW8Rti0Khcfk21i1KBhnTucgOprH0DPZNynbZg5qSko2noSEwc8vAP4PgxETnYAiGtWWg1gNWmS0ICLcgFu+d+F7ww+RETE0PjN8a6NihPzcYnqPLOYzuWo7mdsBD5/gwb0gvHoZjexMI6FhRWmbWsZJQW52kdp3784j+N16iGdPw5CRlqf2iZgKy/Ak+CVWrdyAtq07Y9aMefz8AtlZ+cjLMarcKTE+Gfl5RuWllKi2K5GSnIEo9jMpIY3nMbLdHMTFJqkbISsjD+Fh0Xjk/5jnDGXf8lHC8XC4OShyQ8g5HgeH4OaNW3gW8pznziHIQp5WxybyuS7VFo0PkkgFT55NiG4dyMS60bcws9MJLOp1CYeXhCLGlxWYL+WHAQ/PlWPbmleYO90Pnp7+OOltwMtIE4yEyTrUCsqXNODOnQcxdsx09O83AkMGjcLKFWtx++Y9FOSK29PqptMAPqfPY86s+RjYfygGDRiGxYs8cfWyrzKAiHiRu4Rx144D2LvnEM6fvYrtW/dizKjJGNB/OGbPWohTXudoQKMyVilZNUQl4eSJc5gx7Sf07zsUfXoNUttHDp1CfGyaqhcc+ALr1mxG18698Y+/NUOr79ph7uyFOHbkJC6ev4ID+w9x/wYa+im9hkafHJefa8K1K7ewY9tenDjmzRvgnlpv2bwDZ30uYe/ug5g2dTZ69xyAyRNnqH2xMUmEURpQzai1QPbblu0YOXwM+vQegCmTp+PwoaO8kaIIk4QHq+g2q0u1RSODZN0uzgWeXMvFhkkCkRdWjbgKn40GGG6xkTRWkJlaAZDJ3Oj+LRN27Y7A4hU38fOmazhzIxxxaQwbqiXmHakF2LPnKI08Gl9/1Q6tv++Cb776geGjM5YuWYnARyEMCVXIIiinvM4SiAlo/sU3aPav5mj2zy/R4utWyhCXL95QIanEXIVjR70xeuQk9OszFBMnzEDP7v3x9b9b4Z//+yW+/aY1pk2Zg6BHzxREyYlZOHr4FIYPHct2v8WXn3+Lf37anOsWCuhjR7wJaSEuXbiB8WOn8Zz/xn/9v7/jb//zKfvaEZ7L12DPrt+xYP5idO7YDWfPXEJOFmM4RbxIUkIm1hJAAVnWXsfPYsmiVejSqRdGDBuvwG35bVt8+snnqn8jho0j1GeQmpytxltgDAuN5rGb0P3HPryOlmjxzfdcf4fBA4dh/74D9IRJ6nw2sbddTdUWrgFSIWHxO5bExPo8PAfcxMXfkpDgzx0ZVHZMfzpQxoiTwrr3giz47cBjLN5wHnu9g/AsthAykZOb7oF/KKZPX4IunQfybpuG1at+pcfxoGcagrlzPXDD9w6MRjMe3A/ErJnz8H2rdmjVsi0NPxqDBg6nZ2ijoBPPJKGmIM+MfXsPs71e+OxfX9FgPTGMkIwaMREd23fHZ82+Vkb08b6kwlVEWCzWr92CH7v05p0+GDOnz2M/xuMHQiJeZ85sD4Y8A8PJfXgs8MQPrToojySgDeg3HDu278dxgjt/3mJC1pye8HcaVgaC10fH9OpFDCaMm0kvNwQb1m2jR72M6VPn4+9//YxQtyXswzB29BQF8heffUOYv8NPcxbD/8Fj5V3zckz0dscwcMAIesNe9FozsWTxKkI0Em1+6IBJE6bg+tUbzLdowJp2c6bawjVAMjHBvnU4Fh59z+DAgleIu8vCHKoAxLZsyjblz6Yk0oOd8UvFql03scP7CQKjjCjkPuazOHr8MgdpAkYMnYITRy8gPiaDQITi9/1HcPDgMQQHP0cW7/Ad2/fR2L0IQQ8mup70ENcZtq7QgEvQoV1X9O09iKHoJPOIPIYLgkRYxLuMGjGJhvZh+LuNNT9vUuXft+xIgx+k5zAxrCVj/94jWDh/OT2TNx4HvWTbvpj/0zIFngBw53YAvUIsIbhEw82ix2xNTzKMnugPFfIC6d02/7JdnW/ZktV4+TxaeaMiYwWPDUT3rv1p+DH448BJ+F5/QI84jyB9Tg8zAL9s2MHQdwcXzt1QbX/erAU96CDVl9zsYuZCEZgyaY6qu2jBSobtINXnU14XMGzIGPTq0Q9bNm1l3Tx6LxrI3m7OVFu4BkgWetLbBGlRf2+cWmtATqgUUiVe6e0oqVBsZbH89stCrPvjAXacC4V/lAm5PGcej9my9RCNNRozpnrgwZ0n6mm45GCpTL4TEzKQnV2IJCbLUybN4h3YiXfrIjy8H8wZjpaQ3vK9z5AzVXmen1duRKwhlQY+RLCGon+f4Tj4uxcNqs3AHtx7wtxnPkNSZ0K1mWEtm3e8WRle9iUn5qhwl5luZHg5T88kXqwHgb2OnExCF5lMo+1Cpw49CdpSRIbHW+sXwPvkRXrGbvQuU5msB8BcxHCcUUi4TxOwlpg8YTauXb6L+3ef0KvMRQuG8XWrtyL0Raw12bfg3Jkb6PHjQLRr3U3tC3sZz35cRMd2PdnudIZvP3UdIjlZZuZ++xRMkjOGvgxXM0Ylut2cqbZwAZDEyyTQgIdisGjgKZxaF4lMAYlhTMUqgUm8kSKqTIEkzupRfDk2eQVh92XOUGItyGG9bBOwZ/8p9Oo+HF079cOq5RvgT4NmpOZzJlbKmZX8CbtSJrCh6N6tP7p17Utvc0h5HT1bj4tJZTj8hd6qD0PIdHqIUA7w7/QYIwjYDCbsAVpFSijDzLIlawldH2xcvx1pKdqsLCujiF4wjIa+o+748Fdx9GB3sGDecvToNoAGvsb8q5QzwRzsYNsd2vXAooUrGcIy1ZiYTVUMRSEMTxOYNA8heDeYZJcwUc9g2NyKr5r/gBXLN+Lp4wiEBEcwfC4iLN3pgc8TCLkDKbye+NhMeqsFaNemBxP5ZbxJHjFJ/4MhtjNmz1isPmekcaaXbmIOJTnjReXFRo2YwNB7BxXyN4pEdLs5U23hOh7J70gcFg0+Ba/1YUh7wUIBSQBSEOlSpdiS+VRQYjk2nxSQohBgKEYeQSpmXd+bjzBu1Ax82ew7fN38ewweMIpgbMKVS35IiMukJyjmlDyYLnwwhg8Zp4xaIueySn6uhV7nOMEZrvT+3cfYuf0gZ3UjeefPVgbWJSIsgV5LktYBNPBvBLKAibSJBvJnAryaMPZTXmyxxyoF3OiRUwhvP5w+eUmBIR5r57YD9Ei9FEjSPwFAnv1ERyapYwSyPbuOEPAMPH0SSZhnomWLDqrMEJXK0PmKOdICtG39I7yOCUjypFYTAXrFsg085wB6Tg9eqy/WMGf8+t9teW2jsGzxOvyyfhdzrR3YvHE3Zs1YxLr9Va4mkw395nKwXU3VFq4D0q0j8fAY7AWvDa+Q/lIKqdKGgCT1uC0rmQgzRUJQchk2n3qEXZciGNoKkU+QpGpcXAZ20/ADCMEXn7XgzKU5k9D2mDB2Fo4fPocXT6Lhe/UBvdZgFTauX72n8g9dCvPLOLPyYQ4yWnkDgW7Htt85uCMwafwsBZYuAtLqVZsVSAJUUkK28mBS1qVTbybSnZj8Dud5pnHGNlZBIWFMQBKDCzji7Tq2l9C2XB2vj5FAuY+zz47te8Fz6QbmRsHs6wOG7eEEdABzoJv0JoWcLb7E1Elz6XV+ZNi6UA0S28jNNqucqXePIQzl8+hxLhPO9Wj2aQt6tTaqnd49hymVdjt16MM+d8WwweNVDqj6Ym2rTtUWrgFSMUHypUdaMOQ0Tm6KRmYYC4UYIUO0Up7uVjLKVcnXcMjgcYHJ9EingzSQoo3Il3Nyn5kAvnoWg8MHT9OdL+EADcXnn7Xk9P473s2z4MUE/PJ5Pxp/oPIQ167cdQApL0c8khcG9htJeEbSAz3Ftt/2KyBktnTn9iPtRJSIsDgVBsXLrFi+HjFRKUzEz2IoDSEeYsG8FZwheSmPNmXST+pRRLs23ZhkX1UGl9Cz7TcttElfxUPpY1KQV0KvcIuecwjDzVwm8Cfw+76T6NKxH8GcgUcPnyuvJv2bxHxJ2hVABR4Ryfckud60cSdBGYqpk+fD+9RVLCeUAlKLr9vzZhuNcWNmqptM1mNGTcPE8bNVviePM2y2knVdqi1cBKQU4ObxRHiMuADvbYnIimChA0jyV8EqFEhMg5DKtv2TyrHF+zH2XolCYEwRjCyT/EkuqIobedmleMnE8zzv3DnMD5p/2Rqtf+iOlcs34yJB6tVjKL3EOJz1uaYSXF0kod3BcNO39zDmCpMZOrQcSUCaqDxSsK3fGkgbVa7luWw9k+VE5QEklAwbMoH51CP2o0TlIV7HL1gB646z3teRn1NKD5TLtg8yqe7BpH8ZP2fZIJV87umTcCbokxlWxxDKVQyX6whjN55rA2d9cSoMSw4mILX5oStOM8fRPZL25LoAKz03ctY2mAn0UoJ5B2uZdH/7TQeMGz0TB5lPSp50+2YgE/og3iRBapLw/GkEx6Gg2layrku1RSOBJCpiXZuZGtw+nYxFYy/CZ2cKcgwsFCrEU6jffsu7ktpHeTaZyg/34iux2TsEe65EIzCWILHMzHPK32WqkkTKahCRFy/iMGv2UnTvPgQL5q9mIhlIQ09Urn3HtoPITNMe+IlIYryCSXrP7gPVtPpJ8Cs1tZd8SRJR/wdPrDUFpFgbSCs9N6hp9Pq12+jJRtPoa5CeYtS8HfsWFBDK8OWpQtUZ72ucmXHMYiS0HVBlEtpk1qf6zfqSJ+XmFGMp2+nRbTB6dhtKDzIWndr3Yeg9q7xXQV4pDf+Y/fyJMHYnrOeUF1LCdgQ2mSAIqIs9VrNuCH7bsh/ft+yMeXOXqz6J53Kwh74t/bD2pV7VFq4BkjGdHukMc6QJ53B4SyRSw1koHklvgyLXK46D8yswz8ZtwrbZ+yX234hHcIJFgVTEwX9Fr3D39lPezTEw8qaSfiRxRrKas52B9EALOaBBQeFY5LGG0+BeDDlzVSIud7IkyhIeRg6fpJLOtau3qCn5vj2H0b/fMPXwTr5j0yUyXECSZLYPVq3QQJLZm4TTWTM8VDIsszhJ5v1uBaoySawltEkIkpxoB0Fqy+n5jGkLEBWRoB5DqC932W/xlOINBfjPm7XCdy0604tOQGDASxQVlLMuZ6/+z9mvOfjsX98wYV+lQp2EvJSkXPzBEC0zSjnn5l92ISo8SXlg8ZgyC927+yhSEnMVtIVsLyIsHi+fR/HYTMc3EOpTbeEaIOVnVeLmhRjMm3gKm5bex9P7hTALMdb9ck3iZOReS2VHg9OAYw/y4XkwELsux9hAyjeX47TPdSz4aTWWLP4Fp07ewN17z+F18jLGjp+Jvv1HYS1DT7QhHYcP+ag7vX2b7urJ8P69RwnMEd7B02lYJpxDxnPQr9DFG7nvMEPbYEycMA0PHwRJl5RERghI65lv9SF0m5g8p6t2JAxKon70sA+ehUQigMb9dfNuBZi0ffqkFoLUrG37AQLSDl079yE0+xg6A5GWYs2VOIY+p6+gX++R+Nv/fIEvmn2PWdMX87hc5ekEtODAl+pm+Ot//5P5U296sNXM8U5g985DGDJwDAH8FoMGjLad88WzaOVpJTkfxlmr5G/yaEKekMsD1o3rfyP096vzRulHfaotXASk3DLcpWdZOuc8lsy+Aq8/wvEyxIw8wiQAiSeSkJbBToYwn/J6aMS6E2FYtPueypFCEs0oYltGgnRYZlz9x9Gd9+JATcaM6YswePBYtGnTFaNGT8FJDlgeE9mQx+GYN2cpc4suTDxbo3PHHgwx3fHvL1vyDu6hBjUyPA7FReVMcg8zXA3B5EnT8fA+k22ryDfwa1ZLGOyLdWs4a0vMwLWrfkxsZ3P20xHDh45T7Uj4Gzd2Ks/VmQbsyqT3Ij2SSUF69PBptGvbVX3XJk/ZN67/lTkKZxvWsQl4+FQlwp/84ytO29szdO7gzFKzsni6oIAXCoxPP2nOkNWJUPdXjzZkdvjJP75Q3zN6LluHp4/DlHeUB6aHDp5k3jWCALdRXxqPGzNV9VXGYOL4acwhrzq+nqPbzJlqi0YESVdKobEUT4OzsWtLEJbO98WKJTfw+/4XuP+oEGkMT/wfqRyEJ8mE6H4eVh0Ow/wdAVh//Cl8AlIRkVEO5qbqpzAP7j+G55J1zCkGcaA6cCDb4IvPW+DHrr2xceNWhIYa1CAVGctw5YIvZs+YTwO0w///+79ozP9lMtuBIWI5k1h/WMwV6p0ir+M+hGMGli6W79+eap2mxMYkYNvWnZz9jcOvW7bTU2QgIjwGe3YdQL++g9UXol0698DoUROUgYYPHYMRw8dxGn+b12xRbd+/9whTp8ziuT9hePoS8+d5qFdAVO4i5zCkYiET7W8IUeeO/XHi2EVYZMZBkbWEMgFJIJJ8aMSwiWj1XUf8/a/NVLiTJ/jXr95hPsXbUcabdok1pDA33Ke8bPMvv2Xy/QO+av4doerJEL2OEwxeo9hPF3t71VRt4Rogyb9vkck86f7tXOze/pQJ8TnMmXcWG7c/wo1HxYjOBZ6mEqJ7BVi27wmmrL+NZfuDcS4oF8/TqpDJMWL/VV5upnEiXsXC69gZAuGJCTTgrBk/MeQcZN7E3KKwxGYkY66J0+hgJtP7MHfOAg76DLr6vXgU8Jh3bqHqn7yg9vzpK5w9cwHXr91k/iCvI2iSm52Pe3ceMPn1IngPkJdbqN5viiRMJ46fxuxZ8zBzxlyGmiO46XuHSb4fw+VFxBgSGJa0F+3kXaLr125x+j8fs2fOxYHf/2DCH2ULLfL93cb1O+mt+mPY4EkMky9QLvkjxcJYLw9IZRIgoerA/uPq65ctm3YT/LnqrQB5Fyoni9diL7wuyYMuXrgKz+U/q+uew/P/cfAonj97pV6K0+u9VrWFa4AkUsrBSWfYehZiwZHjr7By3S14rLmNzYcMOHrTgm1n0rF07wvM2x6I1cfDceZxEaLoqnJ4Hsmd7G8gecsxKzNPGUy+Mwp/FcmZWRbv4BJUlvKkevznurjQzJwkk54kGmGsl5KUrt6WlDcOBSKRItbJysxV4JTKX9u0irzNmJuTr+DKzSnQ3kbktZewjtSXF+YECmlTXjorNBareubiUuUVpa685ZiXa2S+ZeD5I5CclAqT/DsM1rFJiMuAx4KfCVI/TuGXEdIk2/djEqoCA57RI81VYVlCZnxsOs+XrR5NxBqSkJ9XbLsOJdZ25f0keYFOvGroi3BER8byZs5Rb1XqN5pNdFs5U23hOiCpV145fkYmQ8/CSnH8XBxWbQvBnPUhWLgtGnN/DcXC3WHYfIYzj6fleEEvlcXj5fGb5FF2Tam2yssrUEaVdaXqEHeIy9L/XQsRKaPKwJWVsj5VDKyrekWVIl9eyquv8t2TXiYnlG3xHFIua2UA2S/Nc11aUq6gEvjUF6Ask2P0dqS+fowqL6eX4lrObeHNIK98XL54Wz3v6saZ26aNu5HGGahuaEm25fWQyRNnoUO7HwnSBcIu2aQGioDtMDAi9p+tfSkxl7F+jVd67UUvc6ba4u1AEngiRRsAJNmWzkhRHmP/y5hK+NxMw8+7H2PeL/exZGcgdhCuq8/MCOOkJpPty5DJWKlx1a+EUsXtSrvPNpE+WQ2qTqSva4qU2ZXrBncYaHsV4VrBYd+mdb/ufRw+63VFa4iluAyG6ARC5EsvtBitvu3ImdcYgnJZfdmrty+v9967E8BEfgpng53VC2y52TXCmL3IcXr/rG0oqblt/1lEL3Om2uLtQVIwfXCQtA1ZymECRxHbiMkELj7MwM5Tz3DkmgF+r4phoCfKYQUJZ+LhtdPwSAcLOhHZVZe+i7zPsSLOjreWyXvb16/J7G+OeldJJgwL50uiH6rCmS7FJs527/gzR5qm3qb0PnVOHWsTaa8uO7yr1GpHa+ytQJJ/DfCDguREFEjcZ6EWEJiEPOCxgR1iMp7KOCZeSACSG1zqOo5UPaJXcaauItb+SALuc/oip/EDOZv6Xj3bOuN9mTlMvhaurCL5jMywVnj+TJimMqH3Yy5WO7H+4Nfp0KbWcOOBVI/IbgFFbj4TP+Rz8OQNSD0fknNI+NIg0k9Uj8juutSVxNonY4GZk44w9TqLvC/ld8sfKclZKsmWxFkPiyW0WkpyGgIePsIdv3tISkxReZmDNMR16m2qdrXGXQsk6z41UFxLEzIs9mo7VM9S3wckVxNrv7SvLORrjiyl8t64/JZO9tkiuGxz0lBaUooizlAKjYVMmGtAJGKt+0FFb1O1qzXukiDZs6EXKbWWKVEfamod4qyqqKtJQ/SrIdtU7WqNuxZIIs7q1qV2H1TCXVPl6pwqd7uivG2/6J7kPa1qN1VTpKwBLlZvVjWttS/DKvLnglSfOKtflypxtsOqtQDSlbubikhfnfZX3/Em+oHFoWmtfRlWEdcAyVnd+lSJkx21wKmprNYURPrp1NlIwdvoBxaHprX2ZVhFXAgkLuzr1tWOTawFDqC8TrUjXVqkj04hEpHCt9EPLA5Na+3LsIo0PY9kE2c7reqkSKmri/TRfvxcTfR+qb5pHWwckOzVmah9XNjXq6k2cbZTtAmLq1+CwzBrHW18kN5H3dI44mADzRAfD0jOytzSMOJgA23QmzZIoiLOytzScOIw1tqAN32QnKlbGlYcxlobcDdIbnl7cRhrbcA/PpDc0rBSa7y1Qf+4QHJLw4rTMVeLtwNJ4HlTkN7432tzS9MRsWdN1RYKJNkqdgqSmRBRCZQNpDd9Z1v9CUJpXDuPWz4WEXs6qNXAXMmWBlIZIm0gWRBBmCIJUxRBiko2vd2vSOz/TVs5QV3aEOLsPG59P7VJrZ1cyNr6UUBKyS6lwylUAIWTlQjCFMntaIGJcL0DSNqvOdT56tAPLc7O4db311qidlTvlaVkMyYBKYeMJBkJkJ1HsoIU/VYeiS1q4a2SIMmfpKlftS68vzpr260fRh3HWgdIx0erIS/6FhKkZBtIJi1HIlAS5qIZ2gzkpB6QihHPgxxBqqoBkvbHstzaNJVuwaq1QZKYI3vkhxkCUkou+Ug2khP5J9p1kEwwpJjISz0gxSYJSMVIzy6xeSPdI1UQJA0l939N+b8qeZ1XKeGxU/VjVIGIH8kQjKQpJbeMiTWTbZmlpUh+pCXZBmoMcyfnICWWIDbRjHjGvwxm6wKSeCX5VbSebLu16avOjqLGqvJZ9omt5U8qyM/HBKTk3HIyUmSdpUmCLbkRwxpBiq3bIwlMGkjpBKmUJ9AdoKicRMBya9NRsVktpTHlIbOo7pxkW/bp3khAkh+1JtEjRdDziCeKZLItIBnIRww/xxKmOkEyMEeKYXhLziiB/EM+8gc75F/VdGvT1FJdaUdd5SdzusqfIRKVbalnocrfODdRcy1AAqf/jiBZ6I2YSxOoWJb9RT2MtKqAJF+ZCEwCkoEzt3i6sqz8SuQYK5FdUMHtMmTmlSKdWXx6jqzd2hQ0Q1cCoWumnWYx8mRnl3O7TNVPZW6cynVafgVS8soRmyHTfXkgKWthheGNjiaajBgS7b4i0SHSQYpmaBOQYpJMSEizIJGakGZGQiqTcFEC5tamrQlWTaQm0askERLZln1xnI3FplLTyAA1WhJtBZLmkSIJUST5kK9NohOZbOvw1Fa6LuWVJMQxFrr1o1SZVMVJPmxV2ZZyg3gbJtHRyYUMYxLSRHWQNG8URSej6siszTlEogRJNSgq22792FR7XmghTJrGqbVucwGJoMhMzUG1WVu0db88jDS8DqRoNqitRZ3VcWtT1uoZerVqkFWDIiBVw8RQpsq1/Ya3B8nZfrd+DKomVlbVQJJy3fZWmBxUA0k8loAkT7Vjkgrxf5VWSwS/IvIdAAAAAElFTkSuQmCC;" vertex="1" parent="1">
          <mxGeometry x="630" y="220" width="116" height="69.92" as="geometry" />
        </mxCell>
        <mxCell id="enYdKQxFRi82km_zU35g-18" value="" style="endArrow=classic;html=1;rounded=0;fillColor=#3333FF;strokeColor=#3333FF;strokeWidth=2;" edge="1" parent="1">
          <mxGeometry width="50" height="50" relative="1" as="geometry">
            <mxPoint x="493.25" y="291.5" as="sourcePoint" />
            <mxPoint x="553.75" y="330" as="targetPoint" />
          </mxGeometry>
        </mxCell>
        <mxCell id="enYdKQxFRi82km_zU35g-19" value="3" style="ellipse;whiteSpace=wrap;html=1;fillColor=#1ba1e2;fontColor=#ffffff;strokeColor=#006EAF;" vertex="1" parent="1">
          <mxGeometry x="470" y="302.5" width="45" height="26" as="geometry" />
        </mxCell>
        <mxCell id="enYdKQxFRi82km_zU35g-20" value="1" style="ellipse;whiteSpace=wrap;html=1;fillColor=#1ba1e2;fontColor=#ffffff;strokeColor=#006EAF;" vertex="1" parent="1">
          <mxGeometry x="127.5" y="372" width="45" height="26" as="geometry" />
        </mxCell>
        <mxCell id="enYdKQxFRi82km_zU35g-23" value="Build" style="text;strokeColor=none;align=center;fillColor=none;html=1;verticalAlign=middle;whiteSpace=wrap;rounded=0;fontColor=#e70d0d;" vertex="1" parent="1">
          <mxGeometry x="430" y="280" width="67" height="41.92" as="geometry" />
        </mxCell>
        <mxCell id="enYdKQxFRi82km_zU35g-28" value="Execute SonarQube Report" style="text;strokeColor=none;align=center;fillColor=none;html=1;verticalAlign=middle;whiteSpace=wrap;rounded=0;fontColor=#e70d0d;" vertex="1" parent="1">
          <mxGeometry x="560" y="459" width="100" height="50" as="geometry" />
        </mxCell>
        <mxCell id="enYdKQxFRi82km_zU35g-29" value="" style="endArrow=classic;html=1;rounded=0;fillColor=#3333FF;strokeColor=#3333FF;exitX=0.282;exitY=-0.071;exitDx=0;exitDy=0;exitPerimeter=0;entryX=0.25;entryY=1;entryDx=0;entryDy=0;strokeWidth=2;" edge="1" parent="1" source="enYdKQxFRi82km_zU35g-11" target="enYdKQxFRi82km_zU35g-9">
          <mxGeometry width="50" height="50" relative="1" as="geometry">
            <mxPoint x="450" y="490" as="sourcePoint" />
            <mxPoint x="530.5" y="450" as="targetPoint" />
          </mxGeometry>
        </mxCell>
        <mxCell id="enYdKQxFRi82km_zU35g-30" value="4" style="ellipse;whiteSpace=wrap;html=1;fillColor=#1ba1e2;fontColor=#ffffff;strokeColor=#006EAF;" vertex="1" parent="1">
          <mxGeometry x="530" y="459" width="40" height="26" as="geometry" />
        </mxCell>
        <mxCell id="enYdKQxFRi82km_zU35g-33" value="" style="endArrow=classic;html=1;rounded=0;fillColor=#3333FF;strokeColor=#3333FF;entryX=0.5;entryY=1;entryDx=0;entryDy=0;exitX=1.025;exitY=0.194;exitDx=0;exitDy=0;exitPerimeter=0;strokeWidth=2;" edge="1" parent="1" source="enYdKQxFRi82km_zU35g-9" target="enYdKQxFRi82km_zU35g-17">
          <mxGeometry width="50" height="50" relative="1" as="geometry">
            <mxPoint x="640" y="338.00000000000006" as="sourcePoint" />
            <mxPoint x="680" y="278.66" as="targetPoint" />
          </mxGeometry>
        </mxCell>
        <mxCell id="enYdKQxFRi82km_zU35g-34" value="Upload Artifact" style="text;strokeColor=none;align=center;fillColor=none;html=1;verticalAlign=middle;whiteSpace=wrap;rounded=0;fontColor=#e70d0d;" vertex="1" parent="1">
          <mxGeometry x="646" y="325.92" width="100" height="50" as="geometry" />
        </mxCell>
        <mxCell id="enYdKQxFRi82km_zU35g-35" value="5" style="ellipse;whiteSpace=wrap;html=1;fillColor=#1ba1e2;fontColor=#ffffff;strokeColor=#006EAF;" vertex="1" parent="1">
          <mxGeometry x="676" y="312" width="40" height="26" as="geometry" />
        </mxCell>
        <mxCell id="enYdKQxFRi82km_zU35g-38" value="" style="whiteSpace=wrap;html=1;aspect=fixed;fillColor=none;" vertex="1" parent="1">
          <mxGeometry x="400" y="188.91999999999996" width="421.08" height="421.08" as="geometry" />
        </mxCell>
      </root>
    </mxGraphModel>
  </diagram>
</mxfile>
